<?xml version="1.0" encoding="utf-8"?>
<svg xmlns="http://www.w3.org/2000/svg" xmlns:xlink="http://www.w3.org/1999/xlink" width="600" height="400" viewBox="0 0 2400 1600">
<defs>
  <clipPath id="clip940">
    <rect x="0" y="0" width="2400" height="1600"/>
  </clipPath>
</defs>
<path clip-path="url(#clip940)" d="M0 1600 L2400 1600 L2400 0 L0 0  Z" fill="#ffffff" fill-rule="evenodd" fill-opacity="1"/>
<defs>
  <clipPath id="clip941">
    <rect x="480" y="0" width="1681" height="1600"/>
  </clipPath>
</defs>
<path clip-path="url(#clip940)" d="M249.542 1414.54 L2352.76 1414.54 L2352.76 123.472 L249.542 123.472  Z" fill="#ffffff" fill-rule="evenodd" fill-opacity="1"/>
<defs>
  <clipPath id="clip942">
    <rect x="249" y="123" width="2104" height="1292"/>
  </clipPath>
</defs>
<polyline clip-path="url(#clip942)" style="stroke:#000000; stroke-linecap:round; stroke-linejoin:round; stroke-width:2; stroke-opacity:0.1; fill:none" points="249.542,1414.54 249.542,123.472 "/>
<polyline clip-path="url(#clip942)" style="stroke:#000000; stroke-linecap:round; stroke-linejoin:round; stroke-width:2; stroke-opacity:0.1; fill:none" points="567.87,1414.54 567.87,123.472 "/>
<polyline clip-path="url(#clip942)" style="stroke:#000000; stroke-linecap:round; stroke-linejoin:round; stroke-width:2; stroke-opacity:0.1; fill:none" points="886.198,1414.54 886.198,123.472 "/>
<polyline clip-path="url(#clip942)" style="stroke:#000000; stroke-linecap:round; stroke-linejoin:round; stroke-width:2; stroke-opacity:0.1; fill:none" points="1204.53,1414.54 1204.53,123.472 "/>
<polyline clip-path="url(#clip942)" style="stroke:#000000; stroke-linecap:round; stroke-linejoin:round; stroke-width:2; stroke-opacity:0.1; fill:none" points="1522.85,1414.54 1522.85,123.472 "/>
<polyline clip-path="url(#clip942)" style="stroke:#000000; stroke-linecap:round; stroke-linejoin:round; stroke-width:2; stroke-opacity:0.1; fill:none" points="1841.18,1414.54 1841.18,123.472 "/>
<polyline clip-path="url(#clip942)" style="stroke:#000000; stroke-linecap:round; stroke-linejoin:round; stroke-width:2; stroke-opacity:0.1; fill:none" points="2159.51,1414.54 2159.51,123.472 "/>
<polyline clip-path="url(#clip942)" style="stroke:#000000; stroke-linecap:round; stroke-linejoin:round; stroke-width:2; stroke-opacity:0.1; fill:none" points="249.542,1414.54 2352.76,1414.54 "/>
<polyline clip-path="url(#clip942)" style="stroke:#000000; stroke-linecap:round; stroke-linejoin:round; stroke-width:2; stroke-opacity:0.1; fill:none" points="249.542,1121.12 2352.76,1121.12 "/>
<polyline clip-path="url(#clip942)" style="stroke:#000000; stroke-linecap:round; stroke-linejoin:round; stroke-width:2; stroke-opacity:0.1; fill:none" points="249.542,827.691 2352.76,827.691 "/>
<polyline clip-path="url(#clip942)" style="stroke:#000000; stroke-linecap:round; stroke-linejoin:round; stroke-width:2; stroke-opacity:0.1; fill:none" points="249.542,534.266 2352.76,534.266 "/>
<polyline clip-path="url(#clip942)" style="stroke:#000000; stroke-linecap:round; stroke-linejoin:round; stroke-width:2; stroke-opacity:0.1; fill:none" points="249.542,240.842 2352.76,240.842 "/>
<polyline clip-path="url(#clip940)" style="stroke:#000000; stroke-linecap:round; stroke-linejoin:round; stroke-width:4; stroke-opacity:1; fill:none" points="249.542,1414.54 2352.76,1414.54 "/>
<polyline clip-path="url(#clip940)" style="stroke:#000000; stroke-linecap:round; stroke-linejoin:round; stroke-width:4; stroke-opacity:1; fill:none" points="249.542,1414.54 249.542,1395.64 "/>
<polyline clip-path="url(#clip940)" style="stroke:#000000; stroke-linecap:round; stroke-linejoin:round; stroke-width:4; stroke-opacity:1; fill:none" points="567.87,1414.54 567.87,1395.64 "/>
<polyline clip-path="url(#clip940)" style="stroke:#000000; stroke-linecap:round; stroke-linejoin:round; stroke-width:4; stroke-opacity:1; fill:none" points="886.198,1414.54 886.198,1395.64 "/>
<polyline clip-path="url(#clip940)" style="stroke:#000000; stroke-linecap:round; stroke-linejoin:round; stroke-width:4; stroke-opacity:1; fill:none" points="1204.53,1414.54 1204.53,1395.64 "/>
<polyline clip-path="url(#clip940)" style="stroke:#000000; stroke-linecap:round; stroke-linejoin:round; stroke-width:4; stroke-opacity:1; fill:none" points="1522.85,1414.54 1522.85,1395.64 "/>
<polyline clip-path="url(#clip940)" style="stroke:#000000; stroke-linecap:round; stroke-linejoin:round; stroke-width:4; stroke-opacity:1; fill:none" points="1841.18,1414.54 1841.18,1395.64 "/>
<polyline clip-path="url(#clip940)" style="stroke:#000000; stroke-linecap:round; stroke-linejoin:round; stroke-width:4; stroke-opacity:1; fill:none" points="2159.51,1414.54 2159.51,1395.64 "/>
<path clip-path="url(#clip940)" d="M229.042 1482.82 L249.441 1482.82 L249.441 1487.74 L222.01 1487.74 L222.01 1482.82 Q225.338 1479.38 231.067 1473.59 Q236.825 1467.77 238.301 1466.1 Q241.107 1462.94 242.207 1460.77 Q243.335 1458.57 243.335 1456.46 Q243.335 1453.02 240.905 1450.85 Q238.503 1448.68 234.626 1448.68 Q231.877 1448.68 228.81 1449.63 Q225.772 1450.59 222.3 1452.53 L222.3 1446.62 Q225.83 1445.21 228.897 1444.48 Q231.964 1443.76 234.51 1443.76 Q241.223 1443.76 245.216 1447.12 Q249.209 1450.47 249.209 1456.08 Q249.209 1458.75 248.197 1461.15 Q247.213 1463.52 244.58 1466.76 Q243.856 1467.6 239.979 1471.62 Q236.102 1475.62 229.042 1482.82 Z" fill="#000000" fill-rule="nonzero" fill-opacity="1" /><path clip-path="url(#clip940)" d="M271.865 1448.82 Q270.419 1446.33 267.496 1446.33 Q264.574 1446.33 263.127 1448.82 Q261.651 1451.31 261.651 1456.29 Q261.651 1461.29 263.127 1463.78 Q264.574 1466.27 267.496 1466.27 Q270.419 1466.27 271.865 1463.78 Q273.341 1461.29 273.341 1456.29 Q273.341 1451.31 271.865 1448.82 M267.496 1443.76 Q272.155 1443.76 274.614 1446.97 Q277.074 1450.18 277.074 1456.29 Q277.074 1462.42 274.614 1465.63 Q272.155 1468.85 267.496 1468.85 Q262.809 1468.85 260.349 1465.63 Q257.89 1462.42 257.89 1456.29 Q257.89 1450.18 260.349 1446.97 Q262.809 1443.76 267.496 1443.76 Z" fill="#000000" fill-rule="nonzero" fill-opacity="1" /><path clip-path="url(#clip940)" d="M547.963 1482.82 L568.362 1482.82 L568.362 1487.74 L540.931 1487.74 L540.931 1482.82 Q544.259 1479.38 549.988 1473.59 Q555.746 1467.77 557.222 1466.1 Q560.028 1462.94 561.128 1460.77 Q562.256 1458.57 562.256 1456.46 Q562.256 1453.02 559.826 1450.85 Q557.424 1448.68 553.547 1448.68 Q550.798 1448.68 547.731 1449.63 Q544.693 1450.59 541.221 1452.53 L541.221 1446.62 Q544.751 1445.21 547.818 1444.48 Q550.885 1443.76 553.431 1443.76 Q560.144 1443.76 564.137 1447.12 Q568.13 1450.47 568.13 1456.08 Q568.13 1458.75 567.118 1461.15 Q566.134 1463.52 563.501 1466.76 Q562.777 1467.6 558.9 1471.62 Q555.023 1475.62 547.963 1482.82 Z" fill="#000000" fill-rule="nonzero" fill-opacity="1" /><path clip-path="url(#clip940)" d="M578.807 1465.23 L584.71 1465.23 L584.71 1447.55 L578.258 1448.74 L578.258 1445.38 L584.913 1444.25 L588.877 1444.25 L588.877 1465.23 L594.808 1465.23 L594.808 1468.41 L578.807 1468.41 L578.807 1465.23 Z" fill="#000000" fill-rule="nonzero" fill-opacity="1" /><path clip-path="url(#clip940)" d="M866.536 1482.82 L886.936 1482.82 L886.936 1487.74 L859.505 1487.74 L859.505 1482.82 Q862.833 1479.38 868.562 1473.59 Q874.32 1467.77 875.796 1466.1 Q878.602 1462.94 879.702 1460.77 Q880.83 1458.57 880.83 1456.46 Q880.83 1453.02 878.4 1450.85 Q875.998 1448.68 872.121 1448.68 Q869.372 1448.68 866.305 1449.63 Q863.267 1450.59 859.794 1452.53 L859.794 1446.62 Q863.325 1445.21 866.392 1444.48 Q869.459 1443.76 872.005 1443.76 Q878.718 1443.76 882.711 1447.12 Q886.704 1450.47 886.704 1456.08 Q886.704 1458.75 885.691 1461.15 Q884.708 1463.52 882.074 1466.76 Q881.351 1467.6 877.474 1471.62 Q873.596 1475.62 866.536 1482.82 Z" fill="#000000" fill-rule="nonzero" fill-opacity="1" /><path clip-path="url(#clip940)" d="M900.622 1465.11 L912.89 1465.11 L912.89 1468.41 L895.587 1468.41 L895.587 1465.23 Q896.571 1464.33 898.394 1462.71 Q908.347 1453.89 908.347 1451.17 Q908.347 1449.26 906.843 1448.1 Q905.338 1446.91 902.879 1446.91 Q901.374 1446.91 899.609 1447.43 Q897.844 1447.93 895.761 1448.94 L895.761 1445.38 Q897.989 1444.57 899.898 1444.16 Q901.837 1443.76 903.486 1443.76 Q907.682 1443.76 910.199 1445.67 Q912.717 1447.58 912.717 1450.7 Q912.717 1454.72 903.139 1462.94 Q901.519 1464.33 900.622 1465.11 Z" fill="#000000" fill-rule="nonzero" fill-opacity="1" /><path clip-path="url(#clip940)" d="M1184.5 1482.82 L1204.9 1482.82 L1204.9 1487.74 L1177.47 1487.74 L1177.47 1482.82 Q1180.8 1479.38 1186.53 1473.59 Q1192.29 1467.77 1193.76 1466.1 Q1196.57 1462.94 1197.67 1460.77 Q1198.8 1458.57 1198.8 1456.46 Q1198.8 1453.02 1196.37 1450.85 Q1193.96 1448.68 1190.09 1448.68 Q1187.34 1448.68 1184.27 1449.63 Q1181.23 1450.59 1177.76 1452.53 L1177.76 1446.62 Q1181.29 1445.21 1184.36 1444.48 Q1187.42 1443.76 1189.97 1443.76 Q1196.68 1443.76 1200.68 1447.12 Q1204.67 1450.47 1204.67 1456.08 Q1204.67 1458.75 1203.66 1461.15 Q1202.67 1463.52 1200.04 1466.76 Q1199.32 1467.6 1195.44 1471.62 Q1191.56 1475.62 1184.5 1482.82 Z" fill="#000000" fill-rule="nonzero" fill-opacity="1" /><path clip-path="url(#clip940)" d="M1226 1455.33 Q1228.66 1455.85 1230.1 1457.44 Q1231.58 1459.01 1231.58 1461.38 Q1231.58 1464.97 1228.83 1466.91 Q1226.08 1468.85 1220.96 1468.85 Q1219.31 1468.85 1217.49 1468.56 Q1215.69 1468.24 1213.67 1467.66 L1213.67 1464.16 Q1215.17 1464.94 1216.88 1465.32 Q1218.62 1465.69 1220.56 1465.69 Q1223.71 1465.69 1225.45 1464.56 Q1227.18 1463.41 1227.18 1461.38 Q1227.18 1459.24 1225.56 1458.14 Q1223.97 1457.04 1220.84 1457.04 L1218.36 1457.04 L1218.36 1453.91 L1221.08 1453.91 Q1223.8 1453.91 1225.19 1453.02 Q1226.6 1452.09 1226.6 1450.36 Q1226.6 1448.68 1225.16 1447.81 Q1223.71 1446.91 1220.96 1446.91 Q1219.8 1446.91 1218.33 1447.17 Q1216.85 1447.43 1214.51 1448.1 L1214.51 1444.77 Q1216.62 1444.28 1218.47 1444.02 Q1220.32 1443.76 1221.92 1443.76 Q1226.08 1443.76 1228.51 1445.47 Q1230.97 1447.17 1230.97 1450.04 Q1230.97 1452.03 1229.67 1453.42 Q1228.37 1454.81 1226 1455.33 Z" fill="#000000" fill-rule="nonzero" fill-opacity="1" /><path clip-path="url(#clip940)" d="M1502.27 1482.82 L1522.67 1482.82 L1522.67 1487.74 L1495.23 1487.74 L1495.23 1482.82 Q1498.56 1479.38 1504.29 1473.59 Q1510.05 1467.77 1511.53 1466.1 Q1514.33 1462.94 1515.43 1460.77 Q1516.56 1458.57 1516.56 1456.46 Q1516.56 1453.02 1514.13 1450.85 Q1511.73 1448.68 1507.85 1448.68 Q1505.1 1448.68 1502.03 1449.63 Q1499 1450.59 1495.52 1452.53 L1495.52 1446.62 Q1499.05 1445.21 1502.12 1444.48 Q1505.19 1443.76 1507.73 1443.76 Q1514.45 1443.76 1518.44 1447.12 Q1522.43 1450.47 1522.43 1456.08 Q1522.43 1458.75 1521.42 1461.15 Q1520.44 1463.52 1517.8 1466.76 Q1517.08 1467.6 1513.2 1471.62 Q1509.33 1475.62 1502.27 1482.82 Z" fill="#000000" fill-rule="nonzero" fill-opacity="1" /><path clip-path="url(#clip940)" d="M1542.4 1447.75 L1533.46 1459.88 L1542.4 1459.88 L1542.4 1447.75 M1541.76 1444.25 L1546.57 1444.25 L1546.57 1459.88 L1550.47 1459.88 L1550.47 1463.03 L1546.57 1463.03 L1546.57 1468.41 L1542.4 1468.41 L1542.4 1463.03 L1530.42 1463.03 L1530.42 1459.53 L1541.76 1444.25 Z" fill="#000000" fill-rule="nonzero" fill-opacity="1" /><path clip-path="url(#clip940)" d="M1821.07 1482.82 L1841.47 1482.82 L1841.47 1487.74 L1814.04 1487.74 L1814.04 1482.82 Q1817.37 1479.38 1823.1 1473.59 Q1828.85 1467.77 1830.33 1466.1 Q1833.14 1462.94 1834.24 1460.77 Q1835.37 1458.57 1835.37 1456.46 Q1835.37 1453.02 1832.93 1450.85 Q1830.53 1448.68 1826.66 1448.68 Q1823.91 1448.68 1820.84 1449.63 Q1817.8 1450.59 1814.33 1452.53 L1814.33 1446.62 Q1817.86 1445.21 1820.93 1444.48 Q1823.99 1443.76 1826.54 1443.76 Q1833.25 1443.76 1837.25 1447.12 Q1841.24 1450.47 1841.24 1456.08 Q1841.24 1458.75 1840.23 1461.15 Q1839.24 1463.52 1836.61 1466.76 Q1835.89 1467.6 1832.01 1471.62 Q1828.13 1475.62 1821.07 1482.82 Z" fill="#000000" fill-rule="nonzero" fill-opacity="1" /><path clip-path="url(#clip940)" d="M1851.51 1444.25 L1866.27 1444.25 L1866.27 1447 L1854.95 1447 L1854.95 1452.9 Q1855.76 1452.64 1856.6 1452.53 Q1857.41 1452.41 1858.22 1452.41 Q1862.88 1452.41 1865.6 1454.64 Q1868.32 1456.84 1868.32 1460.63 Q1868.32 1464.53 1865.52 1466.7 Q1862.74 1468.85 1857.65 1468.85 Q1855.91 1468.85 1854.09 1468.58 Q1852.26 1468.32 1850.35 1467.8 L1850.35 1464.53 Q1852 1465.32 1853.8 1465.72 Q1855.59 1466.1 1857.59 1466.1 Q1860.8 1466.1 1862.68 1464.62 Q1864.56 1463.15 1864.56 1460.63 Q1864.56 1458.11 1862.68 1456.63 Q1860.8 1455.16 1857.59 1455.16 Q1856.08 1455.16 1854.58 1455.45 Q1853.07 1455.74 1851.51 1456.35 L1851.51 1444.25 Z" fill="#000000" fill-rule="nonzero" fill-opacity="1" /><path clip-path="url(#clip940)" d="M2138.94 1482.82 L2159.34 1482.82 L2159.34 1487.74 L2131.9 1487.74 L2131.9 1482.82 Q2135.23 1479.38 2140.96 1473.59 Q2146.72 1467.77 2148.2 1466.1 Q2151 1462.94 2152.1 1460.77 Q2153.23 1458.57 2153.23 1456.46 Q2153.23 1453.02 2150.8 1450.85 Q2148.4 1448.68 2144.52 1448.68 Q2141.77 1448.68 2138.7 1449.63 Q2135.67 1450.59 2132.19 1452.53 L2132.19 1446.62 Q2135.72 1445.21 2138.79 1444.48 Q2141.86 1443.76 2144.4 1443.76 Q2151.12 1443.76 2155.11 1447.12 Q2159.1 1450.47 2159.1 1456.08 Q2159.1 1458.75 2158.09 1461.15 Q2157.11 1463.52 2154.47 1466.76 Q2153.75 1467.6 2149.87 1471.62 Q2146 1475.62 2138.94 1482.82 Z" fill="#000000" fill-rule="nonzero" fill-opacity="1" /><path clip-path="url(#clip940)" d="M2177.85 1454.96 Q2175.31 1454.96 2173.83 1456.46 Q2172.36 1457.99 2172.36 1460.63 Q2172.36 1463.23 2173.83 1464.74 Q2175.31 1466.27 2177.85 1466.27 Q2180.37 1466.27 2181.85 1464.74 Q2183.32 1463.23 2183.32 1460.63 Q2183.32 1457.99 2181.85 1456.46 Q2180.37 1454.96 2177.85 1454.96 M2185.32 1444.71 L2185.32 1447.69 Q2183.9 1447.12 2182.45 1446.83 Q2181.01 1446.51 2179.59 1446.51 Q2175.89 1446.51 2173.92 1448.68 Q2171.95 1450.88 2171.66 1455.3 Q2172.76 1453.89 2174.41 1453.13 Q2176.09 1452.38 2178.06 1452.38 Q2182.25 1452.38 2184.68 1454.58 Q2187.11 1456.81 2187.11 1460.63 Q2187.11 1464.3 2184.57 1466.59 Q2182.05 1468.85 2177.85 1468.85 Q2173.02 1468.85 2170.48 1465.63 Q2167.93 1462.42 2167.93 1456.29 Q2167.93 1450.56 2171.05 1447.17 Q2174.18 1443.76 2179.45 1443.76 Q2180.86 1443.76 2182.31 1443.99 Q2183.76 1444.25 2185.32 1444.71 Z" fill="#000000" fill-rule="nonzero" fill-opacity="1" /><path clip-path="url(#clip940)" d="M659.343 1524.84 L665.836 1524.84 L675.83 1565.01 L685.792 1524.84 L693.017 1524.84 L703.011 1565.01 L712.974 1524.84 L719.498 1524.84 L707.563 1572.36 L699.478 1572.36 L689.452 1531.11 L679.331 1572.36 L671.246 1572.36 L659.343 1524.84 Z" fill="#000000" fill-rule="nonzero" fill-opacity="1" /><path clip-path="url(#clip940)" d="M726.342 1536.72 L732.198 1536.72 L732.198 1572.36 L726.342 1572.36 L726.342 1536.72 M726.342 1522.84 L732.198 1522.84 L732.198 1530.25 L726.342 1530.25 L726.342 1522.84 Z" fill="#000000" fill-rule="nonzero" fill-opacity="1" /><path clip-path="url(#clip940)" d="M750.245 1526.59 L750.245 1536.72 L762.308 1536.72 L762.308 1541.27 L750.245 1541.27 L750.245 1560.62 Q750.245 1564.98 751.422 1566.22 Q752.632 1567.46 756.292 1567.46 L762.308 1567.46 L762.308 1572.36 L756.292 1572.36 Q749.513 1572.36 746.935 1569.85 Q744.357 1567.3 744.357 1560.62 L744.357 1541.27 L740.06 1541.27 L740.06 1536.72 L744.357 1536.72 L744.357 1526.59 L750.245 1526.59 Z" fill="#000000" fill-rule="nonzero" fill-opacity="1" /><path clip-path="url(#clip940)" d="M799.643 1550.85 L799.643 1572.36 L793.786 1572.36 L793.786 1551.04 Q793.786 1545.98 791.813 1543.46 Q789.839 1540.95 785.893 1540.95 Q781.15 1540.95 778.413 1543.97 Q775.676 1547 775.676 1552.22 L775.676 1572.36 L769.788 1572.36 L769.788 1522.84 L775.676 1522.84 L775.676 1542.25 Q777.776 1539.04 780.609 1537.45 Q783.474 1535.86 787.198 1535.86 Q793.341 1535.86 796.492 1539.68 Q799.643 1543.46 799.643 1550.85 Z" fill="#000000" fill-rule="nonzero" fill-opacity="1" /><path clip-path="url(#clip940)" d="M811.324 1536.72 L817.18 1536.72 L817.18 1572.36 L811.324 1572.36 L811.324 1536.72 M811.324 1522.84 L817.18 1522.84 L817.18 1530.25 L811.324 1530.25 L811.324 1522.84 Z" fill="#000000" fill-rule="nonzero" fill-opacity="1" /><path clip-path="url(#clip940)" d="M859.067 1550.85 L859.067 1572.36 L853.21 1572.36 L853.21 1551.04 Q853.21 1545.98 851.237 1543.46 Q849.263 1540.95 845.317 1540.95 Q840.574 1540.95 837.837 1543.97 Q835.1 1547 835.1 1552.22 L835.1 1572.36 L829.211 1572.36 L829.211 1536.72 L835.1 1536.72 L835.1 1542.25 Q837.2 1539.04 840.033 1537.45 Q842.898 1535.86 846.622 1535.86 Q852.765 1535.86 855.916 1539.68 Q859.067 1543.46 859.067 1550.85 Z" fill="#000000" fill-rule="nonzero" fill-opacity="1" /><path clip-path="url(#clip940)" d="M897.261 1526.59 L897.261 1536.72 L909.324 1536.72 L909.324 1541.27 L897.261 1541.27 L897.261 1560.62 Q897.261 1564.98 898.438 1566.22 Q899.648 1567.46 903.308 1567.46 L909.324 1567.46 L909.324 1572.36 L903.308 1572.36 Q896.529 1572.36 893.951 1569.85 Q891.373 1567.3 891.373 1560.62 L891.373 1541.27 L887.076 1541.27 L887.076 1536.72 L891.373 1536.72 L891.373 1526.59 L897.261 1526.59 Z" fill="#000000" fill-rule="nonzero" fill-opacity="1" /><path clip-path="url(#clip940)" d="M946.659 1550.85 L946.659 1572.36 L940.802 1572.36 L940.802 1551.04 Q940.802 1545.98 938.829 1543.46 Q936.855 1540.95 932.909 1540.95 Q928.166 1540.95 925.429 1543.97 Q922.692 1547 922.692 1552.22 L922.692 1572.36 L916.804 1572.36 L916.804 1522.84 L922.692 1522.84 L922.692 1542.25 Q924.792 1539.04 927.625 1537.45 Q930.49 1535.86 934.214 1535.86 Q940.357 1535.86 943.508 1539.68 Q946.659 1543.46 946.659 1550.85 Z" fill="#000000" fill-rule="nonzero" fill-opacity="1" /><path clip-path="url(#clip940)" d="M958.34 1536.72 L964.196 1536.72 L964.196 1572.36 L958.34 1572.36 L958.34 1536.72 M958.34 1522.84 L964.196 1522.84 L964.196 1530.25 L958.34 1530.25 L958.34 1522.84 Z" fill="#000000" fill-rule="nonzero" fill-opacity="1" /><path clip-path="url(#clip940)" d="M999.176 1537.77 L999.176 1543.3 Q996.693 1542.03 994.02 1541.39 Q991.346 1540.76 988.481 1540.76 Q984.121 1540.76 981.925 1542.09 Q979.76 1543.43 979.76 1546.11 Q979.76 1548.14 981.32 1549.32 Q982.88 1550.47 987.59 1551.52 L989.595 1551.96 Q995.834 1553.3 998.444 1555.75 Q1001.09 1558.17 1001.09 1562.53 Q1001.09 1567.49 997.139 1570.39 Q993.224 1573.29 986.349 1573.29 Q983.484 1573.29 980.365 1572.71 Q977.278 1572.17 973.84 1571.06 L973.84 1565.01 Q977.087 1566.7 980.238 1567.56 Q983.389 1568.39 986.476 1568.39 Q990.614 1568.39 992.842 1566.98 Q995.07 1565.55 995.07 1562.97 Q995.07 1560.59 993.447 1559.31 Q991.855 1558.04 986.413 1556.86 L984.375 1556.39 Q978.933 1555.24 976.514 1552.88 Q974.095 1550.5 974.095 1546.36 Q974.095 1541.33 977.66 1538.59 Q981.224 1535.86 987.781 1535.86 Q991.028 1535.86 993.892 1536.33 Q996.757 1536.81 999.176 1537.77 Z" fill="#000000" fill-rule="nonzero" fill-opacity="1" /><path clip-path="url(#clip940)" d="M1049.18 1522.84 L1049.18 1527.71 L1043.58 1527.71 Q1040.43 1527.71 1039.18 1528.98 Q1037.97 1530.25 1037.97 1533.56 L1037.97 1536.72 L1047.62 1536.72 L1047.62 1541.27 L1037.97 1541.27 L1037.97 1572.36 L1032.09 1572.36 L1032.09 1541.27 L1026.48 1541.27 L1026.48 1536.72 L1032.09 1536.72 L1032.09 1534.23 Q1032.09 1528.28 1034.86 1525.58 Q1037.62 1522.84 1043.64 1522.84 L1049.18 1522.84 Z" fill="#000000" fill-rule="nonzero" fill-opacity="1" /><path clip-path="url(#clip940)" d="M1070.28 1554.44 Q1063.18 1554.44 1060.45 1556.07 Q1057.71 1557.69 1057.71 1561.61 Q1057.71 1564.72 1059.75 1566.57 Q1061.81 1568.39 1065.35 1568.39 Q1070.22 1568.39 1073.15 1564.95 Q1076.11 1561.48 1076.11 1555.75 L1076.11 1554.44 L1070.28 1554.44 M1081.96 1552.03 L1081.96 1572.36 L1076.11 1572.36 L1076.11 1566.95 Q1074.1 1570.2 1071.11 1571.76 Q1068.12 1573.29 1063.79 1573.29 Q1058.31 1573.29 1055.07 1570.23 Q1051.85 1567.14 1051.85 1561.99 Q1051.85 1555.97 1055.86 1552.92 Q1059.9 1549.86 1067.89 1549.86 L1076.11 1549.86 L1076.11 1549.29 Q1076.11 1545.25 1073.43 1543.05 Q1070.79 1540.82 1065.98 1540.82 Q1062.93 1540.82 1060.03 1541.55 Q1057.14 1542.29 1054.46 1543.75 L1054.46 1538.34 Q1057.68 1537.1 1060.7 1536.49 Q1063.72 1535.86 1066.59 1535.86 Q1074.32 1535.86 1078.14 1539.87 Q1081.96 1543.88 1081.96 1552.03 Z" fill="#000000" fill-rule="nonzero" fill-opacity="1" /><path clip-path="url(#clip940)" d="M1119.68 1538.08 L1119.68 1543.56 Q1117.2 1542.19 1114.68 1541.52 Q1112.2 1540.82 1109.65 1540.82 Q1103.96 1540.82 1100.8 1544.45 Q1097.65 1548.05 1097.65 1554.57 Q1097.65 1561.1 1100.8 1564.72 Q1103.96 1568.32 1109.65 1568.32 Q1112.2 1568.32 1114.68 1567.65 Q1117.2 1566.95 1119.68 1565.58 L1119.68 1571 Q1117.23 1572.14 1114.59 1572.71 Q1111.98 1573.29 1109.02 1573.29 Q1100.96 1573.29 1096.22 1568.23 Q1091.48 1563.17 1091.48 1554.57 Q1091.48 1545.85 1096.25 1540.85 Q1101.06 1535.86 1109.4 1535.86 Q1112.1 1535.86 1114.68 1536.43 Q1117.26 1536.97 1119.68 1538.08 Z" fill="#000000" fill-rule="nonzero" fill-opacity="1" /><path clip-path="url(#clip940)" d="M1135.66 1526.59 L1135.66 1536.72 L1147.72 1536.72 L1147.72 1541.27 L1135.66 1541.27 L1135.66 1560.62 Q1135.66 1564.98 1136.83 1566.22 Q1138.04 1567.46 1141.7 1567.46 L1147.72 1567.46 L1147.72 1572.36 L1141.7 1572.36 Q1134.92 1572.36 1132.35 1569.85 Q1129.77 1567.3 1129.77 1560.62 L1129.77 1541.27 L1125.47 1541.27 L1125.47 1536.72 L1129.77 1536.72 L1129.77 1526.59 L1135.66 1526.59 Z" fill="#000000" fill-rule="nonzero" fill-opacity="1" /><path clip-path="url(#clip940)" d="M1169.24 1540.82 Q1164.52 1540.82 1161.79 1544.51 Q1159.05 1548.17 1159.05 1554.57 Q1159.05 1560.97 1161.76 1564.66 Q1164.49 1568.32 1169.24 1568.32 Q1173.91 1568.32 1176.65 1564.63 Q1179.39 1560.94 1179.39 1554.57 Q1179.39 1548.24 1176.65 1544.55 Q1173.91 1540.82 1169.24 1540.82 M1169.24 1535.86 Q1176.87 1535.86 1181.23 1540.82 Q1185.6 1545.79 1185.6 1554.57 Q1185.6 1563.32 1181.23 1568.32 Q1176.87 1573.29 1169.24 1573.29 Q1161.56 1573.29 1157.2 1568.32 Q1152.88 1563.32 1152.88 1554.57 Q1152.88 1545.79 1157.2 1540.82 Q1161.56 1535.86 1169.24 1535.86 Z" fill="#000000" fill-rule="nonzero" fill-opacity="1" /><path clip-path="url(#clip940)" d="M1215.96 1542.19 Q1214.97 1541.62 1213.8 1541.36 Q1212.65 1541.08 1211.25 1541.08 Q1206.28 1541.08 1203.61 1544.32 Q1200.97 1547.54 1200.97 1553.59 L1200.97 1572.36 L1195.08 1572.36 L1195.08 1536.72 L1200.97 1536.72 L1200.97 1542.25 Q1202.81 1539.01 1205.77 1537.45 Q1208.73 1535.86 1212.97 1535.86 Q1213.57 1535.86 1214.3 1535.95 Q1215.04 1536.02 1215.93 1536.17 L1215.96 1542.19 Z" fill="#000000" fill-rule="nonzero" fill-opacity="1" /><path clip-path="url(#clip940)" d="M1256.64 1540.82 Q1251.93 1540.82 1249.19 1544.51 Q1246.45 1548.17 1246.45 1554.57 Q1246.45 1560.97 1249.16 1564.66 Q1251.89 1568.32 1256.64 1568.32 Q1261.32 1568.32 1264.05 1564.63 Q1266.79 1560.94 1266.79 1554.57 Q1266.79 1548.24 1264.05 1544.55 Q1261.32 1540.82 1256.64 1540.82 M1256.64 1535.86 Q1264.28 1535.86 1268.64 1540.82 Q1273 1545.79 1273 1554.57 Q1273 1563.32 1268.64 1568.32 Q1264.28 1573.29 1256.64 1573.29 Q1248.97 1573.29 1244.61 1568.32 Q1240.28 1563.32 1240.28 1554.57 Q1240.28 1545.79 1244.61 1540.82 Q1248.97 1535.86 1256.64 1535.86 Z" fill="#000000" fill-rule="nonzero" fill-opacity="1" /><path clip-path="url(#clip940)" d="M1300.75 1522.84 L1300.75 1527.71 L1295.15 1527.71 Q1292 1527.71 1290.76 1528.98 Q1289.55 1530.25 1289.55 1533.56 L1289.55 1536.72 L1299.19 1536.72 L1299.19 1541.27 L1289.55 1541.27 L1289.55 1572.36 L1283.66 1572.36 L1283.66 1541.27 L1278.06 1541.27 L1278.06 1536.72 L1283.66 1536.72 L1283.66 1534.23 Q1283.66 1528.28 1286.43 1525.58 Q1289.2 1522.84 1295.21 1522.84 L1300.75 1522.84 Z" fill="#000000" fill-rule="nonzero" fill-opacity="1" /><path clip-path="url(#clip940)" d="M1332.17 1526.59 L1332.17 1536.72 L1344.23 1536.72 L1344.23 1541.27 L1332.17 1541.27 L1332.17 1560.62 Q1332.17 1564.98 1333.34 1566.22 Q1334.55 1567.46 1338.21 1567.46 L1344.23 1567.46 L1344.23 1572.36 L1338.21 1572.36 Q1331.43 1572.36 1328.86 1569.85 Q1326.28 1567.3 1326.28 1560.62 L1326.28 1541.27 L1321.98 1541.27 L1321.98 1536.72 L1326.28 1536.72 L1326.28 1526.59 L1332.17 1526.59 Z" fill="#000000" fill-rule="nonzero" fill-opacity="1" /><path clip-path="url(#clip940)" d="M1381.56 1550.85 L1381.56 1572.36 L1375.71 1572.36 L1375.71 1551.04 Q1375.71 1545.98 1373.73 1543.46 Q1371.76 1540.95 1367.81 1540.95 Q1363.07 1540.95 1360.33 1543.97 Q1357.6 1547 1357.6 1552.22 L1357.6 1572.36 L1351.71 1572.36 L1351.71 1522.84 L1357.6 1522.84 L1357.6 1542.25 Q1359.7 1539.04 1362.53 1537.45 Q1365.39 1535.86 1369.12 1535.86 Q1375.26 1535.86 1378.41 1539.68 Q1381.56 1543.46 1381.56 1550.85 Z" fill="#000000" fill-rule="nonzero" fill-opacity="1" /><path clip-path="url(#clip940)" d="M1423.74 1553.08 L1423.74 1555.94 L1396.81 1555.94 Q1397.19 1561.99 1400.44 1565.17 Q1403.72 1568.32 1409.54 1568.32 Q1412.91 1568.32 1416.07 1567.49 Q1419.25 1566.67 1422.37 1565.01 L1422.37 1570.55 Q1419.22 1571.89 1415.91 1572.59 Q1412.6 1573.29 1409.19 1573.29 Q1400.66 1573.29 1395.66 1568.32 Q1390.7 1563.36 1390.7 1554.89 Q1390.7 1546.14 1395.41 1541.01 Q1400.15 1535.86 1408.17 1535.86 Q1415.37 1535.86 1419.54 1540.5 Q1423.74 1545.12 1423.74 1553.08 M1417.88 1551.36 Q1417.82 1546.55 1415.17 1543.69 Q1412.56 1540.82 1408.24 1540.82 Q1403.33 1540.82 1400.37 1543.59 Q1397.45 1546.36 1397 1551.39 L1417.88 1551.36 Z" fill="#000000" fill-rule="nonzero" fill-opacity="1" /><path clip-path="url(#clip940)" d="M1479.66 1554.57 Q1479.66 1548.11 1476.99 1544.45 Q1474.34 1540.76 1469.7 1540.76 Q1465.05 1540.76 1462.38 1544.45 Q1459.73 1548.11 1459.73 1554.57 Q1459.73 1561.03 1462.38 1564.72 Q1465.05 1568.39 1469.7 1568.39 Q1474.34 1568.39 1476.99 1564.72 Q1479.66 1561.03 1479.66 1554.57 M1459.73 1542.13 Q1461.58 1538.94 1464.38 1537.42 Q1467.21 1535.86 1471.13 1535.86 Q1477.62 1535.86 1481.66 1541.01 Q1485.74 1546.17 1485.74 1554.57 Q1485.74 1562.97 1481.66 1568.13 Q1477.62 1573.29 1471.13 1573.29 Q1467.21 1573.29 1464.38 1571.76 Q1461.58 1570.2 1459.73 1567.02 L1459.73 1572.36 L1453.85 1572.36 L1453.85 1522.84 L1459.73 1522.84 L1459.73 1542.13 Z" fill="#000000" fill-rule="nonzero" fill-opacity="1" /><path clip-path="url(#clip940)" d="M1525.94 1553.08 L1525.94 1555.94 L1499.01 1555.94 Q1499.39 1561.99 1502.64 1565.17 Q1505.92 1568.32 1511.74 1568.32 Q1515.12 1568.32 1518.27 1567.49 Q1521.45 1566.67 1524.57 1565.01 L1524.57 1570.55 Q1521.42 1571.89 1518.11 1572.59 Q1514.8 1573.29 1511.39 1573.29 Q1502.86 1573.29 1497.87 1568.32 Q1492.9 1563.36 1492.9 1554.89 Q1492.9 1546.14 1497.61 1541.01 Q1502.35 1535.86 1510.37 1535.86 Q1517.57 1535.86 1521.74 1540.5 Q1525.94 1545.12 1525.94 1553.08 M1520.08 1551.36 Q1520.02 1546.55 1517.38 1543.69 Q1514.77 1540.82 1510.44 1540.82 Q1505.54 1540.82 1502.58 1543.59 Q1499.65 1546.36 1499.2 1551.39 L1520.08 1551.36 Z" fill="#000000" fill-rule="nonzero" fill-opacity="1" /><path clip-path="url(#clip940)" d="M1558.28 1537.77 L1558.28 1543.3 Q1555.79 1542.03 1553.12 1541.39 Q1550.45 1540.76 1547.58 1540.76 Q1543.22 1540.76 1541.02 1542.09 Q1538.86 1543.43 1538.86 1546.11 Q1538.86 1548.14 1540.42 1549.32 Q1541.98 1550.47 1546.69 1551.52 L1548.7 1551.96 Q1554.93 1553.3 1557.54 1555.75 Q1560.19 1558.17 1560.19 1562.53 Q1560.19 1567.49 1556.24 1570.39 Q1552.32 1573.29 1545.45 1573.29 Q1542.58 1573.29 1539.47 1572.71 Q1536.38 1572.17 1532.94 1571.06 L1532.94 1565.01 Q1536.19 1566.7 1539.34 1567.56 Q1542.49 1568.39 1545.58 1568.39 Q1549.71 1568.39 1551.94 1566.98 Q1554.17 1565.55 1554.17 1562.97 Q1554.17 1560.59 1552.55 1559.31 Q1550.96 1558.04 1545.51 1556.86 L1543.48 1556.39 Q1538.03 1555.24 1535.61 1552.88 Q1533.19 1550.5 1533.19 1546.36 Q1533.19 1541.33 1536.76 1538.59 Q1540.32 1535.86 1546.88 1535.86 Q1550.13 1535.86 1552.99 1536.33 Q1555.86 1536.81 1558.28 1537.77 Z" fill="#000000" fill-rule="nonzero" fill-opacity="1" /><path clip-path="url(#clip940)" d="M1575.3 1526.59 L1575.3 1536.72 L1587.37 1536.72 L1587.37 1541.27 L1575.3 1541.27 L1575.3 1560.62 Q1575.3 1564.98 1576.48 1566.22 Q1577.69 1567.46 1581.35 1567.46 L1587.37 1567.46 L1587.37 1572.36 L1581.35 1572.36 Q1574.57 1572.36 1571.99 1569.85 Q1569.42 1567.3 1569.42 1560.62 L1569.42 1541.27 L1565.12 1541.27 L1565.12 1536.72 L1569.42 1536.72 L1569.42 1526.59 L1575.3 1526.59 Z" fill="#000000" fill-rule="nonzero" fill-opacity="1" /><path clip-path="url(#clip940)" d="M1629.86 1522.9 Q1625.59 1530.22 1623.52 1537.38 Q1621.46 1544.55 1621.46 1551.9 Q1621.46 1559.25 1623.52 1566.48 Q1625.62 1573.67 1629.86 1580.96 L1624.77 1580.96 Q1619.99 1573.48 1617.6 1566.25 Q1615.25 1559.03 1615.25 1551.9 Q1615.25 1544.8 1617.6 1537.61 Q1619.96 1530.41 1624.77 1522.9 L1629.86 1522.9 Z" fill="#000000" fill-rule="nonzero" fill-opacity="1" /><path clip-path="url(#clip940)" d="M1641.22 1522.84 L1647.08 1522.84 L1647.08 1572.36 L1641.22 1572.36 L1641.22 1522.84 Z" fill="#000000" fill-rule="nonzero" fill-opacity="1" /><path clip-path="url(#clip940)" d="M1673.14 1540.82 Q1668.43 1540.82 1665.7 1544.51 Q1662.96 1548.17 1662.96 1554.57 Q1662.96 1560.97 1665.67 1564.66 Q1668.4 1568.32 1673.14 1568.32 Q1677.82 1568.32 1680.56 1564.63 Q1683.3 1560.94 1683.3 1554.57 Q1683.3 1548.24 1680.56 1544.55 Q1677.82 1540.82 1673.14 1540.82 M1673.14 1535.86 Q1680.78 1535.86 1685.14 1540.82 Q1689.5 1545.79 1689.5 1554.57 Q1689.5 1563.32 1685.14 1568.32 Q1680.78 1573.29 1673.14 1573.29 Q1665.47 1573.29 1661.11 1568.32 Q1656.79 1563.32 1656.79 1554.57 Q1656.79 1545.79 1661.11 1540.82 Q1665.47 1535.86 1673.14 1535.86 Z" fill="#000000" fill-rule="nonzero" fill-opacity="1" /><path clip-path="url(#clip940)" d="M1722.67 1554.13 Q1722.67 1547.76 1720.03 1544.26 Q1717.42 1540.76 1712.68 1540.76 Q1707.97 1540.76 1705.32 1544.26 Q1702.71 1547.76 1702.71 1554.13 Q1702.71 1560.46 1705.32 1563.96 Q1707.97 1567.46 1712.68 1567.46 Q1717.42 1567.46 1720.03 1563.96 Q1722.67 1560.46 1722.67 1554.13 M1728.53 1567.94 Q1728.53 1577.04 1724.48 1581.47 Q1720.44 1585.92 1712.1 1585.92 Q1709.02 1585.92 1706.28 1585.45 Q1703.54 1585 1700.96 1584.04 L1700.96 1578.35 Q1703.54 1579.75 1706.06 1580.42 Q1708.57 1581.08 1711.18 1581.08 Q1716.94 1581.08 1719.81 1578.06 Q1722.67 1575.07 1722.67 1568.99 L1722.67 1566.09 Q1720.86 1569.24 1718.02 1570.8 Q1715.19 1572.36 1711.24 1572.36 Q1704.69 1572.36 1700.68 1567.37 Q1696.67 1562.37 1696.67 1554.13 Q1696.67 1545.85 1700.68 1540.85 Q1704.69 1535.86 1711.24 1535.86 Q1715.19 1535.86 1718.02 1537.42 Q1720.86 1538.98 1722.67 1542.13 L1722.67 1536.72 L1728.53 1536.72 L1728.53 1567.94 Z" fill="#000000" fill-rule="nonzero" fill-opacity="1" /><path clip-path="url(#clip940)" d="M1784.04 1537.77 L1784.04 1543.3 Q1781.55 1542.03 1778.88 1541.39 Q1776.21 1540.76 1773.34 1540.76 Q1768.98 1540.76 1766.78 1542.09 Q1764.62 1543.43 1764.62 1546.11 Q1764.62 1548.14 1766.18 1549.32 Q1767.74 1550.47 1772.45 1551.52 L1774.46 1551.96 Q1780.69 1553.3 1783.3 1555.75 Q1785.95 1558.17 1785.95 1562.53 Q1785.95 1567.49 1782 1570.39 Q1778.08 1573.29 1771.21 1573.29 Q1768.34 1573.29 1765.22 1572.71 Q1762.14 1572.17 1758.7 1571.06 L1758.7 1565.01 Q1761.95 1566.7 1765.1 1567.56 Q1768.25 1568.39 1771.34 1568.39 Q1775.47 1568.39 1777.7 1566.98 Q1779.93 1565.55 1779.93 1562.97 Q1779.93 1560.59 1778.31 1559.31 Q1776.71 1558.04 1771.27 1556.86 L1769.24 1556.39 Q1763.79 1555.24 1761.37 1552.88 Q1758.95 1550.5 1758.95 1546.36 Q1758.95 1541.33 1762.52 1538.59 Q1766.08 1535.86 1772.64 1535.86 Q1775.89 1535.86 1778.75 1536.33 Q1781.62 1536.81 1784.04 1537.77 Z" fill="#000000" fill-rule="nonzero" fill-opacity="1" /><path clip-path="url(#clip940)" d="M1820.92 1538.08 L1820.92 1543.56 Q1818.44 1542.19 1815.93 1541.52 Q1813.45 1540.82 1810.9 1540.82 Q1805.2 1540.82 1802.05 1544.45 Q1798.9 1548.05 1798.9 1554.57 Q1798.9 1561.1 1802.05 1564.72 Q1805.2 1568.32 1810.9 1568.32 Q1813.45 1568.32 1815.93 1567.65 Q1818.44 1566.95 1820.92 1565.58 L1820.92 1571 Q1818.47 1572.14 1815.83 1572.71 Q1813.22 1573.29 1810.26 1573.29 Q1802.21 1573.29 1797.47 1568.23 Q1792.72 1563.17 1792.72 1554.57 Q1792.72 1545.85 1797.5 1540.85 Q1802.31 1535.86 1810.64 1535.86 Q1813.35 1535.86 1815.93 1536.43 Q1818.51 1536.97 1820.92 1538.08 Z" fill="#000000" fill-rule="nonzero" fill-opacity="1" /><path clip-path="url(#clip940)" d="M1847.31 1554.44 Q1840.21 1554.44 1837.48 1556.07 Q1834.74 1557.69 1834.74 1561.61 Q1834.74 1564.72 1836.78 1566.57 Q1838.84 1568.39 1842.38 1568.39 Q1847.25 1568.39 1850.18 1564.95 Q1853.14 1561.48 1853.14 1555.75 L1853.14 1554.44 L1847.31 1554.44 M1858.99 1552.03 L1858.99 1572.36 L1853.14 1572.36 L1853.14 1566.95 Q1851.13 1570.2 1848.14 1571.76 Q1845.15 1573.29 1840.82 1573.29 Q1835.34 1573.29 1832.1 1570.23 Q1828.88 1567.14 1828.88 1561.99 Q1828.88 1555.97 1832.89 1552.92 Q1836.93 1549.86 1844.92 1549.86 L1853.14 1549.86 L1853.14 1549.29 Q1853.14 1545.25 1850.46 1543.05 Q1847.82 1540.82 1843.01 1540.82 Q1839.96 1540.82 1837.06 1541.55 Q1834.17 1542.29 1831.49 1543.75 L1831.49 1538.34 Q1834.71 1537.1 1837.73 1536.49 Q1840.75 1535.86 1843.62 1535.86 Q1851.35 1535.86 1855.17 1539.87 Q1858.99 1543.88 1858.99 1552.03 Z" fill="#000000" fill-rule="nonzero" fill-opacity="1" /><path clip-path="url(#clip940)" d="M1871.05 1522.84 L1876.91 1522.84 L1876.91 1572.36 L1871.05 1572.36 L1871.05 1522.84 Z" fill="#000000" fill-rule="nonzero" fill-opacity="1" /><path clip-path="url(#clip940)" d="M1919.66 1553.08 L1919.66 1555.94 L1892.73 1555.94 Q1893.11 1561.99 1896.36 1565.17 Q1899.64 1568.32 1905.46 1568.32 Q1908.84 1568.32 1911.99 1567.49 Q1915.17 1566.67 1918.29 1565.01 L1918.29 1570.55 Q1915.14 1571.89 1911.83 1572.59 Q1908.52 1573.29 1905.11 1573.29 Q1896.58 1573.29 1891.58 1568.32 Q1886.62 1563.36 1886.62 1554.89 Q1886.62 1546.14 1891.33 1541.01 Q1896.07 1535.86 1904.09 1535.86 Q1911.29 1535.86 1915.46 1540.5 Q1919.66 1545.12 1919.66 1553.08 M1913.8 1551.36 Q1913.74 1546.55 1911.1 1543.69 Q1908.49 1540.82 1904.16 1540.82 Q1899.25 1540.82 1896.29 1543.59 Q1893.37 1546.36 1892.92 1551.39 L1913.8 1551.36 Z" fill="#000000" fill-rule="nonzero" fill-opacity="1" /><path clip-path="url(#clip940)" d="M1928.35 1522.9 L1933.44 1522.9 Q1938.21 1530.41 1940.57 1537.61 Q1942.96 1544.8 1942.96 1551.9 Q1942.96 1559.03 1940.57 1566.25 Q1938.21 1573.48 1933.44 1580.96 L1928.35 1580.96 Q1932.58 1573.67 1934.65 1566.48 Q1936.75 1559.25 1936.75 1551.9 Q1936.75 1544.55 1934.65 1537.38 Q1932.58 1530.22 1928.35 1522.9 Z" fill="#000000" fill-rule="nonzero" fill-opacity="1" /><polyline clip-path="url(#clip940)" style="stroke:#000000; stroke-linecap:round; stroke-linejoin:round; stroke-width:4; stroke-opacity:1; fill:none" points="249.542,1414.54 249.542,123.472 "/>
<polyline clip-path="url(#clip940)" style="stroke:#000000; stroke-linecap:round; stroke-linejoin:round; stroke-width:4; stroke-opacity:1; fill:none" points="249.542,1414.54 268.44,1414.54 "/>
<polyline clip-path="url(#clip940)" style="stroke:#000000; stroke-linecap:round; stroke-linejoin:round; stroke-width:4; stroke-opacity:1; fill:none" points="249.542,1121.12 268.44,1121.12 "/>
<polyline clip-path="url(#clip940)" style="stroke:#000000; stroke-linecap:round; stroke-linejoin:round; stroke-width:4; stroke-opacity:1; fill:none" points="249.542,827.691 268.44,827.691 "/>
<polyline clip-path="url(#clip940)" style="stroke:#000000; stroke-linecap:round; stroke-linejoin:round; stroke-width:4; stroke-opacity:1; fill:none" points="249.542,534.266 268.44,534.266 "/>
<polyline clip-path="url(#clip940)" style="stroke:#000000; stroke-linecap:round; stroke-linejoin:round; stroke-width:4; stroke-opacity:1; fill:none" points="249.542,240.842 268.44,240.842 "/>
<path clip-path="url(#clip940)" d="M126.205 1400.34 Q122.593 1400.34 120.765 1403.9 Q118.959 1407.44 118.959 1414.57 Q118.959 1421.68 120.765 1425.25 Q122.593 1428.79 126.205 1428.79 Q129.839 1428.79 131.644 1425.25 Q133.473 1421.68 133.473 1414.57 Q133.473 1407.44 131.644 1403.9 Q129.839 1400.34 126.205 1400.34 M126.205 1396.63 Q132.015 1396.63 135.07 1401.24 Q138.149 1405.82 138.149 1414.57 Q138.149 1423.3 135.07 1427.91 Q132.015 1432.49 126.205 1432.49 Q120.394 1432.49 117.316 1427.91 Q114.26 1423.3 114.26 1414.57 Q114.26 1405.82 117.316 1401.24 Q120.394 1396.63 126.205 1396.63 Z" fill="#000000" fill-rule="nonzero" fill-opacity="1" /><path clip-path="url(#clip940)" d="M146.366 1425.94 L151.251 1425.94 L151.251 1431.82 L146.366 1431.82 L146.366 1425.94 Z" fill="#000000" fill-rule="nonzero" fill-opacity="1" /><path clip-path="url(#clip940)" d="M171.436 1400.34 Q167.825 1400.34 165.996 1403.9 Q164.19 1407.44 164.19 1414.57 Q164.19 1421.68 165.996 1425.25 Q167.825 1428.79 171.436 1428.79 Q175.07 1428.79 176.876 1425.25 Q178.704 1421.68 178.704 1414.57 Q178.704 1407.44 176.876 1403.9 Q175.07 1400.34 171.436 1400.34 M171.436 1396.63 Q177.246 1396.63 180.301 1401.24 Q183.38 1405.82 183.38 1414.57 Q183.38 1423.3 180.301 1427.91 Q177.246 1432.49 171.436 1432.49 Q165.626 1432.49 162.547 1427.91 Q159.491 1423.3 159.491 1414.57 Q159.491 1405.82 162.547 1401.24 Q165.626 1396.63 171.436 1396.63 Z" fill="#000000" fill-rule="nonzero" fill-opacity="1" /><path clip-path="url(#clip940)" d="M201.598 1400.34 Q197.987 1400.34 196.158 1403.9 Q194.352 1407.44 194.352 1414.57 Q194.352 1421.68 196.158 1425.25 Q197.987 1428.79 201.598 1428.79 Q205.232 1428.79 207.037 1425.25 Q208.866 1421.68 208.866 1414.57 Q208.866 1407.44 207.037 1403.9 Q205.232 1400.34 201.598 1400.34 M201.598 1396.63 Q207.408 1396.63 210.463 1401.24 Q213.542 1405.82 213.542 1414.57 Q213.542 1423.3 210.463 1427.91 Q207.408 1432.49 201.598 1432.49 Q195.787 1432.49 192.709 1427.91 Q189.653 1423.3 189.653 1414.57 Q189.653 1405.82 192.709 1401.24 Q195.787 1396.63 201.598 1396.63 Z" fill="#000000" fill-rule="nonzero" fill-opacity="1" /><path clip-path="url(#clip940)" d="M127.2 1106.91 Q123.589 1106.91 121.76 1110.48 Q119.955 1114.02 119.955 1121.15 Q119.955 1128.26 121.76 1131.82 Q123.589 1135.36 127.2 1135.36 Q130.834 1135.36 132.64 1131.82 Q134.468 1128.26 134.468 1121.15 Q134.468 1114.02 132.64 1110.48 Q130.834 1106.91 127.2 1106.91 M127.2 1103.21 Q133.01 1103.21 136.066 1107.82 Q139.144 1112.4 139.144 1121.15 Q139.144 1129.88 136.066 1134.48 Q133.01 1139.07 127.2 1139.07 Q121.39 1139.07 118.311 1134.48 Q115.256 1129.88 115.256 1121.15 Q115.256 1112.4 118.311 1107.82 Q121.39 1103.21 127.2 1103.21 Z" fill="#000000" fill-rule="nonzero" fill-opacity="1" /><path clip-path="url(#clip940)" d="M147.362 1132.52 L152.246 1132.52 L152.246 1138.4 L147.362 1138.4 L147.362 1132.52 Z" fill="#000000" fill-rule="nonzero" fill-opacity="1" /><path clip-path="url(#clip940)" d="M166.459 1134.46 L182.778 1134.46 L182.778 1138.4 L160.834 1138.4 L160.834 1134.46 Q163.496 1131.71 168.079 1127.08 Q172.686 1122.42 173.866 1121.08 Q176.112 1118.56 176.991 1116.82 Q177.894 1115.06 177.894 1113.37 Q177.894 1110.62 175.95 1108.88 Q174.028 1107.15 170.927 1107.15 Q168.727 1107.15 166.274 1107.91 Q163.843 1108.67 161.065 1110.22 L161.065 1105.5 Q163.89 1104.37 166.343 1103.79 Q168.797 1103.21 170.834 1103.21 Q176.204 1103.21 179.399 1105.9 Q182.593 1108.58 182.593 1113.07 Q182.593 1115.2 181.783 1117.12 Q180.996 1119.02 178.889 1121.61 Q178.311 1122.28 175.209 1125.5 Q172.107 1128.7 166.459 1134.46 Z" fill="#000000" fill-rule="nonzero" fill-opacity="1" /><path clip-path="url(#clip940)" d="M192.639 1103.84 L210.996 1103.84 L210.996 1107.77 L196.922 1107.77 L196.922 1116.24 Q197.94 1115.9 198.959 1115.73 Q199.977 1115.55 200.996 1115.55 Q206.783 1115.55 210.162 1118.72 Q213.542 1121.89 213.542 1127.31 Q213.542 1132.89 210.07 1135.99 Q206.598 1139.07 200.278 1139.07 Q198.102 1139.07 195.834 1138.7 Q193.588 1138.33 191.181 1137.59 L191.181 1132.89 Q193.264 1134.02 195.487 1134.58 Q197.709 1135.13 200.186 1135.13 Q204.19 1135.13 206.528 1133.03 Q208.866 1130.92 208.866 1127.31 Q208.866 1123.7 206.528 1121.59 Q204.19 1119.48 200.186 1119.48 Q198.311 1119.48 196.436 1119.9 Q194.584 1120.32 192.639 1121.2 L192.639 1103.84 Z" fill="#000000" fill-rule="nonzero" fill-opacity="1" /><path clip-path="url(#clip940)" d="M126.205 813.49 Q122.593 813.49 120.765 817.054 Q118.959 820.596 118.959 827.726 Q118.959 834.832 120.765 838.397 Q122.593 841.938 126.205 841.938 Q129.839 841.938 131.644 838.397 Q133.473 834.832 133.473 827.726 Q133.473 820.596 131.644 817.054 Q129.839 813.49 126.205 813.49 M126.205 809.786 Q132.015 809.786 135.07 814.392 Q138.149 818.976 138.149 827.726 Q138.149 836.452 135.07 841.059 Q132.015 845.642 126.205 845.642 Q120.394 845.642 117.316 841.059 Q114.26 836.452 114.26 827.726 Q114.26 818.976 117.316 814.392 Q120.394 809.786 126.205 809.786 Z" fill="#000000" fill-rule="nonzero" fill-opacity="1" /><path clip-path="url(#clip940)" d="M146.366 839.091 L151.251 839.091 L151.251 844.971 L146.366 844.971 L146.366 839.091 Z" fill="#000000" fill-rule="nonzero" fill-opacity="1" /><path clip-path="url(#clip940)" d="M161.482 810.411 L179.839 810.411 L179.839 814.346 L165.765 814.346 L165.765 822.818 Q166.783 822.471 167.802 822.309 Q168.82 822.124 169.839 822.124 Q175.626 822.124 179.005 825.295 Q182.385 828.466 182.385 833.883 Q182.385 839.462 178.913 842.563 Q175.44 845.642 169.121 845.642 Q166.945 845.642 164.677 845.272 Q162.431 844.901 160.024 844.161 L160.024 839.462 Q162.107 840.596 164.329 841.151 Q166.552 841.707 169.028 841.707 Q173.033 841.707 175.371 839.601 Q177.709 837.494 177.709 833.883 Q177.709 830.272 175.371 828.165 Q173.033 826.059 169.028 826.059 Q167.153 826.059 165.278 826.476 Q163.427 826.892 161.482 827.772 L161.482 810.411 Z" fill="#000000" fill-rule="nonzero" fill-opacity="1" /><path clip-path="url(#clip940)" d="M201.598 813.49 Q197.987 813.49 196.158 817.054 Q194.352 820.596 194.352 827.726 Q194.352 834.832 196.158 838.397 Q197.987 841.938 201.598 841.938 Q205.232 841.938 207.037 838.397 Q208.866 834.832 208.866 827.726 Q208.866 820.596 207.037 817.054 Q205.232 813.49 201.598 813.49 M201.598 809.786 Q207.408 809.786 210.463 814.392 Q213.542 818.976 213.542 827.726 Q213.542 836.452 210.463 841.059 Q207.408 845.642 201.598 845.642 Q195.787 845.642 192.709 841.059 Q189.653 836.452 189.653 827.726 Q189.653 818.976 192.709 814.392 Q195.787 809.786 201.598 809.786 Z" fill="#000000" fill-rule="nonzero" fill-opacity="1" /><path clip-path="url(#clip940)" d="M127.2 520.065 Q123.589 520.065 121.76 523.63 Q119.955 527.172 119.955 534.301 Q119.955 541.408 121.76 544.972 Q123.589 548.514 127.2 548.514 Q130.834 548.514 132.64 544.972 Q134.468 541.408 134.468 534.301 Q134.468 527.172 132.64 523.63 Q130.834 520.065 127.2 520.065 M127.2 516.361 Q133.01 516.361 136.066 520.968 Q139.144 525.551 139.144 534.301 Q139.144 543.028 136.066 547.634 Q133.01 552.218 127.2 552.218 Q121.39 552.218 118.311 547.634 Q115.256 543.028 115.256 534.301 Q115.256 525.551 118.311 520.968 Q121.39 516.361 127.2 516.361 Z" fill="#000000" fill-rule="nonzero" fill-opacity="1" /><path clip-path="url(#clip940)" d="M147.362 545.667 L152.246 545.667 L152.246 551.546 L147.362 551.546 L147.362 545.667 Z" fill="#000000" fill-rule="nonzero" fill-opacity="1" /><path clip-path="url(#clip940)" d="M161.251 516.986 L183.473 516.986 L183.473 518.977 L170.927 551.546 L166.042 551.546 L177.848 520.922 L161.251 520.922 L161.251 516.986 Z" fill="#000000" fill-rule="nonzero" fill-opacity="1" /><path clip-path="url(#clip940)" d="M192.639 516.986 L210.996 516.986 L210.996 520.922 L196.922 520.922 L196.922 529.394 Q197.94 529.047 198.959 528.884 Q199.977 528.699 200.996 528.699 Q206.783 528.699 210.162 531.871 Q213.542 535.042 213.542 540.458 Q213.542 546.037 210.07 549.139 Q206.598 552.218 200.278 552.218 Q198.102 552.218 195.834 551.847 Q193.588 551.477 191.181 550.736 L191.181 546.037 Q193.264 547.171 195.487 547.727 Q197.709 548.283 200.186 548.283 Q204.19 548.283 206.528 546.176 Q208.866 544.07 208.866 540.458 Q208.866 536.847 206.528 534.741 Q204.19 532.634 200.186 532.634 Q198.311 532.634 196.436 533.051 Q194.584 533.468 192.639 534.347 L192.639 516.986 Z" fill="#000000" fill-rule="nonzero" fill-opacity="1" /><path clip-path="url(#clip940)" d="M117.015 254.187 L124.654 254.187 L124.654 227.821 L116.343 229.488 L116.343 225.229 L124.607 223.562 L129.283 223.562 L129.283 254.187 L136.922 254.187 L136.922 258.122 L117.015 258.122 L117.015 254.187 Z" fill="#000000" fill-rule="nonzero" fill-opacity="1" /><path clip-path="url(#clip940)" d="M146.366 252.242 L151.251 252.242 L151.251 258.122 L146.366 258.122 L146.366 252.242 Z" fill="#000000" fill-rule="nonzero" fill-opacity="1" /><path clip-path="url(#clip940)" d="M171.436 226.641 Q167.825 226.641 165.996 230.205 Q164.19 233.747 164.19 240.877 Q164.19 247.983 165.996 251.548 Q167.825 255.09 171.436 255.09 Q175.07 255.09 176.876 251.548 Q178.704 247.983 178.704 240.877 Q178.704 233.747 176.876 230.205 Q175.07 226.641 171.436 226.641 M171.436 222.937 Q177.246 222.937 180.301 227.543 Q183.38 232.127 183.38 240.877 Q183.38 249.603 180.301 254.21 Q177.246 258.793 171.436 258.793 Q165.626 258.793 162.547 254.21 Q159.491 249.603 159.491 240.877 Q159.491 232.127 162.547 227.543 Q165.626 222.937 171.436 222.937 Z" fill="#000000" fill-rule="nonzero" fill-opacity="1" /><path clip-path="url(#clip940)" d="M201.598 226.641 Q197.987 226.641 196.158 230.205 Q194.352 233.747 194.352 240.877 Q194.352 247.983 196.158 251.548 Q197.987 255.09 201.598 255.09 Q205.232 255.09 207.037 251.548 Q208.866 247.983 208.866 240.877 Q208.866 233.747 207.037 230.205 Q205.232 226.641 201.598 226.641 M201.598 222.937 Q207.408 222.937 210.463 227.543 Q213.542 232.127 213.542 240.877 Q213.542 249.603 210.463 254.21 Q207.408 258.793 201.598 258.793 Q195.787 258.793 192.709 254.21 Q189.653 249.603 189.653 240.877 Q189.653 232.127 192.709 227.543 Q195.787 222.937 201.598 222.937 Z" fill="#000000" fill-rule="nonzero" fill-opacity="1" /><path clip-path="url(#clip940)" d="M21.7677 1129.93 L39.6235 1129.93 L39.6235 1121.84 Q39.6235 1117.35 37.3 1114.9 Q34.9765 1112.45 30.6797 1112.45 Q26.4147 1112.45 24.0912 1114.9 Q21.7677 1117.35 21.7677 1121.84 L21.7677 1129.93 M16.4842 1136.35 L16.4842 1121.84 Q16.4842 1113.85 20.1126 1109.78 Q23.7092 1105.67 30.6797 1105.67 Q37.7138 1105.67 41.3104 1109.78 Q44.907 1113.85 44.907 1121.84 L44.907 1129.93 L64.0042 1129.93 L64.0042 1136.35 L16.4842 1136.35 Z" fill="#000000" fill-rule="nonzero" fill-opacity="1" /><path clip-path="url(#clip940)" d="M33.8307 1077.79 Q33.2578 1078.78 33.0032 1079.95 Q32.7167 1081.1 32.7167 1082.5 Q32.7167 1087.47 35.9632 1090.14 Q39.1779 1092.78 45.2253 1092.78 L64.0042 1092.78 L64.0042 1098.67 L28.3562 1098.67 L28.3562 1092.78 L33.8944 1092.78 Q30.6479 1090.94 29.0883 1087.98 Q27.4968 1085.02 27.4968 1080.78 Q27.4968 1080.18 27.5923 1079.45 Q27.656 1078.71 27.8151 1077.82 L33.8307 1077.79 Z" fill="#000000" fill-rule="nonzero" fill-opacity="1" /><path clip-path="url(#clip940)" d="M32.4621 1059.27 Q32.4621 1063.98 36.1542 1066.71 Q39.8145 1069.45 46.212 1069.45 Q52.6095 1069.45 56.3017 1066.75 Q59.9619 1064.01 59.9619 1059.27 Q59.9619 1054.59 56.2698 1051.85 Q52.5777 1049.11 46.212 1049.11 Q39.8781 1049.11 36.186 1051.85 Q32.4621 1054.59 32.4621 1059.27 M27.4968 1059.27 Q27.4968 1051.63 32.4621 1047.27 Q37.4273 1042.91 46.212 1042.91 Q54.9649 1042.91 59.9619 1047.27 Q64.9272 1051.63 64.9272 1059.27 Q64.9272 1066.94 59.9619 1071.3 Q54.9649 1075.63 46.212 1075.63 Q37.4273 1075.63 32.4621 1071.3 Q27.4968 1066.94 27.4968 1059.27 Z" fill="#000000" fill-rule="nonzero" fill-opacity="1" /><path clip-path="url(#clip940)" d="M58.657 1027.53 L77.5631 1027.53 L77.5631 1033.42 L28.3562 1033.42 L28.3562 1027.53 L33.7671 1027.53 Q30.5842 1025.69 29.0564 1022.89 Q27.4968 1020.05 27.4968 1016.14 Q27.4968 1009.65 32.6531 1005.6 Q37.8093 1001.53 46.212 1001.53 Q54.6147 1001.53 59.771 1005.6 Q64.9272 1009.65 64.9272 1016.14 Q64.9272 1020.05 63.3994 1022.89 Q61.8398 1025.69 58.657 1027.53 M46.212 1007.61 Q39.7508 1007.61 36.0905 1010.28 Q32.3984 1012.92 32.3984 1017.57 Q32.3984 1022.22 36.0905 1024.89 Q39.7508 1027.53 46.212 1027.53 Q52.6732 1027.53 56.3653 1024.89 Q60.0256 1022.22 60.0256 1017.57 Q60.0256 1012.92 56.3653 1010.28 Q52.6732 1007.61 46.212 1007.61 Z" fill="#000000" fill-rule="nonzero" fill-opacity="1" /><path clip-path="url(#clip940)" d="M32.4621 978.008 Q32.4621 982.719 36.1542 985.456 Q39.8145 988.193 46.212 988.193 Q52.6095 988.193 56.3017 985.488 Q59.9619 982.75 59.9619 978.008 Q59.9619 973.329 56.2698 970.592 Q52.5777 967.855 46.212 967.855 Q39.8781 967.855 36.186 970.592 Q32.4621 973.329 32.4621 978.008 M27.4968 978.008 Q27.4968 970.369 32.4621 966.009 Q37.4273 961.648 46.212 961.648 Q54.9649 961.648 59.9619 966.009 Q64.9272 970.369 64.9272 978.008 Q64.9272 985.679 59.9619 990.039 Q54.9649 994.368 46.212 994.368 Q37.4273 994.368 32.4621 990.039 Q27.4968 985.679 27.4968 978.008 Z" fill="#000000" fill-rule="nonzero" fill-opacity="1" /><path clip-path="url(#clip940)" d="M33.8307 931.284 Q33.2578 932.27 33.0032 933.448 Q32.7167 934.594 32.7167 935.994 Q32.7167 940.96 35.9632 943.633 Q39.1779 946.275 45.2253 946.275 L64.0042 946.275 L64.0042 952.163 L28.3562 952.163 L28.3562 946.275 L33.8944 946.275 Q30.6479 944.429 29.0883 941.469 Q27.4968 938.509 27.4968 934.276 Q27.4968 933.671 27.5923 932.939 Q27.656 932.207 27.8151 931.316 L33.8307 931.284 Z" fill="#000000" fill-rule="nonzero" fill-opacity="1" /><path clip-path="url(#clip940)" d="M18.2347 919.348 L28.3562 919.348 L28.3562 907.285 L32.9077 907.285 L32.9077 919.348 L52.2594 919.348 Q56.6199 919.348 57.8613 918.17 Q59.1026 916.961 59.1026 913.301 L59.1026 907.285 L64.0042 907.285 L64.0042 913.301 Q64.0042 920.08 61.4897 922.658 Q58.9434 925.236 52.2594 925.236 L32.9077 925.236 L32.9077 929.533 L28.3562 929.533 L28.3562 925.236 L18.2347 925.236 L18.2347 919.348 Z" fill="#000000" fill-rule="nonzero" fill-opacity="1" /><path clip-path="url(#clip940)" d="M28.3562 899.583 L28.3562 893.726 L64.0042 893.726 L64.0042 899.583 L28.3562 899.583 M14.479 899.583 L14.479 893.726 L21.895 893.726 L21.895 899.583 L14.479 899.583 Z" fill="#000000" fill-rule="nonzero" fill-opacity="1" /><path clip-path="url(#clip940)" d="M32.4621 867.659 Q32.4621 872.369 36.1542 875.106 Q39.8145 877.844 46.212 877.844 Q52.6095 877.844 56.3017 875.138 Q59.9619 872.401 59.9619 867.659 Q59.9619 862.98 56.2698 860.242 Q52.5777 857.505 46.212 857.505 Q39.8781 857.505 36.186 860.242 Q32.4621 862.98 32.4621 867.659 M27.4968 867.659 Q27.4968 860.02 32.4621 855.659 Q37.4273 851.299 46.212 851.299 Q54.9649 851.299 59.9619 855.659 Q64.9272 860.02 64.9272 867.659 Q64.9272 875.329 59.9619 879.69 Q54.9649 884.018 46.212 884.018 Q37.4273 884.018 32.4621 879.69 Q27.4968 875.329 27.4968 867.659 Z" fill="#000000" fill-rule="nonzero" fill-opacity="1" /><path clip-path="url(#clip940)" d="M42.4881 811.959 L64.0042 811.959 L64.0042 817.815 L42.679 817.815 Q37.6183 817.815 35.1038 819.788 Q32.5894 821.762 32.5894 825.709 Q32.5894 830.451 35.6131 833.188 Q38.6368 835.925 43.8567 835.925 L64.0042 835.925 L64.0042 841.814 L28.3562 841.814 L28.3562 835.925 L33.8944 835.925 Q30.6797 833.825 29.0883 830.992 Q27.4968 828.127 27.4968 824.404 Q27.4968 818.261 31.3163 815.11 Q35.1038 811.959 42.4881 811.959 Z" fill="#000000" fill-rule="nonzero" fill-opacity="1" /><path clip-path="url(#clip940)" d="M32.4621 765.744 Q32.4621 770.454 36.1542 773.191 Q39.8145 775.929 46.212 775.929 Q52.6095 775.929 56.3017 773.223 Q59.9619 770.486 59.9619 765.744 Q59.9619 761.065 56.2698 758.328 Q52.5777 755.59 46.212 755.59 Q39.8781 755.59 36.186 758.328 Q32.4621 761.065 32.4621 765.744 M27.4968 765.744 Q27.4968 758.105 32.4621 753.744 Q37.4273 749.384 46.212 749.384 Q54.9649 749.384 59.9619 753.744 Q64.9272 758.105 64.9272 765.744 Q64.9272 773.414 59.9619 777.775 Q54.9649 782.103 46.212 782.103 Q37.4273 782.103 32.4621 777.775 Q27.4968 773.414 27.4968 765.744 Z" fill="#000000" fill-rule="nonzero" fill-opacity="1" /><path clip-path="url(#clip940)" d="M14.479 721.629 L19.3487 721.629 L19.3487 727.231 Q19.3487 730.382 20.6219 731.623 Q21.895 732.833 25.2052 732.833 L28.3562 732.833 L28.3562 723.189 L32.9077 723.189 L32.9077 732.833 L64.0042 732.833 L64.0042 738.721 L32.9077 738.721 L32.9077 744.323 L28.3562 744.323 L28.3562 738.721 L25.8736 738.721 Q19.9216 738.721 17.2162 735.952 Q14.479 733.183 14.479 727.167 L14.479 721.629 Z" fill="#000000" fill-rule="nonzero" fill-opacity="1" /><path clip-path="url(#clip940)" d="M58.657 690.342 L77.5631 690.342 L77.5631 696.23 L28.3562 696.23 L28.3562 690.342 L33.7671 690.342 Q30.5842 688.496 29.0564 685.695 Q27.4968 682.862 27.4968 678.947 Q27.4968 672.454 32.6531 668.412 Q37.8093 664.338 46.212 664.338 Q54.6147 664.338 59.771 668.412 Q64.9272 672.454 64.9272 678.947 Q64.9272 682.862 63.3994 685.695 Q61.8398 688.496 58.657 690.342 M46.212 670.417 Q39.7508 670.417 36.0905 673.091 Q32.3984 675.732 32.3984 680.379 Q32.3984 685.026 36.0905 687.7 Q39.7508 690.342 46.212 690.342 Q52.6732 690.342 56.3653 687.7 Q60.0256 685.026 60.0256 680.379 Q60.0256 675.732 56.3653 673.091 Q52.6732 670.417 46.212 670.417 Z" fill="#000000" fill-rule="nonzero" fill-opacity="1" /><path clip-path="url(#clip940)" d="M33.8307 633.973 Q33.2578 634.96 33.0032 636.138 Q32.7167 637.284 32.7167 638.684 Q32.7167 643.649 35.9632 646.323 Q39.1779 648.965 45.2253 648.965 L64.0042 648.965 L64.0042 654.853 L28.3562 654.853 L28.3562 648.965 L33.8944 648.965 Q30.6479 647.119 29.0883 644.159 Q27.4968 641.199 27.4968 636.965 Q27.4968 636.361 27.5923 635.629 Q27.656 634.896 27.8151 634.005 L33.8307 633.973 Z" fill="#000000" fill-rule="nonzero" fill-opacity="1" /><path clip-path="url(#clip940)" d="M32.4621 615.449 Q32.4621 620.16 36.1542 622.897 Q39.8145 625.634 46.212 625.634 Q52.6095 625.634 56.3017 622.929 Q59.9619 620.192 59.9619 615.449 Q59.9619 610.77 56.2698 608.033 Q52.5777 605.296 46.212 605.296 Q39.8781 605.296 36.186 608.033 Q32.4621 610.77 32.4621 615.449 M27.4968 615.449 Q27.4968 607.81 32.4621 603.45 Q37.4273 599.089 46.212 599.089 Q54.9649 599.089 59.9619 603.45 Q64.9272 607.81 64.9272 615.449 Q64.9272 623.12 59.9619 627.48 Q54.9649 631.809 46.212 631.809 Q37.4273 631.809 32.4621 627.48 Q27.4968 623.12 27.4968 615.449 Z" fill="#000000" fill-rule="nonzero" fill-opacity="1" /><path clip-path="url(#clip940)" d="M46.212 563.792 Q39.7508 563.792 36.0905 566.465 Q32.3984 569.107 32.3984 573.754 Q32.3984 578.401 36.0905 581.074 Q39.7508 583.716 46.212 583.716 Q52.6732 583.716 56.3653 581.074 Q60.0256 578.401 60.0256 573.754 Q60.0256 569.107 56.3653 566.465 Q52.6732 563.792 46.212 563.792 M33.7671 583.716 Q30.5842 581.87 29.0564 579.069 Q27.4968 576.236 27.4968 572.322 Q27.4968 565.829 32.6531 561.786 Q37.8093 557.712 46.212 557.712 Q54.6147 557.712 59.771 561.786 Q64.9272 565.829 64.9272 572.322 Q64.9272 576.236 63.3994 579.069 Q61.8398 581.87 58.657 583.716 L64.0042 583.716 L64.0042 589.604 L14.479 589.604 L14.479 583.716 L33.7671 583.716 Z" fill="#000000" fill-rule="nonzero" fill-opacity="1" /><path clip-path="url(#clip940)" d="M14.479 548.005 L14.479 542.148 L64.0042 542.148 L64.0042 548.005 L14.479 548.005 Z" fill="#000000" fill-rule="nonzero" fill-opacity="1" /><path clip-path="url(#clip940)" d="M44.7161 499.402 L47.5806 499.402 L47.5806 526.329 Q53.6281 525.947 56.8109 522.701 Q59.9619 519.423 59.9619 513.598 Q59.9619 510.224 59.1344 507.073 Q58.3069 503.89 56.6518 500.771 L62.1899 500.771 Q63.5267 503.922 64.227 507.232 Q64.9272 510.542 64.9272 513.948 Q64.9272 522.478 59.9619 527.475 Q54.9967 532.44 46.5303 532.44 Q37.7774 532.44 32.6531 527.73 Q27.4968 522.987 27.4968 514.967 Q27.4968 507.773 32.1438 503.604 Q36.7589 499.402 44.7161 499.402 M42.9973 505.259 Q38.1912 505.323 35.3266 507.964 Q32.4621 510.574 32.4621 514.903 Q32.4621 519.804 35.2312 522.765 Q38.0002 525.693 43.0292 526.138 L42.9973 505.259 Z" fill="#000000" fill-rule="nonzero" fill-opacity="1" /><path clip-path="url(#clip940)" d="M35.1993 462.036 Q31.2526 459.84 29.3747 456.784 Q27.4968 453.728 27.4968 449.591 Q27.4968 444.021 31.4117 440.997 Q35.2948 437.973 42.4881 437.973 L64.0042 437.973 L64.0042 443.862 L42.679 443.862 Q37.5546 443.862 35.072 445.676 Q32.5894 447.49 32.5894 451.214 Q32.5894 455.765 35.6131 458.407 Q38.6368 461.049 43.8567 461.049 L64.0042 461.049 L64.0042 466.937 L42.679 466.937 Q37.5228 466.937 35.072 468.752 Q32.5894 470.566 32.5894 474.353 Q32.5894 478.841 35.6449 481.483 Q38.6686 484.125 43.8567 484.125 L64.0042 484.125 L64.0042 490.013 L28.3562 490.013 L28.3562 484.125 L33.8944 484.125 Q30.616 482.12 29.0564 479.319 Q27.4968 476.518 27.4968 472.666 Q27.4968 468.783 29.4702 466.078 Q31.4436 463.341 35.1993 462.036 Z" fill="#000000" fill-rule="nonzero" fill-opacity="1" /><path clip-path="url(#clip940)" d="M29.4065 403.567 L34.9447 403.567 Q33.6716 406.049 33.035 408.723 Q32.3984 411.396 32.3984 414.261 Q32.3984 418.622 33.7352 420.818 Q35.072 422.982 37.7456 422.982 Q39.7826 422.982 40.9603 421.422 Q42.1061 419.863 43.1565 415.152 L43.6021 413.147 Q44.9389 406.909 47.3897 404.299 Q49.8086 401.657 54.1691 401.657 Q59.1344 401.657 62.0308 405.604 Q64.9272 409.519 64.9272 416.394 Q64.9272 419.258 64.3543 422.377 Q63.8132 425.465 62.6992 428.902 L56.6518 428.902 Q58.3387 425.656 59.198 422.505 Q60.0256 419.354 60.0256 416.266 Q60.0256 412.129 58.6251 409.901 Q57.1929 407.673 54.6147 407.673 Q52.2276 407.673 50.9545 409.296 Q49.6813 410.887 48.5037 416.33 L48.0262 418.367 Q46.8804 423.81 44.5251 426.229 Q42.138 428.648 38.0002 428.648 Q32.9713 428.648 30.2341 425.083 Q27.4968 421.518 27.4968 414.961 Q27.4968 411.715 27.9743 408.85 Q28.4517 405.986 29.4065 403.567 Z" fill="#000000" fill-rule="nonzero" fill-opacity="1" /><path clip-path="url(#clip940)" d="M163.594 18.8205 L163.594 41.5461 L173.884 41.5461 Q179.595 41.5461 182.715 38.5889 Q185.834 35.6318 185.834 30.163 Q185.834 24.7348 182.715 21.7777 Q179.595 18.8205 173.884 18.8205 L163.594 18.8205 M155.411 12.096 L173.884 12.096 Q184.051 12.096 189.237 16.714 Q194.462 21.2916 194.462 30.163 Q194.462 39.1155 189.237 43.6931 Q184.051 48.2706 173.884 48.2706 L163.594 48.2706 L163.594 72.576 L155.411 72.576 L155.411 12.096 Z" fill="#000000" fill-rule="nonzero" fill-opacity="1" /><path clip-path="url(#clip940)" d="M240.967 48.0275 L240.967 51.6733 L206.696 51.6733 Q207.182 59.3701 211.314 63.421 Q215.486 67.4314 222.9 67.4314 Q227.193 67.4314 231.204 66.3781 Q235.255 65.3249 239.225 63.2184 L239.225 70.267 Q235.214 71.9684 231.001 72.8596 Q226.788 73.7508 222.454 73.7508 Q211.598 73.7508 205.238 67.4314 Q198.918 61.1119 198.918 50.3365 Q198.918 39.1965 204.914 32.6746 Q210.949 26.1121 221.158 26.1121 Q230.313 26.1121 235.619 32.0264 Q240.967 37.9003 240.967 48.0275 M233.513 45.84 Q233.432 39.7232 230.07 36.0774 Q226.748 32.4315 221.239 32.4315 Q215 32.4315 211.233 35.9558 Q207.506 39.4801 206.939 45.8805 L233.513 45.84 Z" fill="#000000" fill-rule="nonzero" fill-opacity="1" /><path clip-path="url(#clip940)" d="M279.491 34.1734 Q278.235 33.4443 276.736 33.1202 Q275.278 32.7556 273.495 32.7556 Q267.176 32.7556 263.773 36.8875 Q260.411 40.9789 260.411 48.6757 L260.411 72.576 L252.917 72.576 L252.917 27.2059 L260.411 27.2059 L260.411 34.2544 Q262.76 30.1225 266.528 28.1376 Q270.295 26.1121 275.683 26.1121 Q276.452 26.1121 277.384 26.2337 Q278.316 26.3147 279.45 26.5172 L279.491 34.1734 Z" fill="#000000" fill-rule="nonzero" fill-opacity="1" /><path clip-path="url(#clip940)" d="M310.278 9.54393 L310.278 15.7418 L303.148 15.7418 Q299.138 15.7418 297.558 17.3622 Q296.018 18.9825 296.018 23.1955 L296.018 27.2059 L308.293 27.2059 L308.293 32.9987 L296.018 32.9987 L296.018 72.576 L288.524 72.576 L288.524 32.9987 L281.395 32.9987 L281.395 27.2059 L288.524 27.2059 L288.524 24.0462 Q288.524 16.471 292.048 13.0277 Q295.573 9.54393 303.229 9.54393 L310.278 9.54393 Z" fill="#000000" fill-rule="nonzero" fill-opacity="1" /><path clip-path="url(#clip940)" d="M334.097 32.4315 Q328.102 32.4315 324.618 37.1306 Q321.134 41.7891 321.134 49.9314 Q321.134 58.0738 324.577 62.7728 Q328.061 67.4314 334.097 67.4314 Q340.052 67.4314 343.535 62.7323 Q347.019 58.0333 347.019 49.9314 Q347.019 41.8701 343.535 37.1711 Q340.052 32.4315 334.097 32.4315 M334.097 26.1121 Q343.819 26.1121 349.369 32.4315 Q354.919 38.7509 354.919 49.9314 Q354.919 61.0714 349.369 67.4314 Q343.819 73.7508 334.097 73.7508 Q324.334 73.7508 318.784 67.4314 Q313.275 61.0714 313.275 49.9314 Q313.275 38.7509 318.784 32.4315 Q324.334 26.1121 334.097 26.1121 Z" fill="#000000" fill-rule="nonzero" fill-opacity="1" /><path clip-path="url(#clip940)" d="M393.564 34.1734 Q392.308 33.4443 390.81 33.1202 Q389.351 32.7556 387.569 32.7556 Q381.249 32.7556 377.847 36.8875 Q374.484 40.9789 374.484 48.6757 L374.484 72.576 L366.99 72.576 L366.99 27.2059 L374.484 27.2059 L374.484 34.2544 Q376.834 30.1225 380.601 28.1376 Q384.369 26.1121 389.756 26.1121 Q390.526 26.1121 391.458 26.2337 Q392.389 26.3147 393.524 26.5172 L393.564 34.1734 Z" fill="#000000" fill-rule="nonzero" fill-opacity="1" /><path clip-path="url(#clip940)" d="M435.248 35.9153 Q438.043 30.8922 441.932 28.5022 Q445.821 26.1121 451.087 26.1121 Q458.176 26.1121 462.024 31.0947 Q465.873 36.0368 465.873 45.1919 L465.873 72.576 L458.379 72.576 L458.379 45.4349 Q458.379 38.913 456.07 35.7533 Q453.761 32.5936 449.021 32.5936 Q443.228 32.5936 439.866 36.4419 Q436.504 40.2903 436.504 46.9338 L436.504 72.576 L429.01 72.576 L429.01 45.4349 Q429.01 38.8725 426.701 35.7533 Q424.392 32.5936 419.571 32.5936 Q413.859 32.5936 410.497 36.4824 Q407.135 40.3308 407.135 46.9338 L407.135 72.576 L399.64 72.576 L399.64 27.2059 L407.135 27.2059 L407.135 34.2544 Q409.687 30.082 413.252 28.0971 Q416.816 26.1121 421.718 26.1121 Q426.66 26.1121 430.103 28.6237 Q433.587 31.1352 435.248 35.9153 Z" fill="#000000" fill-rule="nonzero" fill-opacity="1" /><path clip-path="url(#clip940)" d="M501.359 49.7694 Q492.325 49.7694 488.841 51.8354 Q485.358 53.9013 485.358 58.8839 Q485.358 62.8538 487.95 65.2034 Q490.583 67.5124 495.08 67.5124 Q501.278 67.5124 505.005 63.1374 Q508.772 58.7219 508.772 51.4303 L508.772 49.7694 L501.359 49.7694 M516.226 46.6907 L516.226 72.576 L508.772 72.576 L508.772 65.6895 Q506.22 69.8214 502.412 71.8063 Q498.604 73.7508 493.095 73.7508 Q486.127 73.7508 481.995 69.8619 Q477.904 65.9325 477.904 59.3701 Q477.904 51.7138 483.008 47.825 Q488.153 43.9361 498.321 43.9361 L508.772 43.9361 L508.772 43.2069 Q508.772 38.0623 505.369 35.2672 Q502.007 32.4315 495.89 32.4315 Q492.001 32.4315 488.315 33.3632 Q484.628 34.295 481.226 36.1584 L481.226 29.2718 Q485.317 27.692 489.165 26.9223 Q493.014 26.1121 496.66 26.1121 Q506.503 26.1121 511.364 31.2163 Q516.226 36.3204 516.226 46.6907 Z" fill="#000000" fill-rule="nonzero" fill-opacity="1" /><path clip-path="url(#clip940)" d="M569.292 45.1919 L569.292 72.576 L561.839 72.576 L561.839 45.4349 Q561.839 38.994 559.327 35.7938 Q556.816 32.5936 551.792 32.5936 Q545.757 32.5936 542.273 36.4419 Q538.789 40.2903 538.789 46.9338 L538.789 72.576 L531.295 72.576 L531.295 27.2059 L538.789 27.2059 L538.789 34.2544 Q541.463 30.163 545.068 28.1376 Q548.714 26.1121 553.453 26.1121 Q561.272 26.1121 565.282 30.9732 Q569.292 35.7938 569.292 45.1919 Z" fill="#000000" fill-rule="nonzero" fill-opacity="1" /><path clip-path="url(#clip940)" d="M616.809 28.9478 L616.809 35.9153 Q613.65 34.1734 610.45 33.3227 Q607.29 32.4315 604.049 32.4315 Q596.798 32.4315 592.788 37.0496 Q588.777 41.6271 588.777 49.9314 Q588.777 58.2358 592.788 62.8538 Q596.798 67.4314 604.049 67.4314 Q607.29 67.4314 610.45 66.5807 Q613.65 65.6895 616.809 63.9476 L616.809 70.8341 Q613.69 72.2924 610.328 73.0216 Q607.006 73.7508 603.239 73.7508 Q592.99 73.7508 586.954 67.3098 Q580.918 60.8689 580.918 49.9314 Q580.918 38.832 586.995 32.472 Q593.112 26.1121 603.725 26.1121 Q607.168 26.1121 610.45 26.8413 Q613.731 27.5299 616.809 28.9478 Z" fill="#000000" fill-rule="nonzero" fill-opacity="1" /><path clip-path="url(#clip940)" d="M668.58 48.0275 L668.58 51.6733 L634.309 51.6733 Q634.795 59.3701 638.927 63.421 Q643.1 67.4314 650.513 67.4314 Q654.807 67.4314 658.817 66.3781 Q662.868 65.3249 666.838 63.2184 L666.838 70.267 Q662.828 71.9684 658.615 72.8596 Q654.402 73.7508 650.067 73.7508 Q639.211 73.7508 632.851 67.4314 Q626.532 61.1119 626.532 50.3365 Q626.532 39.1965 632.527 32.6746 Q638.563 26.1121 648.771 26.1121 Q657.926 26.1121 663.233 32.0264 Q668.58 37.9003 668.58 48.0275 M661.126 45.84 Q661.045 39.7232 657.683 36.0774 Q654.361 32.4315 648.852 32.4315 Q642.614 32.4315 638.846 35.9558 Q635.12 39.4801 634.552 45.8805 L661.126 45.84 Z" fill="#000000" fill-rule="nonzero" fill-opacity="1" /><path clip-path="url(#clip940)" d="M714.396 65.7705 L714.396 89.8329 L706.902 89.8329 L706.902 27.2059 L714.396 27.2059 L714.396 34.0924 Q716.745 30.0415 720.31 28.0971 Q723.915 26.1121 728.898 26.1121 Q737.162 26.1121 742.306 32.6746 Q747.492 39.2371 747.492 49.9314 Q747.492 60.6258 742.306 67.1883 Q737.162 73.7508 728.898 73.7508 Q723.915 73.7508 720.31 71.8063 Q716.745 69.8214 714.396 65.7705 M739.754 49.9314 Q739.754 41.7081 736.352 37.0496 Q732.989 32.3505 727.075 32.3505 Q721.161 32.3505 717.758 37.0496 Q714.396 41.7081 714.396 49.9314 Q714.396 58.1548 717.758 62.8538 Q721.161 67.5124 727.075 67.5124 Q732.989 67.5124 736.352 62.8538 Q739.754 58.1548 739.754 49.9314 Z" fill="#000000" fill-rule="nonzero" fill-opacity="1" /><path clip-path="url(#clip940)" d="M786.137 34.1734 Q784.881 33.4443 783.383 33.1202 Q781.924 32.7556 780.142 32.7556 Q773.823 32.7556 770.42 36.8875 Q767.058 40.9789 767.058 48.6757 L767.058 72.576 L759.563 72.576 L759.563 27.2059 L767.058 27.2059 L767.058 34.2544 Q769.407 30.1225 773.174 28.1376 Q776.942 26.1121 782.329 26.1121 Q783.099 26.1121 784.031 26.2337 Q784.962 26.3147 786.097 26.5172 L786.137 34.1734 Z" fill="#000000" fill-rule="nonzero" fill-opacity="1" /><path clip-path="url(#clip940)" d="M809.714 32.4315 Q803.718 32.4315 800.234 37.1306 Q796.751 41.7891 796.751 49.9314 Q796.751 58.0738 800.194 62.7728 Q803.678 67.4314 809.714 67.4314 Q815.668 67.4314 819.152 62.7323 Q822.636 58.0333 822.636 49.9314 Q822.636 41.8701 819.152 37.1711 Q815.668 32.4315 809.714 32.4315 M809.714 26.1121 Q819.436 26.1121 824.985 32.4315 Q830.535 38.7509 830.535 49.9314 Q830.535 61.0714 824.985 67.4314 Q819.436 73.7508 809.714 73.7508 Q799.951 73.7508 794.401 67.4314 Q788.892 61.0714 788.892 49.9314 Q788.892 38.7509 794.401 32.4315 Q799.951 26.1121 809.714 26.1121 Z" fill="#000000" fill-rule="nonzero" fill-opacity="1" /><path clip-path="url(#clip940)" d="M865.859 9.54393 L865.859 15.7418 L858.729 15.7418 Q854.719 15.7418 853.139 17.3622 Q851.6 18.9825 851.6 23.1955 L851.6 27.2059 L863.874 27.2059 L863.874 32.9987 L851.6 32.9987 L851.6 72.576 L844.106 72.576 L844.106 32.9987 L836.976 32.9987 L836.976 27.2059 L844.106 27.2059 L844.106 24.0462 Q844.106 16.471 847.63 13.0277 Q851.154 9.54393 858.81 9.54393 L865.859 9.54393 Z" fill="#000000" fill-rule="nonzero" fill-opacity="1" /><path clip-path="url(#clip940)" d="M872.097 27.2059 L879.551 27.2059 L879.551 72.576 L872.097 72.576 L872.097 27.2059 M872.097 9.54393 L879.551 9.54393 L879.551 18.9825 L872.097 18.9825 L872.097 9.54393 Z" fill="#000000" fill-rule="nonzero" fill-opacity="1" /><path clip-path="url(#clip940)" d="M895.147 9.54393 L902.601 9.54393 L902.601 72.576 L895.147 72.576 L895.147 9.54393 Z" fill="#000000" fill-rule="nonzero" fill-opacity="1" /><path clip-path="url(#clip940)" d="M957.004 48.0275 L957.004 51.6733 L922.734 51.6733 Q923.22 59.3701 927.352 63.421 Q931.524 67.4314 938.937 67.4314 Q943.231 67.4314 947.242 66.3781 Q951.293 65.3249 955.263 63.2184 L955.263 70.267 Q951.252 71.9684 947.039 72.8596 Q942.826 73.7508 938.492 73.7508 Q927.635 73.7508 921.275 67.4314 Q914.956 61.1119 914.956 50.3365 Q914.956 39.1965 920.951 32.6746 Q926.987 26.1121 937.195 26.1121 Q946.351 26.1121 951.657 32.0264 Q957.004 37.9003 957.004 48.0275 M949.551 45.84 Q949.47 39.7232 946.107 36.0774 Q942.786 32.4315 937.276 32.4315 Q931.038 32.4315 927.271 35.9558 Q923.544 39.4801 922.977 45.8805 L949.551 45.84 Z" fill="#000000" fill-rule="nonzero" fill-opacity="1" /><path clip-path="url(#clip940)" d="M1013.19 32.4315 Q1007.2 32.4315 1003.71 37.1306 Q1000.23 41.7891 1000.23 49.9314 Q1000.23 58.0738 1003.67 62.7728 Q1007.15 67.4314 1013.19 67.4314 Q1019.15 67.4314 1022.63 62.7323 Q1026.11 58.0333 1026.11 49.9314 Q1026.11 41.8701 1022.63 37.1711 Q1019.15 32.4315 1013.19 32.4315 M1013.19 26.1121 Q1022.91 26.1121 1028.46 32.4315 Q1034.01 38.7509 1034.01 49.9314 Q1034.01 61.0714 1028.46 67.4314 Q1022.91 73.7508 1013.19 73.7508 Q1003.43 73.7508 997.878 67.4314 Q992.369 61.0714 992.369 49.9314 Q992.369 38.7509 997.878 32.4315 Q1003.43 26.1121 1013.19 26.1121 Z" fill="#000000" fill-rule="nonzero" fill-opacity="1" /><path clip-path="url(#clip940)" d="M1084.08 45.1919 L1084.08 72.576 L1076.63 72.576 L1076.63 45.4349 Q1076.63 38.994 1074.12 35.7938 Q1071.6 32.5936 1066.58 32.5936 Q1060.55 32.5936 1057.06 36.4419 Q1053.58 40.2903 1053.58 46.9338 L1053.58 72.576 L1046.08 72.576 L1046.08 27.2059 L1053.58 27.2059 L1053.58 34.2544 Q1056.25 30.163 1059.86 28.1376 Q1063.5 26.1121 1068.24 26.1121 Q1076.06 26.1121 1080.07 30.9732 Q1084.08 35.7938 1084.08 45.1919 Z" fill="#000000" fill-rule="nonzero" fill-opacity="1" /><path clip-path="url(#clip940)" d="M1170.93 16.7545 L1170.93 25.383 Q1166.8 21.5346 1162.1 19.6307 Q1157.44 17.7268 1152.18 17.7268 Q1141.81 17.7268 1136.3 24.0867 Q1130.79 30.4061 1130.79 42.3968 Q1130.79 54.3469 1136.3 60.7069 Q1141.81 67.0263 1152.18 67.0263 Q1157.44 67.0263 1162.1 65.1223 Q1166.8 63.2184 1170.93 59.3701 L1170.93 67.9175 Q1166.64 70.8341 1161.82 72.2924 Q1157.04 73.7508 1151.69 73.7508 Q1137.96 73.7508 1130.06 65.3654 Q1122.16 56.9395 1122.16 42.3968 Q1122.16 27.8135 1130.06 19.4281 Q1137.96 11.0023 1151.69 11.0023 Q1157.12 11.0023 1161.9 12.4606 Q1166.72 13.8784 1170.93 16.7545 Z" fill="#000000" fill-rule="nonzero" fill-opacity="1" /><path clip-path="url(#clip940)" d="M1182.64 12.096 L1190.86 12.096 L1190.86 48.8377 Q1190.86 58.5599 1194.39 62.8538 Q1197.91 67.1073 1205.81 67.1073 Q1213.67 67.1073 1217.19 62.8538 Q1220.72 58.5599 1220.72 48.8377 L1220.72 12.096 L1228.94 12.096 L1228.94 49.8504 Q1228.94 61.6791 1223.07 67.7149 Q1217.23 73.7508 1205.81 73.7508 Q1194.35 73.7508 1188.47 67.7149 Q1182.64 61.6791 1182.64 49.8504 L1182.64 12.096 Z" fill="#000000" fill-rule="nonzero" fill-opacity="1" /><path clip-path="url(#clip940)" d="M1235.91 12.096 L1287.07 12.096 L1287.07 18.9825 L1265.6 18.9825 L1265.6 72.576 L1257.38 72.576 L1257.38 18.9825 L1235.91 18.9825 L1235.91 12.096 Z" fill="#000000" fill-rule="nonzero" fill-opacity="1" /><path clip-path="url(#clip940)" d="M1294.97 12.096 L1333.21 12.096 L1333.21 18.9825 L1303.15 18.9825 L1303.15 36.8875 L1331.96 36.8875 L1331.96 43.7741 L1303.15 43.7741 L1303.15 65.6895 L1333.94 65.6895 L1333.94 72.576 L1294.97 72.576 L1294.97 12.096 Z" fill="#000000" fill-rule="nonzero" fill-opacity="1" /><path clip-path="url(#clip940)" d="M1375.99 28.5427 L1375.99 35.5912 Q1372.83 33.9709 1369.43 33.1607 Q1366.02 32.3505 1362.38 32.3505 Q1356.83 32.3505 1354.03 34.0519 Q1351.28 35.7533 1351.28 39.156 Q1351.28 41.7486 1353.26 43.2475 Q1355.25 44.7058 1361.24 46.0426 L1363.8 46.6097 Q1371.74 48.3111 1375.06 51.4303 Q1378.42 54.509 1378.42 60.0587 Q1378.42 66.3781 1373.4 70.0644 Q1368.41 73.7508 1359.66 73.7508 Q1356.02 73.7508 1352.05 73.0216 Q1348.12 72.3329 1343.74 70.9151 L1343.74 63.2184 Q1347.88 65.3654 1351.89 66.4591 Q1355.9 67.5124 1359.83 67.5124 Q1365.09 67.5124 1367.93 65.73 Q1370.76 63.9071 1370.76 60.6258 Q1370.76 57.5877 1368.7 55.9673 Q1366.67 54.3469 1359.75 52.8481 L1357.15 52.2405 Q1350.23 50.7821 1347.15 47.7845 Q1344.07 44.7463 1344.07 39.4801 Q1344.07 33.0797 1348.61 29.5959 Q1353.14 26.1121 1361.49 26.1121 Q1365.62 26.1121 1369.26 26.7198 Q1372.91 27.3274 1375.99 28.5427 Z" fill="#000000" fill-rule="nonzero" fill-opacity="1" /><path clip-path="url(#clip940)" d="M1397.66 14.324 L1397.66 27.2059 L1413.01 27.2059 L1413.01 32.9987 L1397.66 32.9987 L1397.66 57.6282 Q1397.66 63.1779 1399.16 64.7578 Q1400.7 66.3376 1405.36 66.3376 L1413.01 66.3376 L1413.01 72.576 L1405.36 72.576 Q1396.73 72.576 1393.45 69.3758 Q1390.17 66.1351 1390.17 57.6282 L1390.17 32.9987 L1384.7 32.9987 L1384.7 27.2059 L1390.17 27.2059 L1390.17 14.324 L1397.66 14.324 Z" fill="#000000" fill-rule="nonzero" fill-opacity="1" /><path clip-path="url(#clip940)" d="M1444.85 27.2059 L1452.31 27.2059 L1461.63 62.6108 L1470.9 27.2059 L1479.69 27.2059 L1489.01 62.6108 L1498.29 27.2059 L1505.74 27.2059 L1493.87 72.576 L1485.08 72.576 L1475.32 35.3887 L1465.51 72.576 L1456.72 72.576 L1444.85 27.2059 Z" fill="#000000" fill-rule="nonzero" fill-opacity="1" /><path clip-path="url(#clip940)" d="M1510.48 62.2867 L1519.03 62.2867 L1519.03 72.576 L1510.48 72.576 L1510.48 62.2867 Z" fill="#000000" fill-rule="nonzero" fill-opacity="1" /><path clip-path="url(#clip940)" d="M1562.09 34.1734 Q1560.83 33.4443 1559.33 33.1202 Q1557.88 32.7556 1556.09 32.7556 Q1549.77 32.7556 1546.37 36.8875 Q1543.01 40.9789 1543.01 48.6757 L1543.01 72.576 L1535.51 72.576 L1535.51 27.2059 L1543.01 27.2059 L1543.01 34.2544 Q1545.36 30.1225 1549.13 28.1376 Q1552.89 26.1121 1558.28 26.1121 Q1559.05 26.1121 1559.98 26.2337 Q1560.91 26.3147 1562.05 26.5172 L1562.09 34.1734 Z" fill="#000000" fill-rule="nonzero" fill-opacity="1" /><path clip-path="url(#clip940)" d="M1563.34 62.2867 L1571.89 62.2867 L1571.89 72.576 L1563.34 72.576 L1563.34 62.2867 Z" fill="#000000" fill-rule="nonzero" fill-opacity="1" /><path clip-path="url(#clip940)" d="M1596.03 14.324 L1596.03 27.2059 L1611.39 27.2059 L1611.39 32.9987 L1596.03 32.9987 L1596.03 57.6282 Q1596.03 63.1779 1597.53 64.7578 Q1599.07 66.3376 1603.73 66.3376 L1611.39 66.3376 L1611.39 72.576 L1603.73 72.576 Q1595.1 72.576 1591.82 69.3758 Q1588.54 66.1351 1588.54 57.6282 L1588.54 32.9987 L1583.07 32.9987 L1583.07 27.2059 L1588.54 27.2059 L1588.54 14.324 L1596.03 14.324 Z" fill="#000000" fill-rule="nonzero" fill-opacity="1" /><path clip-path="url(#clip940)" d="M1622.24 62.2867 L1630.79 62.2867 L1630.79 72.576 L1622.24 72.576 L1622.24 62.2867 Z" fill="#000000" fill-rule="nonzero" fill-opacity="1" /><path clip-path="url(#clip940)" d="M1711.65 45.1919 L1711.65 72.576 L1704.19 72.576 L1704.19 45.4349 Q1704.19 38.994 1701.68 35.7938 Q1699.17 32.5936 1694.15 32.5936 Q1688.11 32.5936 1684.63 36.4419 Q1681.14 40.2903 1681.14 46.9338 L1681.14 72.576 L1673.65 72.576 L1673.65 27.2059 L1681.14 27.2059 L1681.14 34.2544 Q1683.82 30.163 1687.42 28.1376 Q1691.07 26.1121 1695.81 26.1121 Q1703.63 26.1121 1707.64 30.9732 Q1711.65 35.7938 1711.65 45.1919 Z" fill="#000000" fill-rule="nonzero" fill-opacity="1" /><path clip-path="url(#clip940)" d="M1725.74 54.671 L1725.74 27.2059 L1733.2 27.2059 L1733.2 54.3874 Q1733.2 60.8284 1735.71 64.0691 Q1738.22 67.2693 1743.24 67.2693 Q1749.28 67.2693 1752.76 63.421 Q1756.29 59.5726 1756.29 52.9291 L1756.29 27.2059 L1763.74 27.2059 L1763.74 72.576 L1756.29 72.576 L1756.29 65.6084 Q1753.57 69.7404 1749.97 71.7658 Q1746.4 73.7508 1741.66 73.7508 Q1733.85 73.7508 1729.8 68.8897 Q1725.74 64.0286 1725.74 54.671 M1744.5 26.1121 L1744.5 26.1121 Z" fill="#000000" fill-rule="nonzero" fill-opacity="1" /><path clip-path="url(#clip940)" d="M1814.42 35.9153 Q1817.21 30.8922 1821.1 28.5022 Q1824.99 26.1121 1830.26 26.1121 Q1837.35 26.1121 1841.2 31.0947 Q1845.04 36.0368 1845.04 45.1919 L1845.04 72.576 L1837.55 72.576 L1837.55 45.4349 Q1837.55 38.913 1835.24 35.7533 Q1832.93 32.5936 1828.19 32.5936 Q1822.4 32.5936 1819.04 36.4419 Q1815.67 40.2903 1815.67 46.9338 L1815.67 72.576 L1808.18 72.576 L1808.18 45.4349 Q1808.18 38.8725 1805.87 35.7533 Q1803.56 32.5936 1798.74 32.5936 Q1793.03 32.5936 1789.67 36.4824 Q1786.31 40.3308 1786.31 46.9338 L1786.31 72.576 L1778.81 72.576 L1778.81 27.2059 L1786.31 27.2059 L1786.31 34.2544 Q1788.86 30.082 1792.42 28.0971 Q1795.99 26.1121 1800.89 26.1121 Q1805.83 26.1121 1809.27 28.6237 Q1812.76 31.1352 1814.42 35.9153 Z" fill="#000000" fill-rule="nonzero" fill-opacity="1" /><path clip-path="url(#clip940)" d="M1892.48 49.9314 Q1892.48 41.7081 1889.08 37.0496 Q1885.71 32.3505 1879.8 32.3505 Q1873.89 32.3505 1870.48 37.0496 Q1867.12 41.7081 1867.12 49.9314 Q1867.12 58.1548 1870.48 62.8538 Q1873.89 67.5124 1879.8 67.5124 Q1885.71 67.5124 1889.08 62.8538 Q1892.48 58.1548 1892.48 49.9314 M1867.12 34.0924 Q1869.47 30.0415 1873.04 28.0971 Q1876.64 26.1121 1881.62 26.1121 Q1889.89 26.1121 1895.03 32.6746 Q1900.22 39.2371 1900.22 49.9314 Q1900.22 60.6258 1895.03 67.1883 Q1889.89 73.7508 1881.62 73.7508 Q1876.64 73.7508 1873.04 71.8063 Q1869.47 69.8214 1867.12 65.7705 L1867.12 72.576 L1859.63 72.576 L1859.63 9.54393 L1867.12 9.54393 L1867.12 34.0924 Z" fill="#000000" fill-rule="nonzero" fill-opacity="1" /><path clip-path="url(#clip940)" d="M1951.38 48.0275 L1951.38 51.6733 L1917.11 51.6733 Q1917.6 59.3701 1921.73 63.421 Q1925.9 67.4314 1933.31 67.4314 Q1937.61 67.4314 1941.62 66.3781 Q1945.67 65.3249 1949.64 63.2184 L1949.64 70.267 Q1945.63 71.9684 1941.41 72.8596 Q1937.2 73.7508 1932.87 73.7508 Q1922.01 73.7508 1915.65 67.4314 Q1909.33 61.1119 1909.33 50.3365 Q1909.33 39.1965 1915.33 32.6746 Q1921.36 26.1121 1931.57 26.1121 Q1940.73 26.1121 1946.03 32.0264 Q1951.38 37.9003 1951.38 48.0275 M1943.93 45.84 Q1943.85 39.7232 1940.48 36.0774 Q1937.16 32.4315 1931.65 32.4315 Q1925.41 32.4315 1921.65 35.9558 Q1917.92 39.4801 1917.35 45.8805 L1943.93 45.84 Z" fill="#000000" fill-rule="nonzero" fill-opacity="1" /><path clip-path="url(#clip940)" d="M1989.9 34.1734 Q1988.65 33.4443 1987.15 33.1202 Q1985.69 32.7556 1983.91 32.7556 Q1977.59 32.7556 1974.19 36.8875 Q1970.82 40.9789 1970.82 48.6757 L1970.82 72.576 L1963.33 72.576 L1963.33 27.2059 L1970.82 27.2059 L1970.82 34.2544 Q1973.17 30.1225 1976.94 28.1376 Q1980.71 26.1121 1986.1 26.1121 Q1986.87 26.1121 1987.8 26.2337 Q1988.73 26.3147 1989.86 26.5172 L1989.9 34.1734 Z" fill="#000000" fill-rule="nonzero" fill-opacity="1" /><path clip-path="url(#clip940)" d="M2041.67 32.4315 Q2035.68 32.4315 2032.2 37.1306 Q2028.71 41.7891 2028.71 49.9314 Q2028.71 58.0738 2032.15 62.7728 Q2035.64 67.4314 2041.67 67.4314 Q2047.63 67.4314 2051.11 62.7323 Q2054.6 58.0333 2054.6 49.9314 Q2054.6 41.8701 2051.11 37.1711 Q2047.63 32.4315 2041.67 32.4315 M2041.67 26.1121 Q2051.4 26.1121 2056.95 32.4315 Q2062.5 38.7509 2062.5 49.9314 Q2062.5 61.0714 2056.95 67.4314 Q2051.4 73.7508 2041.67 73.7508 Q2031.91 73.7508 2026.36 67.4314 Q2020.85 61.0714 2020.85 49.9314 Q2020.85 38.7509 2026.36 32.4315 Q2031.91 26.1121 2041.67 26.1121 Z" fill="#000000" fill-rule="nonzero" fill-opacity="1" /><path clip-path="url(#clip940)" d="M2097.82 9.54393 L2097.82 15.7418 L2090.69 15.7418 Q2086.68 15.7418 2085.1 17.3622 Q2083.56 18.9825 2083.56 23.1955 L2083.56 27.2059 L2095.84 27.2059 L2095.84 32.9987 L2083.56 32.9987 L2083.56 72.576 L2076.07 72.576 L2076.07 32.9987 L2068.94 32.9987 L2068.94 27.2059 L2076.07 27.2059 L2076.07 24.0462 Q2076.07 16.471 2079.59 13.0277 Q2083.12 9.54393 2090.77 9.54393 L2097.82 9.54393 Z" fill="#000000" fill-rule="nonzero" fill-opacity="1" /><path clip-path="url(#clip940)" d="M2150.32 64.0286 L2167.25 20.1168 L2133.39 20.1168 L2150.32 64.0286 M2145.82 72.576 L2122.37 12.9062 L2178.35 12.9062 L2154.9 72.576 L2145.82 72.576 Z" fill="#000000" fill-rule="nonzero" fill-opacity="1" /><path clip-path="url(#clip940)" d="M2208.9 9.54393 L2208.9 15.7418 L2201.77 15.7418 Q2197.76 15.7418 2196.18 17.3622 Q2194.64 18.9825 2194.64 23.1955 L2194.64 27.2059 L2206.91 27.2059 L2206.91 32.9987 L2194.64 32.9987 L2194.64 72.576 L2187.14 72.576 L2187.14 32.9987 L2180.01 32.9987 L2180.01 27.2059 L2187.14 27.2059 L2187.14 24.0462 Q2187.14 16.471 2190.67 13.0277 Q2194.19 9.54393 2201.85 9.54393 L2208.9 9.54393 Z" fill="#000000" fill-rule="nonzero" fill-opacity="1" /><path clip-path="url(#clip940)" d="M2280.31 48.0275 L2280.31 51.6733 L2246.04 51.6733 Q2246.53 59.3701 2250.66 63.421 Q2254.83 67.4314 2262.25 67.4314 Q2266.54 67.4314 2270.55 66.3781 Q2274.6 65.3249 2278.57 63.2184 L2278.57 70.267 Q2274.56 71.9684 2270.35 72.8596 Q2266.14 73.7508 2261.8 73.7508 Q2250.94 73.7508 2244.58 67.4314 Q2238.26 61.1119 2238.26 50.3365 Q2238.26 39.1965 2244.26 32.6746 Q2250.3 26.1121 2260.5 26.1121 Q2269.66 26.1121 2274.97 32.0264 Q2280.31 37.9003 2280.31 48.0275 M2272.86 45.84 Q2272.78 39.7232 2269.42 36.0774 Q2266.09 32.4315 2260.59 32.4315 Q2254.35 32.4315 2250.58 35.9558 Q2246.85 39.4801 2246.29 45.8805 L2272.86 45.84 Z" fill="#000000" fill-rule="nonzero" fill-opacity="1" /><path clip-path="url(#clip940)" d="M2287.2 27.2059 L2295.1 27.2059 L2309.28 65.2844 L2323.46 27.2059 L2331.35 27.2059 L2314.34 72.576 L2304.21 72.576 L2287.2 27.2059 Z" fill="#000000" fill-rule="nonzero" fill-opacity="1" /><path clip-path="url(#clip940)" d="M2362.26 49.7694 Q2353.23 49.7694 2349.75 51.8354 Q2346.26 53.9013 2346.26 58.8839 Q2346.26 62.8538 2348.85 65.2034 Q2351.49 67.5124 2355.98 67.5124 Q2362.18 67.5124 2365.91 63.1374 Q2369.68 58.7219 2369.68 51.4303 L2369.68 49.7694 L2362.26 49.7694 M2377.13 46.6907 L2377.13 72.576 L2369.68 72.576 L2369.68 65.6895 Q2367.12 69.8214 2363.32 71.8063 Q2359.51 73.7508 2354 73.7508 Q2347.03 73.7508 2342.9 69.8619 Q2338.81 65.9325 2338.81 59.3701 Q2338.81 51.7138 2343.91 47.825 Q2349.06 43.9361 2359.22 43.9361 L2369.68 43.9361 L2369.68 43.2069 Q2369.68 38.0623 2366.27 35.2672 Q2362.91 32.4315 2356.79 32.4315 Q2352.91 32.4315 2349.22 33.3632 Q2345.53 34.295 2342.13 36.1584 L2342.13 29.2718 Q2346.22 27.692 2350.07 26.9223 Q2353.92 26.1121 2357.56 26.1121 Q2367.41 26.1121 2372.27 31.2163 Q2377.13 36.3204 2377.13 46.6907 Z" fill="#000000" fill-rule="nonzero" fill-opacity="1" /><path clip-path="url(#clip940)" d="M2392.48 9.54393 L2399.94 9.54393 L2399.94 72.576 L2392.48 72.576 L2392.48 9.54393 Z" fill="#000000" fill-rule="nonzero" fill-opacity="1" /><path clip-path="url(#clip940)" d="M2444.46 28.5427 L2444.46 35.5912 Q2441.3 33.9709 2437.89 33.1607 Q2434.49 32.3505 2430.84 32.3505 Q2425.3 32.3505 2422.5 34.0519 Q2419.75 35.7533 2419.75 39.156 Q2419.75 41.7486 2421.73 43.2475 Q2423.72 44.7058 2429.71 46.0426 L2432.26 46.6097 Q2440.2 48.3111 2443.52 51.4303 Q2446.89 54.509 2446.89 60.0587 Q2446.89 66.3781 2441.86 70.0644 Q2436.88 73.7508 2428.13 73.7508 Q2424.48 73.7508 2420.52 73.0216 Q2416.59 72.3329 2412.21 70.9151 L2412.21 63.2184 Q2416.34 65.3654 2420.35 66.4591 Q2424.36 67.5124 2428.29 67.5124 Q2433.56 67.5124 2436.39 65.73 Q2439.23 63.9071 2439.23 60.6258 Q2439.23 57.5877 2437.16 55.9673 Q2435.14 54.3469 2428.21 52.8481 L2425.62 52.2405 Q2418.69 50.7821 2415.61 47.7845 Q2412.53 44.7463 2412.53 39.4801 Q2412.53 33.0797 2417.07 29.5959 Q2421.61 26.1121 2429.95 26.1121 Q2434.09 26.1121 2437.73 26.7198 Q2441.38 27.3274 2444.46 28.5427 Z" fill="#000000" fill-rule="nonzero" fill-opacity="1" /><polyline clip-path="url(#clip942)" style="stroke:#009af9; stroke-linecap:round; stroke-linejoin:round; stroke-width:4; stroke-opacity:1; fill:none" points="249.542,447.965 276.565,447.965 276.565,436.458 297.093,436.458 297.093,424.951 297.929,424.951 297.929,413.445 302.388,413.445 302.388,401.938 305.847,401.938 305.847,390.431 307.023,390.431 307.023,378.924 315.261,378.924 315.261,367.417 328.464,367.417 328.464,355.91 364.958,355.91 364.958,344.403 381.66,344.403 381.66,332.897 391.981,332.897 391.981,321.39 409.502,321.39 409.502,309.883 644.589,309.883 644.589,298.376 738.51,298.376 738.51,286.869 988.676,286.869 988.676,275.362 1450.32,275.362 1450.32,263.856 4073.57,263.856 4073.57,229.335 "/>
<polyline clip-path="url(#clip942)" style="stroke:#e26f46; stroke-linecap:round; stroke-linejoin:round; stroke-width:4; stroke-opacity:1; fill:none" stroke-dasharray="16, 10" points="249.542,1172.9 289.502,1172.9 289.502,1149.88 293.313,1149.88 293.313,1138.38 297.929,1138.38 297.929,1126.87 300.622,1126.87 300.622,1115.36 303.634,1115.36 303.634,1103.86 305.847,1103.86 305.847,1092.35 310.866,1092.35 310.866,1080.84 313.728,1080.84 313.728,1069.33 316.87,1069.33 316.87,1057.83 341.7,1057.83 341.7,1034.81 352.021,1034.81 352.021,1000.29 364.958,1000.29 364.958,988.787 381.66,988.787 381.66,977.28 391.981,977.28 391.981,954.266 404.067,954.266 404.067,931.252 409.502,931.252 409.502,919.746 435.752,919.746 435.752,862.211 445.846,862.211 445.846,850.705 465.391,850.705 465.391,827.691 469.786,827.691 469.786,816.184 472.511,816.184 472.511,793.17 477.531,793.17 477.531,781.664 484.139,781.664 484.139,735.636 519.483,735.636 519.483,724.129 527.91,724.129 527.91,701.116 567.87,701.116 567.87,655.088 589.234,655.088 589.234,643.581 604.629,643.581 604.629,620.568 651.601,620.568 651.601,609.061 670.349,609.061 670.349,597.554 688.361,597.554 688.361,586.047 699.988,586.047 699.988,574.54 707.336,574.54 707.336,563.034 741.667,563.034 741.667,551.527 754.08,551.527 754.08,517.006 790.839,517.006 790.839,505.499 799.587,505.499 799.587,493.992 846.238,493.992 846.238,482.486 851.427,482.486 851.427,470.979 878.479,470.979 878.479,459.472 886.198,459.472 886.198,436.458 940.29,436.458 940.29,424.951 974.688,424.951 974.688,413.445 1072.41,413.445 1072.41,401.938 1192.28,401.938 1192.28,390.431 1310.98,390.431 1310.98,378.924 1422.65,378.924 1422.65,367.417 1565.32,367.417 1565.32,355.91 1700.79,355.91 1700.79,344.403 1851.32,344.403 1851.32,332.897 1879.7,332.897 1879.7,321.39 1895.27,321.39 1895.27,309.883 2161.55,309.883 2161.55,298.376 4073.57,298.376 4073.57,229.335 "/>
<path clip-path="url(#clip940)" d="M1956.98 1371.5 L2282.65 1371.5 L2282.65 1215.98 L1956.98 1215.98  Z" fill="#ffffff" fill-rule="evenodd" fill-opacity="1"/>
<polyline clip-path="url(#clip940)" style="stroke:#000000; stroke-linecap:round; stroke-linejoin:round; stroke-width:4; stroke-opacity:1; fill:none" points="1956.98,1371.5 2282.65,1371.5 2282.65,1215.98 1956.98,1215.98 1956.98,1371.5 "/>
<polyline clip-path="url(#clip940)" style="stroke:#009af9; stroke-linecap:round; stroke-linejoin:round; stroke-width:4; stroke-opacity:1; fill:none" points="1980.35,1267.82 2120.56,1267.82 "/>
<path clip-path="url(#clip940)" d="M2151.34 1251.82 L2151.34 1259.18 L2160.11 1259.18 L2160.11 1262.49 L2151.34 1262.49 L2151.34 1276.56 Q2151.34 1279.73 2152.2 1280.64 Q2153.08 1281.54 2155.74 1281.54 L2160.11 1281.54 L2160.11 1285.1 L2155.74 1285.1 Q2150.81 1285.1 2148.93 1283.28 Q2147.06 1281.42 2147.06 1276.56 L2147.06 1262.49 L2143.93 1262.49 L2143.93 1259.18 L2147.06 1259.18 L2147.06 1251.82 L2151.34 1251.82 Z" fill="#000000" fill-rule="nonzero" fill-opacity="1" /><path clip-path="url(#clip940)" d="M2180.74 1263.16 Q2180.02 1262.74 2179.16 1262.56 Q2178.33 1262.35 2177.31 1262.35 Q2173.7 1262.35 2171.76 1264.71 Q2169.84 1267.05 2169.84 1271.45 L2169.84 1285.1 L2165.55 1285.1 L2165.55 1259.18 L2169.84 1259.18 L2169.84 1263.21 Q2171.18 1260.85 2173.33 1259.71 Q2175.48 1258.55 2178.56 1258.55 Q2179 1258.55 2179.53 1258.62 Q2180.07 1258.67 2180.72 1258.78 L2180.74 1263.16 Z" fill="#000000" fill-rule="nonzero" fill-opacity="1" /><path clip-path="url(#clip940)" d="M2194.21 1262.16 Q2190.78 1262.16 2188.79 1264.85 Q2186.8 1267.51 2186.8 1272.16 Q2186.8 1276.82 2188.77 1279.5 Q2190.76 1282.16 2194.21 1282.16 Q2197.61 1282.16 2199.6 1279.48 Q2201.59 1276.79 2201.59 1272.16 Q2201.59 1267.56 2199.6 1264.87 Q2197.61 1262.16 2194.21 1262.16 M2194.21 1258.55 Q2199.77 1258.55 2202.94 1262.16 Q2206.11 1265.78 2206.11 1272.16 Q2206.11 1278.53 2202.94 1282.16 Q2199.77 1285.78 2194.21 1285.78 Q2188.63 1285.78 2185.46 1282.16 Q2182.31 1278.53 2182.31 1272.16 Q2182.31 1265.78 2185.46 1262.16 Q2188.63 1258.55 2194.21 1258.55 Z" fill="#000000" fill-rule="nonzero" fill-opacity="1" /><path clip-path="url(#clip940)" d="M2234.72 1269.46 L2234.72 1285.1 L2230.46 1285.1 L2230.46 1269.6 Q2230.46 1265.91 2229.03 1264.09 Q2227.59 1262.26 2224.72 1262.26 Q2221.27 1262.26 2219.28 1264.46 Q2217.29 1266.66 2217.29 1270.45 L2217.29 1285.1 L2213.01 1285.1 L2213.01 1259.18 L2217.29 1259.18 L2217.29 1263.21 Q2218.82 1260.87 2220.88 1259.71 Q2222.96 1258.55 2225.67 1258.55 Q2230.14 1258.55 2232.43 1261.33 Q2234.72 1264.09 2234.72 1269.46 Z" fill="#000000" fill-rule="nonzero" fill-opacity="1" /><polyline clip-path="url(#clip940)" style="stroke:#e26f46; stroke-linecap:round; stroke-linejoin:round; stroke-width:4; stroke-opacity:1; fill:none" stroke-dasharray="16, 10" points="1980.35,1319.66 2120.56,1319.66 "/>
<path clip-path="url(#clip940)" d="M2143.93 1311.02 L2148.19 1311.02 L2148.19 1336.94 L2143.93 1336.94 L2143.93 1311.02 M2143.93 1300.93 L2148.19 1300.93 L2148.19 1306.32 L2143.93 1306.32 L2143.93 1300.93 Z" fill="#000000" fill-rule="nonzero" fill-opacity="1" /><path clip-path="url(#clip940)" d="M2161.22 1333.06 L2161.22 1346.81 L2156.94 1346.81 L2156.94 1311.02 L2161.22 1311.02 L2161.22 1314.95 Q2162.57 1312.64 2164.6 1311.53 Q2166.66 1310.39 2169.51 1310.39 Q2174.23 1310.39 2177.17 1314.14 Q2180.14 1317.89 2180.14 1324 Q2180.14 1330.12 2177.17 1333.87 Q2174.23 1337.62 2169.51 1337.62 Q2166.66 1337.62 2164.6 1336.5 Q2162.57 1335.37 2161.22 1333.06 M2175.72 1324 Q2175.72 1319.31 2173.77 1316.64 Q2171.85 1313.96 2168.47 1313.96 Q2165.09 1313.96 2163.15 1316.64 Q2161.22 1319.31 2161.22 1324 Q2161.22 1328.7 2163.15 1331.39 Q2165.09 1334.05 2168.47 1334.05 Q2171.85 1334.05 2173.77 1331.39 Q2175.72 1328.7 2175.72 1324 Z" fill="#000000" fill-rule="nonzero" fill-opacity="1" /><path clip-path="url(#clip940)" d="M2197.24 1314 Q2193.82 1314 2191.83 1316.69 Q2189.84 1319.35 2189.84 1324 Q2189.84 1328.66 2191.8 1331.34 Q2193.79 1334 2197.24 1334 Q2200.65 1334 2202.64 1331.32 Q2204.63 1328.63 2204.63 1324 Q2204.63 1319.4 2202.64 1316.71 Q2200.65 1314 2197.24 1314 M2197.24 1310.39 Q2202.8 1310.39 2205.97 1314 Q2209.14 1317.62 2209.14 1324 Q2209.14 1330.37 2205.97 1334 Q2202.8 1337.62 2197.24 1337.62 Q2191.66 1337.62 2188.49 1334 Q2185.34 1330.37 2185.34 1324 Q2185.34 1317.62 2188.49 1314 Q2191.66 1310.39 2197.24 1310.39 Z" fill="#000000" fill-rule="nonzero" fill-opacity="1" /><path clip-path="url(#clip940)" d="M2220.32 1333.06 L2220.32 1346.81 L2216.04 1346.81 L2216.04 1311.02 L2220.32 1311.02 L2220.32 1314.95 Q2221.66 1312.64 2223.7 1311.53 Q2225.76 1310.39 2228.61 1310.39 Q2233.33 1310.39 2236.27 1314.14 Q2239.23 1317.89 2239.23 1324 Q2239.23 1330.12 2236.27 1333.87 Q2233.33 1337.62 2228.61 1337.62 Q2225.76 1337.62 2223.7 1336.5 Q2221.66 1335.37 2220.32 1333.06 M2234.81 1324 Q2234.81 1319.31 2232.87 1316.64 Q2230.95 1313.96 2227.57 1313.96 Q2224.19 1313.96 2222.24 1316.64 Q2220.32 1319.31 2220.32 1324 Q2220.32 1328.7 2222.24 1331.39 Q2224.19 1334.05 2227.57 1334.05 Q2230.95 1334.05 2232.87 1331.39 Q2234.81 1328.7 2234.81 1324 Z" fill="#000000" fill-rule="nonzero" fill-opacity="1" /><path clip-path="url(#clip940)" d="M2250.51 1303.66 L2250.51 1311.02 L2259.28 1311.02 L2259.28 1314.33 L2250.51 1314.33 L2250.51 1328.4 Q2250.51 1331.57 2251.36 1332.48 Q2252.24 1333.38 2254.9 1333.38 L2259.28 1333.38 L2259.28 1336.94 L2254.9 1336.94 Q2249.97 1336.94 2248.1 1335.12 Q2246.22 1333.26 2246.22 1328.4 L2246.22 1314.33 L2243.1 1314.33 L2243.1 1311.02 L2246.22 1311.02 L2246.22 1303.66 L2250.51 1303.66 Z" fill="#000000" fill-rule="nonzero" fill-opacity="1" /></svg>
