<?xml version="1.0" encoding="utf-8"?>
<svg xmlns="http://www.w3.org/2000/svg" xmlns:xlink="http://www.w3.org/1999/xlink" width="600" height="400" viewBox="0 0 2400 1600">
<defs>
  <clipPath id="clip520">
    <rect x="0" y="0" width="2400" height="1600"/>
  </clipPath>
</defs>
<path clip-path="url(#clip520)" d="M0 1600 L2400 1600 L2400 0 L0 0  Z" fill="#ffffff" fill-rule="evenodd" fill-opacity="1"/>
<defs>
  <clipPath id="clip521">
    <rect x="480" y="0" width="1681" height="1600"/>
  </clipPath>
</defs>
<path clip-path="url(#clip520)" d="M249.542 1414.54 L2352.76 1414.54 L2352.76 123.472 L249.542 123.472  Z" fill="#ffffff" fill-rule="evenodd" fill-opacity="1"/>
<defs>
  <clipPath id="clip522">
    <rect x="249" y="123" width="2104" height="1292"/>
  </clipPath>
</defs>
<polyline clip-path="url(#clip522)" style="stroke:#000000; stroke-linecap:round; stroke-linejoin:round; stroke-width:2; stroke-opacity:0.1; fill:none" points="249.542,1414.54 249.542,123.472 "/>
<polyline clip-path="url(#clip522)" style="stroke:#000000; stroke-linecap:round; stroke-linejoin:round; stroke-width:2; stroke-opacity:0.1; fill:none" points="571.797,1414.54 571.797,123.472 "/>
<polyline clip-path="url(#clip522)" style="stroke:#000000; stroke-linecap:round; stroke-linejoin:round; stroke-width:2; stroke-opacity:0.1; fill:none" points="894.052,1414.54 894.052,123.472 "/>
<polyline clip-path="url(#clip522)" style="stroke:#000000; stroke-linecap:round; stroke-linejoin:round; stroke-width:2; stroke-opacity:0.1; fill:none" points="1216.31,1414.54 1216.31,123.472 "/>
<polyline clip-path="url(#clip522)" style="stroke:#000000; stroke-linecap:round; stroke-linejoin:round; stroke-width:2; stroke-opacity:0.1; fill:none" points="1538.56,1414.54 1538.56,123.472 "/>
<polyline clip-path="url(#clip522)" style="stroke:#000000; stroke-linecap:round; stroke-linejoin:round; stroke-width:2; stroke-opacity:0.1; fill:none" points="1860.82,1414.54 1860.82,123.472 "/>
<polyline clip-path="url(#clip522)" style="stroke:#000000; stroke-linecap:round; stroke-linejoin:round; stroke-width:2; stroke-opacity:0.1; fill:none" points="2183.07,1414.54 2183.07,123.472 "/>
<polyline clip-path="url(#clip522)" style="stroke:#000000; stroke-linecap:round; stroke-linejoin:round; stroke-width:2; stroke-opacity:0.1; fill:none" points="249.542,1414.54 2352.76,1414.54 "/>
<polyline clip-path="url(#clip522)" style="stroke:#000000; stroke-linecap:round; stroke-linejoin:round; stroke-width:2; stroke-opacity:0.1; fill:none" points="249.542,1121.12 2352.76,1121.12 "/>
<polyline clip-path="url(#clip522)" style="stroke:#000000; stroke-linecap:round; stroke-linejoin:round; stroke-width:2; stroke-opacity:0.1; fill:none" points="249.542,827.691 2352.76,827.691 "/>
<polyline clip-path="url(#clip522)" style="stroke:#000000; stroke-linecap:round; stroke-linejoin:round; stroke-width:2; stroke-opacity:0.1; fill:none" points="249.542,534.266 2352.76,534.266 "/>
<polyline clip-path="url(#clip522)" style="stroke:#000000; stroke-linecap:round; stroke-linejoin:round; stroke-width:2; stroke-opacity:0.1; fill:none" points="249.542,240.842 2352.76,240.842 "/>
<polyline clip-path="url(#clip520)" style="stroke:#000000; stroke-linecap:round; stroke-linejoin:round; stroke-width:4; stroke-opacity:1; fill:none" points="249.542,1414.54 2352.76,1414.54 "/>
<polyline clip-path="url(#clip520)" style="stroke:#000000; stroke-linecap:round; stroke-linejoin:round; stroke-width:4; stroke-opacity:1; fill:none" points="249.542,1414.54 249.542,1395.64 "/>
<polyline clip-path="url(#clip520)" style="stroke:#000000; stroke-linecap:round; stroke-linejoin:round; stroke-width:4; stroke-opacity:1; fill:none" points="571.797,1414.54 571.797,1395.64 "/>
<polyline clip-path="url(#clip520)" style="stroke:#000000; stroke-linecap:round; stroke-linejoin:round; stroke-width:4; stroke-opacity:1; fill:none" points="894.052,1414.54 894.052,1395.64 "/>
<polyline clip-path="url(#clip520)" style="stroke:#000000; stroke-linecap:round; stroke-linejoin:round; stroke-width:4; stroke-opacity:1; fill:none" points="1216.31,1414.54 1216.31,1395.64 "/>
<polyline clip-path="url(#clip520)" style="stroke:#000000; stroke-linecap:round; stroke-linejoin:round; stroke-width:4; stroke-opacity:1; fill:none" points="1538.56,1414.54 1538.56,1395.64 "/>
<polyline clip-path="url(#clip520)" style="stroke:#000000; stroke-linecap:round; stroke-linejoin:round; stroke-width:4; stroke-opacity:1; fill:none" points="1860.82,1414.54 1860.82,1395.64 "/>
<polyline clip-path="url(#clip520)" style="stroke:#000000; stroke-linecap:round; stroke-linejoin:round; stroke-width:4; stroke-opacity:1; fill:none" points="2183.07,1414.54 2183.07,1395.64 "/>
<path clip-path="url(#clip520)" d="M229.042 1482.82 L249.441 1482.82 L249.441 1487.74 L222.01 1487.74 L222.01 1482.82 Q225.338 1479.38 231.067 1473.59 Q236.825 1467.77 238.301 1466.1 Q241.107 1462.94 242.207 1460.77 Q243.335 1458.57 243.335 1456.46 Q243.335 1453.02 240.905 1450.85 Q238.503 1448.68 234.626 1448.68 Q231.877 1448.68 228.81 1449.63 Q225.772 1450.59 222.3 1452.53 L222.3 1446.62 Q225.83 1445.21 228.897 1444.48 Q231.964 1443.76 234.51 1443.76 Q241.223 1443.76 245.216 1447.12 Q249.209 1450.47 249.209 1456.08 Q249.209 1458.75 248.197 1461.15 Q247.213 1463.52 244.58 1466.76 Q243.856 1467.6 239.979 1471.62 Q236.102 1475.62 229.042 1482.82 Z" fill="#000000" fill-rule="nonzero" fill-opacity="1" /><path clip-path="url(#clip520)" d="M271.865 1448.82 Q270.419 1446.33 267.496 1446.33 Q264.574 1446.33 263.127 1448.82 Q261.651 1451.31 261.651 1456.29 Q261.651 1461.29 263.127 1463.78 Q264.574 1466.27 267.496 1466.27 Q270.419 1466.27 271.865 1463.78 Q273.341 1461.29 273.341 1456.29 Q273.341 1451.31 271.865 1448.82 M267.496 1443.76 Q272.155 1443.76 274.614 1446.97 Q277.074 1450.18 277.074 1456.29 Q277.074 1462.42 274.614 1465.63 Q272.155 1468.85 267.496 1468.85 Q262.809 1468.85 260.349 1465.63 Q257.89 1462.42 257.89 1456.29 Q257.89 1450.18 260.349 1446.97 Q262.809 1443.76 267.496 1443.76 Z" fill="#000000" fill-rule="nonzero" fill-opacity="1" /><path clip-path="url(#clip520)" d="M551.89 1482.82 L572.289 1482.82 L572.289 1487.74 L544.859 1487.74 L544.859 1482.82 Q548.186 1479.38 553.915 1473.59 Q559.673 1467.77 561.149 1466.1 Q563.956 1462.94 565.055 1460.77 Q566.184 1458.57 566.184 1456.46 Q566.184 1453.02 563.753 1450.85 Q561.352 1448.68 557.474 1448.68 Q554.726 1448.68 551.658 1449.63 Q548.62 1450.59 545.148 1452.53 L545.148 1446.62 Q548.678 1445.21 551.745 1444.48 Q554.812 1443.76 557.359 1443.76 Q564.072 1443.76 568.065 1447.12 Q572.058 1450.47 572.058 1456.08 Q572.058 1458.75 571.045 1461.15 Q570.061 1463.52 567.428 1466.76 Q566.705 1467.6 562.827 1471.62 Q558.95 1475.62 551.89 1482.82 Z" fill="#000000" fill-rule="nonzero" fill-opacity="1" /><path clip-path="url(#clip520)" d="M582.735 1465.23 L588.637 1465.23 L588.637 1447.55 L582.185 1448.74 L582.185 1445.38 L588.84 1444.25 L592.804 1444.25 L592.804 1465.23 L598.736 1465.23 L598.736 1468.41 L582.735 1468.41 L582.735 1465.23 Z" fill="#000000" fill-rule="nonzero" fill-opacity="1" /><path clip-path="url(#clip520)" d="M874.391 1482.82 L894.79 1482.82 L894.79 1487.74 L867.36 1487.74 L867.36 1482.82 Q870.687 1479.38 876.417 1473.59 Q882.175 1467.77 883.65 1466.1 Q886.457 1462.94 887.557 1460.77 Q888.685 1458.57 888.685 1456.46 Q888.685 1453.02 886.254 1450.85 Q883.853 1448.68 879.976 1448.68 Q877.227 1448.68 874.16 1449.63 Q871.121 1450.59 867.649 1452.53 L867.649 1446.62 Q871.179 1445.21 874.246 1444.48 Q877.314 1443.76 879.86 1443.76 Q886.573 1443.76 890.566 1447.12 Q894.559 1450.47 894.559 1456.08 Q894.559 1458.75 893.546 1461.15 Q892.562 1463.52 889.929 1466.76 Q889.206 1467.6 885.329 1471.62 Q881.451 1475.62 874.391 1482.82 Z" fill="#000000" fill-rule="nonzero" fill-opacity="1" /><path clip-path="url(#clip520)" d="M908.477 1465.11 L920.745 1465.11 L920.745 1468.41 L903.442 1468.41 L903.442 1465.23 Q904.426 1464.33 906.249 1462.71 Q916.202 1453.89 916.202 1451.17 Q916.202 1449.26 914.698 1448.1 Q913.193 1446.91 910.734 1446.91 Q909.229 1446.91 907.464 1447.43 Q905.699 1447.93 903.615 1448.94 L903.615 1445.38 Q905.843 1444.57 907.753 1444.16 Q909.692 1443.76 911.341 1443.76 Q915.537 1443.76 918.054 1445.67 Q920.571 1447.58 920.571 1450.7 Q920.571 1454.72 910.994 1462.94 Q909.374 1464.33 908.477 1465.11 Z" fill="#000000" fill-rule="nonzero" fill-opacity="1" /><path clip-path="url(#clip520)" d="M1196.28 1482.82 L1216.68 1482.82 L1216.68 1487.74 L1189.25 1487.74 L1189.25 1482.82 Q1192.58 1479.38 1198.31 1473.59 Q1204.07 1467.77 1205.54 1466.1 Q1208.35 1462.94 1209.45 1460.77 Q1210.58 1458.57 1210.58 1456.46 Q1210.58 1453.02 1208.15 1450.85 Q1205.75 1448.68 1201.87 1448.68 Q1199.12 1448.68 1196.05 1449.63 Q1193.01 1450.59 1189.54 1452.53 L1189.54 1446.62 Q1193.07 1445.21 1196.14 1444.48 Q1199.21 1443.76 1201.75 1443.76 Q1208.47 1443.76 1212.46 1447.12 Q1216.45 1450.47 1216.45 1456.08 Q1216.45 1458.75 1215.44 1461.15 Q1214.46 1463.52 1211.82 1466.76 Q1211.1 1467.6 1207.22 1471.62 Q1203.34 1475.62 1196.28 1482.82 Z" fill="#000000" fill-rule="nonzero" fill-opacity="1" /><path clip-path="url(#clip520)" d="M1237.78 1455.33 Q1240.44 1455.85 1241.89 1457.44 Q1243.36 1459.01 1243.36 1461.38 Q1243.36 1464.97 1240.61 1466.91 Q1237.86 1468.85 1232.74 1468.85 Q1231.09 1468.85 1229.27 1468.56 Q1227.48 1468.24 1225.45 1467.66 L1225.45 1464.16 Q1226.96 1464.94 1228.66 1465.32 Q1230.4 1465.69 1232.34 1465.69 Q1235.49 1465.69 1237.23 1464.56 Q1238.96 1463.41 1238.96 1461.38 Q1238.96 1459.24 1237.34 1458.14 Q1235.75 1457.04 1232.63 1457.04 L1230.14 1457.04 L1230.14 1453.91 L1232.86 1453.91 Q1235.58 1453.91 1236.97 1453.02 Q1238.39 1452.09 1238.39 1450.36 Q1238.39 1448.68 1236.94 1447.81 Q1235.49 1446.91 1232.74 1446.91 Q1231.59 1446.91 1230.11 1447.17 Q1228.63 1447.43 1226.29 1448.1 L1226.29 1444.77 Q1228.4 1444.28 1230.25 1444.02 Q1232.11 1443.76 1233.7 1443.76 Q1237.86 1443.76 1240.29 1445.47 Q1242.75 1447.17 1242.75 1450.04 Q1242.75 1452.03 1241.45 1453.42 Q1240.15 1454.81 1237.78 1455.33 Z" fill="#000000" fill-rule="nonzero" fill-opacity="1" /><path clip-path="url(#clip520)" d="M1517.98 1482.82 L1538.37 1482.82 L1538.37 1487.74 L1510.94 1487.74 L1510.94 1482.82 Q1514.27 1479.38 1520 1473.59 Q1525.76 1467.77 1527.23 1466.1 Q1530.04 1462.94 1531.14 1460.77 Q1532.27 1458.57 1532.27 1456.46 Q1532.27 1453.02 1529.84 1450.85 Q1527.44 1448.68 1523.56 1448.68 Q1520.81 1448.68 1517.74 1449.63 Q1514.71 1450.59 1511.23 1452.53 L1511.23 1446.62 Q1514.76 1445.21 1517.83 1444.48 Q1520.9 1443.76 1523.44 1443.76 Q1530.16 1443.76 1534.15 1447.12 Q1538.14 1450.47 1538.14 1456.08 Q1538.14 1458.75 1537.13 1461.15 Q1536.15 1463.52 1533.51 1466.76 Q1532.79 1467.6 1528.91 1471.62 Q1525.04 1475.62 1517.98 1482.82 Z" fill="#000000" fill-rule="nonzero" fill-opacity="1" /><path clip-path="url(#clip520)" d="M1558.11 1447.75 L1549.17 1459.88 L1558.11 1459.88 L1558.11 1447.75 M1557.47 1444.25 L1562.28 1444.25 L1562.28 1459.88 L1566.18 1459.88 L1566.18 1463.03 L1562.28 1463.03 L1562.28 1468.41 L1558.11 1468.41 L1558.11 1463.03 L1546.13 1463.03 L1546.13 1459.53 L1557.47 1444.25 Z" fill="#000000" fill-rule="nonzero" fill-opacity="1" /><path clip-path="url(#clip520)" d="M1840.71 1482.82 L1861.11 1482.82 L1861.11 1487.74 L1833.68 1487.74 L1833.68 1482.82 Q1837 1479.38 1842.73 1473.59 Q1848.49 1467.77 1849.97 1466.1 Q1852.77 1462.94 1853.87 1460.77 Q1855 1458.57 1855 1456.46 Q1855 1453.02 1852.57 1450.85 Q1850.17 1448.68 1846.29 1448.68 Q1843.54 1448.68 1840.48 1449.63 Q1837.44 1450.59 1833.97 1452.53 L1833.97 1446.62 Q1837.5 1445.21 1840.56 1444.48 Q1843.63 1443.76 1846.18 1443.76 Q1852.89 1443.76 1856.88 1447.12 Q1860.88 1450.47 1860.88 1456.08 Q1860.88 1458.75 1859.86 1461.15 Q1858.88 1463.52 1856.25 1466.76 Q1855.52 1467.6 1851.65 1471.62 Q1847.77 1475.62 1840.71 1482.82 Z" fill="#000000" fill-rule="nonzero" fill-opacity="1" /><path clip-path="url(#clip520)" d="M1871.15 1444.25 L1885.9 1444.25 L1885.9 1447 L1874.59 1447 L1874.59 1452.9 Q1875.4 1452.64 1876.24 1452.53 Q1877.05 1452.41 1877.86 1452.41 Q1882.52 1452.41 1885.24 1454.64 Q1887.96 1456.84 1887.96 1460.63 Q1887.96 1464.53 1885.15 1466.7 Q1882.37 1468.85 1877.28 1468.85 Q1875.55 1468.85 1873.72 1468.58 Q1871.9 1468.32 1869.99 1467.8 L1869.99 1464.53 Q1871.64 1465.32 1873.43 1465.72 Q1875.23 1466.1 1877.22 1466.1 Q1880.44 1466.1 1882.32 1464.62 Q1884.2 1463.15 1884.2 1460.63 Q1884.2 1458.11 1882.32 1456.63 Q1880.44 1455.16 1877.22 1455.16 Q1875.72 1455.16 1874.22 1455.45 Q1872.71 1455.74 1871.15 1456.35 L1871.15 1444.25 Z" fill="#000000" fill-rule="nonzero" fill-opacity="1" /><path clip-path="url(#clip520)" d="M2162.5 1482.82 L2182.9 1482.82 L2182.9 1487.74 L2155.47 1487.74 L2155.47 1482.82 Q2158.8 1479.38 2164.53 1473.59 Q2170.28 1467.77 2171.76 1466.1 Q2174.57 1462.94 2175.67 1460.77 Q2176.79 1458.57 2176.79 1456.46 Q2176.79 1453.02 2174.36 1450.85 Q2171.96 1448.68 2168.08 1448.68 Q2165.34 1448.68 2162.27 1449.63 Q2159.23 1450.59 2155.76 1452.53 L2155.76 1446.62 Q2159.29 1445.21 2162.36 1444.48 Q2165.42 1443.76 2167.97 1443.76 Q2174.68 1443.76 2178.68 1447.12 Q2182.67 1450.47 2182.67 1456.08 Q2182.67 1458.75 2181.66 1461.15 Q2180.67 1463.52 2178.04 1466.76 Q2177.32 1467.6 2173.44 1471.62 Q2169.56 1475.62 2162.5 1482.82 Z" fill="#000000" fill-rule="nonzero" fill-opacity="1" /><path clip-path="url(#clip520)" d="M2201.42 1454.96 Q2198.87 1454.96 2197.4 1456.46 Q2195.92 1457.99 2195.92 1460.63 Q2195.92 1463.23 2197.4 1464.74 Q2198.87 1466.27 2201.42 1466.27 Q2203.94 1466.27 2205.41 1464.74 Q2206.89 1463.23 2206.89 1460.63 Q2206.89 1457.99 2205.41 1456.46 Q2203.94 1454.96 2201.42 1454.96 M2208.88 1444.71 L2208.88 1447.69 Q2207.47 1447.12 2206.02 1446.83 Q2204.57 1446.51 2203.15 1446.51 Q2199.45 1446.51 2197.48 1448.68 Q2195.52 1450.88 2195.23 1455.3 Q2196.33 1453.89 2197.97 1453.13 Q2199.65 1452.38 2201.62 1452.38 Q2205.82 1452.38 2208.25 1454.58 Q2210.68 1456.81 2210.68 1460.63 Q2210.68 1464.3 2208.13 1466.59 Q2205.61 1468.85 2201.42 1468.85 Q2196.59 1468.85 2194.04 1465.63 Q2191.49 1462.42 2191.49 1456.29 Q2191.49 1450.56 2194.62 1447.17 Q2197.74 1443.76 2203.01 1443.76 Q2204.43 1443.76 2205.87 1443.99 Q2207.32 1444.25 2208.88 1444.71 Z" fill="#000000" fill-rule="nonzero" fill-opacity="1" /><path clip-path="url(#clip520)" d="M659.343 1524.84 L665.836 1524.84 L675.83 1565.01 L685.792 1524.84 L693.017 1524.84 L703.011 1565.01 L712.974 1524.84 L719.498 1524.84 L707.563 1572.36 L699.478 1572.36 L689.452 1531.11 L679.331 1572.36 L671.246 1572.36 L659.343 1524.84 Z" fill="#000000" fill-rule="nonzero" fill-opacity="1" /><path clip-path="url(#clip520)" d="M726.342 1536.72 L732.198 1536.72 L732.198 1572.36 L726.342 1572.36 L726.342 1536.72 M726.342 1522.84 L732.198 1522.84 L732.198 1530.25 L726.342 1530.25 L726.342 1522.84 Z" fill="#000000" fill-rule="nonzero" fill-opacity="1" /><path clip-path="url(#clip520)" d="M750.245 1526.59 L750.245 1536.72 L762.308 1536.72 L762.308 1541.27 L750.245 1541.27 L750.245 1560.62 Q750.245 1564.98 751.422 1566.22 Q752.632 1567.46 756.292 1567.46 L762.308 1567.46 L762.308 1572.36 L756.292 1572.36 Q749.513 1572.36 746.935 1569.85 Q744.357 1567.3 744.357 1560.62 L744.357 1541.27 L740.06 1541.27 L740.06 1536.72 L744.357 1536.72 L744.357 1526.59 L750.245 1526.59 Z" fill="#000000" fill-rule="nonzero" fill-opacity="1" /><path clip-path="url(#clip520)" d="M799.643 1550.85 L799.643 1572.36 L793.786 1572.36 L793.786 1551.04 Q793.786 1545.98 791.813 1543.46 Q789.839 1540.95 785.893 1540.95 Q781.15 1540.95 778.413 1543.97 Q775.676 1547 775.676 1552.22 L775.676 1572.36 L769.788 1572.36 L769.788 1522.84 L775.676 1522.84 L775.676 1542.25 Q777.776 1539.04 780.609 1537.45 Q783.474 1535.86 787.198 1535.86 Q793.341 1535.86 796.492 1539.68 Q799.643 1543.46 799.643 1550.85 Z" fill="#000000" fill-rule="nonzero" fill-opacity="1" /><path clip-path="url(#clip520)" d="M811.324 1536.72 L817.18 1536.72 L817.18 1572.36 L811.324 1572.36 L811.324 1536.72 M811.324 1522.84 L817.18 1522.84 L817.18 1530.25 L811.324 1530.25 L811.324 1522.84 Z" fill="#000000" fill-rule="nonzero" fill-opacity="1" /><path clip-path="url(#clip520)" d="M859.067 1550.85 L859.067 1572.36 L853.21 1572.36 L853.21 1551.04 Q853.21 1545.98 851.237 1543.46 Q849.263 1540.95 845.317 1540.95 Q840.574 1540.95 837.837 1543.97 Q835.1 1547 835.1 1552.22 L835.1 1572.36 L829.211 1572.36 L829.211 1536.72 L835.1 1536.72 L835.1 1542.25 Q837.2 1539.04 840.033 1537.45 Q842.898 1535.86 846.622 1535.86 Q852.765 1535.86 855.916 1539.68 Q859.067 1543.46 859.067 1550.85 Z" fill="#000000" fill-rule="nonzero" fill-opacity="1" /><path clip-path="url(#clip520)" d="M897.261 1526.59 L897.261 1536.72 L909.324 1536.72 L909.324 1541.27 L897.261 1541.27 L897.261 1560.62 Q897.261 1564.98 898.438 1566.22 Q899.648 1567.46 903.308 1567.46 L909.324 1567.46 L909.324 1572.36 L903.308 1572.36 Q896.529 1572.36 893.951 1569.85 Q891.373 1567.3 891.373 1560.62 L891.373 1541.27 L887.076 1541.27 L887.076 1536.72 L891.373 1536.72 L891.373 1526.59 L897.261 1526.59 Z" fill="#000000" fill-rule="nonzero" fill-opacity="1" /><path clip-path="url(#clip520)" d="M946.659 1550.85 L946.659 1572.36 L940.802 1572.36 L940.802 1551.04 Q940.802 1545.98 938.829 1543.46 Q936.855 1540.95 932.909 1540.95 Q928.166 1540.95 925.429 1543.97 Q922.692 1547 922.692 1552.22 L922.692 1572.36 L916.804 1572.36 L916.804 1522.84 L922.692 1522.84 L922.692 1542.25 Q924.792 1539.04 927.625 1537.45 Q930.49 1535.86 934.214 1535.86 Q940.357 1535.86 943.508 1539.68 Q946.659 1543.46 946.659 1550.85 Z" fill="#000000" fill-rule="nonzero" fill-opacity="1" /><path clip-path="url(#clip520)" d="M958.34 1536.72 L964.196 1536.72 L964.196 1572.36 L958.34 1572.36 L958.34 1536.72 M958.34 1522.84 L964.196 1522.84 L964.196 1530.25 L958.34 1530.25 L958.34 1522.84 Z" fill="#000000" fill-rule="nonzero" fill-opacity="1" /><path clip-path="url(#clip520)" d="M999.176 1537.77 L999.176 1543.3 Q996.693 1542.03 994.02 1541.39 Q991.346 1540.76 988.481 1540.76 Q984.121 1540.76 981.925 1542.09 Q979.76 1543.43 979.76 1546.11 Q979.76 1548.14 981.32 1549.32 Q982.88 1550.47 987.59 1551.52 L989.595 1551.96 Q995.834 1553.3 998.444 1555.75 Q1001.09 1558.17 1001.09 1562.53 Q1001.09 1567.49 997.139 1570.39 Q993.224 1573.29 986.349 1573.29 Q983.484 1573.29 980.365 1572.71 Q977.278 1572.17 973.84 1571.06 L973.84 1565.01 Q977.087 1566.7 980.238 1567.56 Q983.389 1568.39 986.476 1568.39 Q990.614 1568.39 992.842 1566.98 Q995.07 1565.55 995.07 1562.97 Q995.07 1560.59 993.447 1559.31 Q991.855 1558.04 986.413 1556.86 L984.375 1556.39 Q978.933 1555.24 976.514 1552.88 Q974.095 1550.5 974.095 1546.36 Q974.095 1541.33 977.66 1538.59 Q981.224 1535.86 987.781 1535.86 Q991.028 1535.86 993.892 1536.33 Q996.757 1536.81 999.176 1537.77 Z" fill="#000000" fill-rule="nonzero" fill-opacity="1" /><path clip-path="url(#clip520)" d="M1049.18 1522.84 L1049.18 1527.71 L1043.58 1527.71 Q1040.43 1527.71 1039.18 1528.98 Q1037.97 1530.25 1037.97 1533.56 L1037.97 1536.72 L1047.62 1536.72 L1047.62 1541.27 L1037.97 1541.27 L1037.97 1572.36 L1032.09 1572.36 L1032.09 1541.27 L1026.48 1541.27 L1026.48 1536.72 L1032.09 1536.72 L1032.09 1534.23 Q1032.09 1528.28 1034.86 1525.58 Q1037.62 1522.84 1043.64 1522.84 L1049.18 1522.84 Z" fill="#000000" fill-rule="nonzero" fill-opacity="1" /><path clip-path="url(#clip520)" d="M1070.28 1554.44 Q1063.18 1554.44 1060.45 1556.07 Q1057.71 1557.69 1057.71 1561.61 Q1057.71 1564.72 1059.75 1566.57 Q1061.81 1568.39 1065.35 1568.39 Q1070.22 1568.39 1073.15 1564.95 Q1076.11 1561.48 1076.11 1555.75 L1076.11 1554.44 L1070.28 1554.44 M1081.96 1552.03 L1081.96 1572.36 L1076.11 1572.36 L1076.11 1566.95 Q1074.1 1570.2 1071.11 1571.76 Q1068.12 1573.29 1063.79 1573.29 Q1058.31 1573.29 1055.07 1570.23 Q1051.85 1567.14 1051.85 1561.99 Q1051.85 1555.97 1055.86 1552.92 Q1059.9 1549.86 1067.89 1549.86 L1076.11 1549.86 L1076.11 1549.29 Q1076.11 1545.25 1073.43 1543.05 Q1070.79 1540.82 1065.98 1540.82 Q1062.93 1540.82 1060.03 1541.55 Q1057.14 1542.29 1054.46 1543.75 L1054.46 1538.34 Q1057.68 1537.1 1060.7 1536.49 Q1063.72 1535.86 1066.59 1535.86 Q1074.32 1535.86 1078.14 1539.87 Q1081.96 1543.88 1081.96 1552.03 Z" fill="#000000" fill-rule="nonzero" fill-opacity="1" /><path clip-path="url(#clip520)" d="M1119.68 1538.08 L1119.68 1543.56 Q1117.2 1542.19 1114.68 1541.52 Q1112.2 1540.82 1109.65 1540.82 Q1103.96 1540.82 1100.8 1544.45 Q1097.65 1548.05 1097.65 1554.57 Q1097.65 1561.1 1100.8 1564.72 Q1103.96 1568.32 1109.65 1568.32 Q1112.2 1568.32 1114.68 1567.65 Q1117.2 1566.95 1119.68 1565.58 L1119.68 1571 Q1117.23 1572.14 1114.59 1572.71 Q1111.98 1573.29 1109.02 1573.29 Q1100.96 1573.29 1096.22 1568.23 Q1091.48 1563.17 1091.48 1554.57 Q1091.48 1545.85 1096.25 1540.85 Q1101.06 1535.86 1109.4 1535.86 Q1112.1 1535.86 1114.68 1536.43 Q1117.26 1536.97 1119.68 1538.08 Z" fill="#000000" fill-rule="nonzero" fill-opacity="1" /><path clip-path="url(#clip520)" d="M1135.66 1526.59 L1135.66 1536.72 L1147.72 1536.72 L1147.72 1541.27 L1135.66 1541.27 L1135.66 1560.62 Q1135.66 1564.98 1136.83 1566.22 Q1138.04 1567.46 1141.7 1567.46 L1147.72 1567.46 L1147.72 1572.36 L1141.7 1572.36 Q1134.92 1572.36 1132.35 1569.85 Q1129.77 1567.3 1129.77 1560.62 L1129.77 1541.27 L1125.47 1541.27 L1125.47 1536.72 L1129.77 1536.72 L1129.77 1526.59 L1135.66 1526.59 Z" fill="#000000" fill-rule="nonzero" fill-opacity="1" /><path clip-path="url(#clip520)" d="M1169.24 1540.82 Q1164.52 1540.82 1161.79 1544.51 Q1159.05 1548.17 1159.05 1554.57 Q1159.05 1560.97 1161.76 1564.66 Q1164.49 1568.32 1169.24 1568.32 Q1173.91 1568.32 1176.65 1564.63 Q1179.39 1560.94 1179.39 1554.57 Q1179.39 1548.24 1176.65 1544.55 Q1173.91 1540.82 1169.24 1540.82 M1169.24 1535.86 Q1176.87 1535.86 1181.23 1540.82 Q1185.6 1545.79 1185.6 1554.57 Q1185.6 1563.32 1181.23 1568.32 Q1176.87 1573.29 1169.24 1573.29 Q1161.56 1573.29 1157.2 1568.32 Q1152.88 1563.32 1152.88 1554.57 Q1152.88 1545.79 1157.2 1540.82 Q1161.56 1535.86 1169.24 1535.86 Z" fill="#000000" fill-rule="nonzero" fill-opacity="1" /><path clip-path="url(#clip520)" d="M1215.96 1542.19 Q1214.97 1541.62 1213.8 1541.36 Q1212.65 1541.08 1211.25 1541.08 Q1206.28 1541.08 1203.61 1544.32 Q1200.97 1547.54 1200.97 1553.59 L1200.97 1572.36 L1195.08 1572.36 L1195.08 1536.72 L1200.97 1536.72 L1200.97 1542.25 Q1202.81 1539.01 1205.77 1537.45 Q1208.73 1535.86 1212.97 1535.86 Q1213.57 1535.86 1214.3 1535.95 Q1215.04 1536.02 1215.93 1536.17 L1215.96 1542.19 Z" fill="#000000" fill-rule="nonzero" fill-opacity="1" /><path clip-path="url(#clip520)" d="M1256.64 1540.82 Q1251.93 1540.82 1249.19 1544.51 Q1246.45 1548.17 1246.45 1554.57 Q1246.45 1560.97 1249.16 1564.66 Q1251.89 1568.32 1256.64 1568.32 Q1261.32 1568.32 1264.05 1564.63 Q1266.79 1560.94 1266.79 1554.57 Q1266.79 1548.24 1264.05 1544.55 Q1261.32 1540.82 1256.64 1540.82 M1256.64 1535.86 Q1264.28 1535.86 1268.64 1540.82 Q1273 1545.79 1273 1554.57 Q1273 1563.32 1268.64 1568.32 Q1264.28 1573.29 1256.64 1573.29 Q1248.97 1573.29 1244.61 1568.32 Q1240.28 1563.32 1240.28 1554.57 Q1240.28 1545.79 1244.61 1540.82 Q1248.97 1535.86 1256.64 1535.86 Z" fill="#000000" fill-rule="nonzero" fill-opacity="1" /><path clip-path="url(#clip520)" d="M1300.75 1522.84 L1300.75 1527.71 L1295.15 1527.71 Q1292 1527.71 1290.76 1528.98 Q1289.55 1530.25 1289.55 1533.56 L1289.55 1536.72 L1299.19 1536.72 L1299.19 1541.27 L1289.55 1541.27 L1289.55 1572.36 L1283.66 1572.36 L1283.66 1541.27 L1278.06 1541.27 L1278.06 1536.72 L1283.66 1536.72 L1283.66 1534.23 Q1283.66 1528.28 1286.43 1525.58 Q1289.2 1522.84 1295.21 1522.84 L1300.75 1522.84 Z" fill="#000000" fill-rule="nonzero" fill-opacity="1" /><path clip-path="url(#clip520)" d="M1332.17 1526.59 L1332.17 1536.72 L1344.23 1536.72 L1344.23 1541.27 L1332.17 1541.27 L1332.17 1560.62 Q1332.17 1564.98 1333.34 1566.22 Q1334.55 1567.46 1338.21 1567.46 L1344.23 1567.46 L1344.23 1572.36 L1338.21 1572.36 Q1331.43 1572.36 1328.86 1569.85 Q1326.28 1567.3 1326.28 1560.62 L1326.28 1541.27 L1321.98 1541.27 L1321.98 1536.72 L1326.28 1536.72 L1326.28 1526.59 L1332.17 1526.59 Z" fill="#000000" fill-rule="nonzero" fill-opacity="1" /><path clip-path="url(#clip520)" d="M1381.56 1550.85 L1381.56 1572.36 L1375.71 1572.36 L1375.71 1551.04 Q1375.71 1545.98 1373.73 1543.46 Q1371.76 1540.95 1367.81 1540.95 Q1363.07 1540.95 1360.33 1543.97 Q1357.6 1547 1357.6 1552.22 L1357.6 1572.36 L1351.71 1572.36 L1351.71 1522.84 L1357.6 1522.84 L1357.6 1542.25 Q1359.7 1539.04 1362.53 1537.45 Q1365.39 1535.86 1369.12 1535.86 Q1375.26 1535.86 1378.41 1539.68 Q1381.56 1543.46 1381.56 1550.85 Z" fill="#000000" fill-rule="nonzero" fill-opacity="1" /><path clip-path="url(#clip520)" d="M1423.74 1553.08 L1423.74 1555.94 L1396.81 1555.94 Q1397.19 1561.99 1400.44 1565.17 Q1403.72 1568.32 1409.54 1568.32 Q1412.91 1568.32 1416.07 1567.49 Q1419.25 1566.67 1422.37 1565.01 L1422.37 1570.55 Q1419.22 1571.89 1415.91 1572.59 Q1412.6 1573.29 1409.19 1573.29 Q1400.66 1573.29 1395.66 1568.32 Q1390.7 1563.36 1390.7 1554.89 Q1390.7 1546.14 1395.41 1541.01 Q1400.15 1535.86 1408.17 1535.86 Q1415.37 1535.86 1419.54 1540.5 Q1423.74 1545.12 1423.74 1553.08 M1417.88 1551.36 Q1417.82 1546.55 1415.17 1543.69 Q1412.56 1540.82 1408.24 1540.82 Q1403.33 1540.82 1400.37 1543.59 Q1397.45 1546.36 1397 1551.39 L1417.88 1551.36 Z" fill="#000000" fill-rule="nonzero" fill-opacity="1" /><path clip-path="url(#clip520)" d="M1479.66 1554.57 Q1479.66 1548.11 1476.99 1544.45 Q1474.34 1540.76 1469.7 1540.76 Q1465.05 1540.76 1462.38 1544.45 Q1459.73 1548.11 1459.73 1554.57 Q1459.73 1561.03 1462.38 1564.72 Q1465.05 1568.39 1469.7 1568.39 Q1474.34 1568.39 1476.99 1564.72 Q1479.66 1561.03 1479.66 1554.57 M1459.73 1542.13 Q1461.58 1538.94 1464.38 1537.42 Q1467.21 1535.86 1471.13 1535.86 Q1477.62 1535.86 1481.66 1541.01 Q1485.74 1546.17 1485.74 1554.57 Q1485.74 1562.97 1481.66 1568.13 Q1477.62 1573.29 1471.13 1573.29 Q1467.21 1573.29 1464.38 1571.76 Q1461.58 1570.2 1459.73 1567.02 L1459.73 1572.36 L1453.85 1572.36 L1453.85 1522.84 L1459.73 1522.84 L1459.73 1542.13 Z" fill="#000000" fill-rule="nonzero" fill-opacity="1" /><path clip-path="url(#clip520)" d="M1525.94 1553.08 L1525.94 1555.94 L1499.01 1555.94 Q1499.39 1561.99 1502.64 1565.17 Q1505.92 1568.32 1511.74 1568.32 Q1515.12 1568.32 1518.27 1567.49 Q1521.45 1566.67 1524.57 1565.01 L1524.57 1570.55 Q1521.42 1571.89 1518.11 1572.59 Q1514.8 1573.29 1511.39 1573.29 Q1502.86 1573.29 1497.87 1568.32 Q1492.9 1563.36 1492.9 1554.89 Q1492.9 1546.14 1497.61 1541.01 Q1502.35 1535.86 1510.37 1535.86 Q1517.57 1535.86 1521.74 1540.5 Q1525.94 1545.12 1525.94 1553.08 M1520.08 1551.36 Q1520.02 1546.55 1517.38 1543.69 Q1514.77 1540.82 1510.44 1540.82 Q1505.54 1540.82 1502.58 1543.59 Q1499.65 1546.36 1499.2 1551.39 L1520.08 1551.36 Z" fill="#000000" fill-rule="nonzero" fill-opacity="1" /><path clip-path="url(#clip520)" d="M1558.28 1537.77 L1558.28 1543.3 Q1555.79 1542.03 1553.12 1541.39 Q1550.45 1540.76 1547.58 1540.76 Q1543.22 1540.76 1541.02 1542.09 Q1538.86 1543.43 1538.86 1546.11 Q1538.86 1548.14 1540.42 1549.32 Q1541.98 1550.47 1546.69 1551.52 L1548.7 1551.96 Q1554.93 1553.3 1557.54 1555.75 Q1560.19 1558.17 1560.19 1562.53 Q1560.19 1567.49 1556.24 1570.39 Q1552.32 1573.29 1545.45 1573.29 Q1542.58 1573.29 1539.47 1572.71 Q1536.38 1572.17 1532.94 1571.06 L1532.94 1565.01 Q1536.19 1566.7 1539.34 1567.56 Q1542.49 1568.39 1545.58 1568.39 Q1549.71 1568.39 1551.94 1566.98 Q1554.17 1565.55 1554.17 1562.97 Q1554.17 1560.59 1552.55 1559.31 Q1550.96 1558.04 1545.51 1556.86 L1543.48 1556.39 Q1538.03 1555.24 1535.61 1552.88 Q1533.19 1550.5 1533.19 1546.36 Q1533.19 1541.33 1536.76 1538.59 Q1540.32 1535.86 1546.88 1535.86 Q1550.13 1535.86 1552.99 1536.33 Q1555.86 1536.81 1558.28 1537.77 Z" fill="#000000" fill-rule="nonzero" fill-opacity="1" /><path clip-path="url(#clip520)" d="M1575.3 1526.59 L1575.3 1536.72 L1587.37 1536.72 L1587.37 1541.27 L1575.3 1541.27 L1575.3 1560.62 Q1575.3 1564.98 1576.48 1566.22 Q1577.69 1567.46 1581.35 1567.46 L1587.37 1567.46 L1587.37 1572.36 L1581.35 1572.36 Q1574.57 1572.36 1571.99 1569.85 Q1569.42 1567.3 1569.42 1560.62 L1569.42 1541.27 L1565.12 1541.27 L1565.12 1536.72 L1569.42 1536.72 L1569.42 1526.59 L1575.3 1526.59 Z" fill="#000000" fill-rule="nonzero" fill-opacity="1" /><path clip-path="url(#clip520)" d="M1629.86 1522.9 Q1625.59 1530.22 1623.52 1537.38 Q1621.46 1544.55 1621.46 1551.9 Q1621.46 1559.25 1623.52 1566.48 Q1625.62 1573.67 1629.86 1580.96 L1624.77 1580.96 Q1619.99 1573.48 1617.6 1566.25 Q1615.25 1559.03 1615.25 1551.9 Q1615.25 1544.8 1617.6 1537.61 Q1619.96 1530.41 1624.77 1522.9 L1629.86 1522.9 Z" fill="#000000" fill-rule="nonzero" fill-opacity="1" /><path clip-path="url(#clip520)" d="M1641.22 1522.84 L1647.08 1522.84 L1647.08 1572.36 L1641.22 1572.36 L1641.22 1522.84 Z" fill="#000000" fill-rule="nonzero" fill-opacity="1" /><path clip-path="url(#clip520)" d="M1673.14 1540.82 Q1668.43 1540.82 1665.7 1544.51 Q1662.96 1548.17 1662.96 1554.57 Q1662.96 1560.97 1665.67 1564.66 Q1668.4 1568.32 1673.14 1568.32 Q1677.82 1568.32 1680.56 1564.63 Q1683.3 1560.94 1683.3 1554.57 Q1683.3 1548.24 1680.56 1544.55 Q1677.82 1540.82 1673.14 1540.82 M1673.14 1535.86 Q1680.78 1535.86 1685.14 1540.82 Q1689.5 1545.79 1689.5 1554.57 Q1689.5 1563.32 1685.14 1568.32 Q1680.78 1573.29 1673.14 1573.29 Q1665.47 1573.29 1661.11 1568.32 Q1656.79 1563.32 1656.79 1554.57 Q1656.79 1545.79 1661.11 1540.82 Q1665.47 1535.86 1673.14 1535.86 Z" fill="#000000" fill-rule="nonzero" fill-opacity="1" /><path clip-path="url(#clip520)" d="M1722.67 1554.13 Q1722.67 1547.76 1720.03 1544.26 Q1717.42 1540.76 1712.68 1540.76 Q1707.97 1540.76 1705.32 1544.26 Q1702.71 1547.76 1702.71 1554.13 Q1702.71 1560.46 1705.32 1563.96 Q1707.97 1567.46 1712.68 1567.46 Q1717.42 1567.46 1720.03 1563.96 Q1722.67 1560.46 1722.67 1554.13 M1728.53 1567.94 Q1728.53 1577.04 1724.48 1581.47 Q1720.44 1585.92 1712.1 1585.92 Q1709.02 1585.92 1706.28 1585.45 Q1703.54 1585 1700.96 1584.04 L1700.96 1578.35 Q1703.54 1579.75 1706.06 1580.42 Q1708.57 1581.08 1711.18 1581.08 Q1716.94 1581.08 1719.81 1578.06 Q1722.67 1575.07 1722.67 1568.99 L1722.67 1566.09 Q1720.86 1569.24 1718.02 1570.8 Q1715.19 1572.36 1711.24 1572.36 Q1704.69 1572.36 1700.68 1567.37 Q1696.67 1562.37 1696.67 1554.13 Q1696.67 1545.85 1700.68 1540.85 Q1704.69 1535.86 1711.24 1535.86 Q1715.19 1535.86 1718.02 1537.42 Q1720.86 1538.98 1722.67 1542.13 L1722.67 1536.72 L1728.53 1536.72 L1728.53 1567.94 Z" fill="#000000" fill-rule="nonzero" fill-opacity="1" /><path clip-path="url(#clip520)" d="M1784.04 1537.77 L1784.04 1543.3 Q1781.55 1542.03 1778.88 1541.39 Q1776.21 1540.76 1773.34 1540.76 Q1768.98 1540.76 1766.78 1542.09 Q1764.62 1543.43 1764.62 1546.11 Q1764.62 1548.14 1766.18 1549.32 Q1767.74 1550.47 1772.45 1551.52 L1774.46 1551.96 Q1780.69 1553.3 1783.3 1555.75 Q1785.95 1558.17 1785.95 1562.53 Q1785.95 1567.49 1782 1570.39 Q1778.08 1573.29 1771.21 1573.29 Q1768.34 1573.29 1765.22 1572.71 Q1762.14 1572.17 1758.7 1571.06 L1758.7 1565.01 Q1761.95 1566.7 1765.1 1567.56 Q1768.25 1568.39 1771.34 1568.39 Q1775.47 1568.39 1777.7 1566.98 Q1779.93 1565.55 1779.93 1562.97 Q1779.93 1560.59 1778.31 1559.31 Q1776.71 1558.04 1771.27 1556.86 L1769.24 1556.39 Q1763.79 1555.24 1761.37 1552.88 Q1758.95 1550.5 1758.95 1546.36 Q1758.95 1541.33 1762.52 1538.59 Q1766.08 1535.86 1772.64 1535.86 Q1775.89 1535.86 1778.75 1536.33 Q1781.62 1536.81 1784.04 1537.77 Z" fill="#000000" fill-rule="nonzero" fill-opacity="1" /><path clip-path="url(#clip520)" d="M1820.92 1538.08 L1820.92 1543.56 Q1818.44 1542.19 1815.93 1541.52 Q1813.45 1540.82 1810.9 1540.82 Q1805.2 1540.82 1802.05 1544.45 Q1798.9 1548.05 1798.9 1554.57 Q1798.9 1561.1 1802.05 1564.72 Q1805.2 1568.32 1810.9 1568.32 Q1813.45 1568.32 1815.93 1567.65 Q1818.44 1566.95 1820.92 1565.58 L1820.92 1571 Q1818.47 1572.14 1815.83 1572.71 Q1813.22 1573.29 1810.26 1573.29 Q1802.21 1573.29 1797.47 1568.23 Q1792.72 1563.17 1792.72 1554.57 Q1792.72 1545.85 1797.5 1540.85 Q1802.31 1535.86 1810.64 1535.86 Q1813.35 1535.86 1815.93 1536.43 Q1818.51 1536.97 1820.92 1538.08 Z" fill="#000000" fill-rule="nonzero" fill-opacity="1" /><path clip-path="url(#clip520)" d="M1847.31 1554.44 Q1840.21 1554.44 1837.48 1556.07 Q1834.74 1557.69 1834.74 1561.61 Q1834.74 1564.72 1836.78 1566.57 Q1838.84 1568.39 1842.38 1568.39 Q1847.25 1568.39 1850.18 1564.95 Q1853.14 1561.48 1853.14 1555.75 L1853.14 1554.44 L1847.31 1554.44 M1858.99 1552.03 L1858.99 1572.36 L1853.14 1572.36 L1853.14 1566.95 Q1851.13 1570.2 1848.14 1571.76 Q1845.15 1573.29 1840.82 1573.29 Q1835.34 1573.29 1832.1 1570.23 Q1828.88 1567.14 1828.88 1561.99 Q1828.88 1555.97 1832.89 1552.92 Q1836.93 1549.86 1844.92 1549.86 L1853.14 1549.86 L1853.14 1549.29 Q1853.14 1545.25 1850.46 1543.05 Q1847.82 1540.82 1843.01 1540.82 Q1839.96 1540.82 1837.06 1541.55 Q1834.17 1542.29 1831.49 1543.75 L1831.49 1538.34 Q1834.71 1537.1 1837.73 1536.49 Q1840.75 1535.86 1843.62 1535.86 Q1851.35 1535.86 1855.17 1539.87 Q1858.99 1543.88 1858.99 1552.03 Z" fill="#000000" fill-rule="nonzero" fill-opacity="1" /><path clip-path="url(#clip520)" d="M1871.05 1522.84 L1876.91 1522.84 L1876.91 1572.36 L1871.05 1572.36 L1871.05 1522.84 Z" fill="#000000" fill-rule="nonzero" fill-opacity="1" /><path clip-path="url(#clip520)" d="M1919.66 1553.08 L1919.66 1555.94 L1892.73 1555.94 Q1893.11 1561.99 1896.36 1565.17 Q1899.64 1568.32 1905.46 1568.32 Q1908.84 1568.32 1911.99 1567.49 Q1915.17 1566.67 1918.29 1565.01 L1918.29 1570.55 Q1915.14 1571.89 1911.83 1572.59 Q1908.52 1573.29 1905.11 1573.29 Q1896.58 1573.29 1891.58 1568.32 Q1886.62 1563.36 1886.62 1554.89 Q1886.62 1546.14 1891.33 1541.01 Q1896.07 1535.86 1904.09 1535.86 Q1911.29 1535.86 1915.46 1540.5 Q1919.66 1545.12 1919.66 1553.08 M1913.8 1551.36 Q1913.74 1546.55 1911.1 1543.69 Q1908.49 1540.82 1904.16 1540.82 Q1899.25 1540.82 1896.29 1543.59 Q1893.37 1546.36 1892.92 1551.39 L1913.8 1551.36 Z" fill="#000000" fill-rule="nonzero" fill-opacity="1" /><path clip-path="url(#clip520)" d="M1928.35 1522.9 L1933.44 1522.9 Q1938.21 1530.41 1940.57 1537.61 Q1942.96 1544.8 1942.96 1551.9 Q1942.96 1559.03 1940.57 1566.25 Q1938.21 1573.48 1933.44 1580.96 L1928.35 1580.96 Q1932.58 1573.67 1934.65 1566.48 Q1936.75 1559.25 1936.75 1551.9 Q1936.75 1544.55 1934.65 1537.38 Q1932.58 1530.22 1928.35 1522.9 Z" fill="#000000" fill-rule="nonzero" fill-opacity="1" /><polyline clip-path="url(#clip520)" style="stroke:#000000; stroke-linecap:round; stroke-linejoin:round; stroke-width:4; stroke-opacity:1; fill:none" points="249.542,1414.54 249.542,123.472 "/>
<polyline clip-path="url(#clip520)" style="stroke:#000000; stroke-linecap:round; stroke-linejoin:round; stroke-width:4; stroke-opacity:1; fill:none" points="249.542,1414.54 268.44,1414.54 "/>
<polyline clip-path="url(#clip520)" style="stroke:#000000; stroke-linecap:round; stroke-linejoin:round; stroke-width:4; stroke-opacity:1; fill:none" points="249.542,1121.12 268.44,1121.12 "/>
<polyline clip-path="url(#clip520)" style="stroke:#000000; stroke-linecap:round; stroke-linejoin:round; stroke-width:4; stroke-opacity:1; fill:none" points="249.542,827.691 268.44,827.691 "/>
<polyline clip-path="url(#clip520)" style="stroke:#000000; stroke-linecap:round; stroke-linejoin:round; stroke-width:4; stroke-opacity:1; fill:none" points="249.542,534.266 268.44,534.266 "/>
<polyline clip-path="url(#clip520)" style="stroke:#000000; stroke-linecap:round; stroke-linejoin:round; stroke-width:4; stroke-opacity:1; fill:none" points="249.542,240.842 268.44,240.842 "/>
<path clip-path="url(#clip520)" d="M126.205 1400.34 Q122.593 1400.34 120.765 1403.9 Q118.959 1407.44 118.959 1414.57 Q118.959 1421.68 120.765 1425.25 Q122.593 1428.79 126.205 1428.79 Q129.839 1428.79 131.644 1425.25 Q133.473 1421.68 133.473 1414.57 Q133.473 1407.44 131.644 1403.9 Q129.839 1400.34 126.205 1400.34 M126.205 1396.63 Q132.015 1396.63 135.07 1401.24 Q138.149 1405.82 138.149 1414.57 Q138.149 1423.3 135.07 1427.91 Q132.015 1432.49 126.205 1432.49 Q120.394 1432.49 117.316 1427.91 Q114.26 1423.3 114.26 1414.57 Q114.26 1405.82 117.316 1401.24 Q120.394 1396.63 126.205 1396.63 Z" fill="#000000" fill-rule="nonzero" fill-opacity="1" /><path clip-path="url(#clip520)" d="M146.366 1425.94 L151.251 1425.94 L151.251 1431.82 L146.366 1431.82 L146.366 1425.94 Z" fill="#000000" fill-rule="nonzero" fill-opacity="1" /><path clip-path="url(#clip520)" d="M171.436 1400.34 Q167.825 1400.34 165.996 1403.9 Q164.19 1407.44 164.19 1414.57 Q164.19 1421.68 165.996 1425.25 Q167.825 1428.79 171.436 1428.79 Q175.07 1428.79 176.876 1425.25 Q178.704 1421.68 178.704 1414.57 Q178.704 1407.44 176.876 1403.9 Q175.07 1400.34 171.436 1400.34 M171.436 1396.63 Q177.246 1396.63 180.301 1401.24 Q183.38 1405.82 183.38 1414.57 Q183.38 1423.3 180.301 1427.91 Q177.246 1432.49 171.436 1432.49 Q165.626 1432.49 162.547 1427.91 Q159.491 1423.3 159.491 1414.57 Q159.491 1405.82 162.547 1401.24 Q165.626 1396.63 171.436 1396.63 Z" fill="#000000" fill-rule="nonzero" fill-opacity="1" /><path clip-path="url(#clip520)" d="M201.598 1400.34 Q197.987 1400.34 196.158 1403.9 Q194.352 1407.44 194.352 1414.57 Q194.352 1421.68 196.158 1425.25 Q197.987 1428.79 201.598 1428.79 Q205.232 1428.79 207.037 1425.25 Q208.866 1421.68 208.866 1414.57 Q208.866 1407.44 207.037 1403.9 Q205.232 1400.34 201.598 1400.34 M201.598 1396.63 Q207.408 1396.63 210.463 1401.24 Q213.542 1405.82 213.542 1414.57 Q213.542 1423.3 210.463 1427.91 Q207.408 1432.49 201.598 1432.49 Q195.787 1432.49 192.709 1427.91 Q189.653 1423.3 189.653 1414.57 Q189.653 1405.82 192.709 1401.24 Q195.787 1396.63 201.598 1396.63 Z" fill="#000000" fill-rule="nonzero" fill-opacity="1" /><path clip-path="url(#clip520)" d="M127.2 1106.91 Q123.589 1106.91 121.76 1110.48 Q119.955 1114.02 119.955 1121.15 Q119.955 1128.26 121.76 1131.82 Q123.589 1135.36 127.2 1135.36 Q130.834 1135.36 132.64 1131.82 Q134.468 1128.26 134.468 1121.15 Q134.468 1114.02 132.64 1110.48 Q130.834 1106.91 127.2 1106.91 M127.2 1103.21 Q133.01 1103.21 136.066 1107.82 Q139.144 1112.4 139.144 1121.15 Q139.144 1129.88 136.066 1134.48 Q133.01 1139.07 127.2 1139.07 Q121.39 1139.07 118.311 1134.48 Q115.256 1129.88 115.256 1121.15 Q115.256 1112.4 118.311 1107.82 Q121.39 1103.21 127.2 1103.21 Z" fill="#000000" fill-rule="nonzero" fill-opacity="1" /><path clip-path="url(#clip520)" d="M147.362 1132.52 L152.246 1132.52 L152.246 1138.4 L147.362 1138.4 L147.362 1132.52 Z" fill="#000000" fill-rule="nonzero" fill-opacity="1" /><path clip-path="url(#clip520)" d="M166.459 1134.46 L182.778 1134.46 L182.778 1138.4 L160.834 1138.4 L160.834 1134.46 Q163.496 1131.71 168.079 1127.08 Q172.686 1122.42 173.866 1121.08 Q176.112 1118.56 176.991 1116.82 Q177.894 1115.06 177.894 1113.37 Q177.894 1110.62 175.95 1108.88 Q174.028 1107.15 170.927 1107.15 Q168.727 1107.15 166.274 1107.91 Q163.843 1108.67 161.065 1110.22 L161.065 1105.5 Q163.89 1104.37 166.343 1103.79 Q168.797 1103.21 170.834 1103.21 Q176.204 1103.21 179.399 1105.9 Q182.593 1108.58 182.593 1113.07 Q182.593 1115.2 181.783 1117.12 Q180.996 1119.02 178.889 1121.61 Q178.311 1122.28 175.209 1125.5 Q172.107 1128.7 166.459 1134.46 Z" fill="#000000" fill-rule="nonzero" fill-opacity="1" /><path clip-path="url(#clip520)" d="M192.639 1103.84 L210.996 1103.84 L210.996 1107.77 L196.922 1107.77 L196.922 1116.24 Q197.94 1115.9 198.959 1115.73 Q199.977 1115.55 200.996 1115.55 Q206.783 1115.55 210.162 1118.72 Q213.542 1121.89 213.542 1127.31 Q213.542 1132.89 210.07 1135.99 Q206.598 1139.07 200.278 1139.07 Q198.102 1139.07 195.834 1138.7 Q193.588 1138.33 191.181 1137.59 L191.181 1132.89 Q193.264 1134.02 195.487 1134.58 Q197.709 1135.13 200.186 1135.13 Q204.19 1135.13 206.528 1133.03 Q208.866 1130.92 208.866 1127.31 Q208.866 1123.7 206.528 1121.59 Q204.19 1119.48 200.186 1119.48 Q198.311 1119.48 196.436 1119.9 Q194.584 1120.32 192.639 1121.2 L192.639 1103.84 Z" fill="#000000" fill-rule="nonzero" fill-opacity="1" /><path clip-path="url(#clip520)" d="M126.205 813.49 Q122.593 813.49 120.765 817.054 Q118.959 820.596 118.959 827.726 Q118.959 834.832 120.765 838.397 Q122.593 841.938 126.205 841.938 Q129.839 841.938 131.644 838.397 Q133.473 834.832 133.473 827.726 Q133.473 820.596 131.644 817.054 Q129.839 813.49 126.205 813.49 M126.205 809.786 Q132.015 809.786 135.07 814.392 Q138.149 818.976 138.149 827.726 Q138.149 836.452 135.07 841.059 Q132.015 845.642 126.205 845.642 Q120.394 845.642 117.316 841.059 Q114.26 836.452 114.26 827.726 Q114.26 818.976 117.316 814.392 Q120.394 809.786 126.205 809.786 Z" fill="#000000" fill-rule="nonzero" fill-opacity="1" /><path clip-path="url(#clip520)" d="M146.366 839.091 L151.251 839.091 L151.251 844.971 L146.366 844.971 L146.366 839.091 Z" fill="#000000" fill-rule="nonzero" fill-opacity="1" /><path clip-path="url(#clip520)" d="M161.482 810.411 L179.839 810.411 L179.839 814.346 L165.765 814.346 L165.765 822.818 Q166.783 822.471 167.802 822.309 Q168.82 822.124 169.839 822.124 Q175.626 822.124 179.005 825.295 Q182.385 828.466 182.385 833.883 Q182.385 839.462 178.913 842.563 Q175.44 845.642 169.121 845.642 Q166.945 845.642 164.677 845.272 Q162.431 844.901 160.024 844.161 L160.024 839.462 Q162.107 840.596 164.329 841.151 Q166.552 841.707 169.028 841.707 Q173.033 841.707 175.371 839.601 Q177.709 837.494 177.709 833.883 Q177.709 830.272 175.371 828.165 Q173.033 826.059 169.028 826.059 Q167.153 826.059 165.278 826.476 Q163.427 826.892 161.482 827.772 L161.482 810.411 Z" fill="#000000" fill-rule="nonzero" fill-opacity="1" /><path clip-path="url(#clip520)" d="M201.598 813.49 Q197.987 813.49 196.158 817.054 Q194.352 820.596 194.352 827.726 Q194.352 834.832 196.158 838.397 Q197.987 841.938 201.598 841.938 Q205.232 841.938 207.037 838.397 Q208.866 834.832 208.866 827.726 Q208.866 820.596 207.037 817.054 Q205.232 813.49 201.598 813.49 M201.598 809.786 Q207.408 809.786 210.463 814.392 Q213.542 818.976 213.542 827.726 Q213.542 836.452 210.463 841.059 Q207.408 845.642 201.598 845.642 Q195.787 845.642 192.709 841.059 Q189.653 836.452 189.653 827.726 Q189.653 818.976 192.709 814.392 Q195.787 809.786 201.598 809.786 Z" fill="#000000" fill-rule="nonzero" fill-opacity="1" /><path clip-path="url(#clip520)" d="M127.2 520.065 Q123.589 520.065 121.76 523.63 Q119.955 527.172 119.955 534.301 Q119.955 541.408 121.76 544.972 Q123.589 548.514 127.2 548.514 Q130.834 548.514 132.64 544.972 Q134.468 541.408 134.468 534.301 Q134.468 527.172 132.64 523.63 Q130.834 520.065 127.2 520.065 M127.2 516.361 Q133.01 516.361 136.066 520.968 Q139.144 525.551 139.144 534.301 Q139.144 543.028 136.066 547.634 Q133.01 552.218 127.2 552.218 Q121.39 552.218 118.311 547.634 Q115.256 543.028 115.256 534.301 Q115.256 525.551 118.311 520.968 Q121.39 516.361 127.2 516.361 Z" fill="#000000" fill-rule="nonzero" fill-opacity="1" /><path clip-path="url(#clip520)" d="M147.362 545.667 L152.246 545.667 L152.246 551.546 L147.362 551.546 L147.362 545.667 Z" fill="#000000" fill-rule="nonzero" fill-opacity="1" /><path clip-path="url(#clip520)" d="M161.251 516.986 L183.473 516.986 L183.473 518.977 L170.927 551.546 L166.042 551.546 L177.848 520.922 L161.251 520.922 L161.251 516.986 Z" fill="#000000" fill-rule="nonzero" fill-opacity="1" /><path clip-path="url(#clip520)" d="M192.639 516.986 L210.996 516.986 L210.996 520.922 L196.922 520.922 L196.922 529.394 Q197.94 529.047 198.959 528.884 Q199.977 528.699 200.996 528.699 Q206.783 528.699 210.162 531.871 Q213.542 535.042 213.542 540.458 Q213.542 546.037 210.07 549.139 Q206.598 552.218 200.278 552.218 Q198.102 552.218 195.834 551.847 Q193.588 551.477 191.181 550.736 L191.181 546.037 Q193.264 547.171 195.487 547.727 Q197.709 548.283 200.186 548.283 Q204.19 548.283 206.528 546.176 Q208.866 544.07 208.866 540.458 Q208.866 536.847 206.528 534.741 Q204.19 532.634 200.186 532.634 Q198.311 532.634 196.436 533.051 Q194.584 533.468 192.639 534.347 L192.639 516.986 Z" fill="#000000" fill-rule="nonzero" fill-opacity="1" /><path clip-path="url(#clip520)" d="M117.015 254.187 L124.654 254.187 L124.654 227.821 L116.343 229.488 L116.343 225.229 L124.607 223.562 L129.283 223.562 L129.283 254.187 L136.922 254.187 L136.922 258.122 L117.015 258.122 L117.015 254.187 Z" fill="#000000" fill-rule="nonzero" fill-opacity="1" /><path clip-path="url(#clip520)" d="M146.366 252.242 L151.251 252.242 L151.251 258.122 L146.366 258.122 L146.366 252.242 Z" fill="#000000" fill-rule="nonzero" fill-opacity="1" /><path clip-path="url(#clip520)" d="M171.436 226.641 Q167.825 226.641 165.996 230.205 Q164.19 233.747 164.19 240.877 Q164.19 247.983 165.996 251.548 Q167.825 255.09 171.436 255.09 Q175.07 255.09 176.876 251.548 Q178.704 247.983 178.704 240.877 Q178.704 233.747 176.876 230.205 Q175.07 226.641 171.436 226.641 M171.436 222.937 Q177.246 222.937 180.301 227.543 Q183.38 232.127 183.38 240.877 Q183.38 249.603 180.301 254.21 Q177.246 258.793 171.436 258.793 Q165.626 258.793 162.547 254.21 Q159.491 249.603 159.491 240.877 Q159.491 232.127 162.547 227.543 Q165.626 222.937 171.436 222.937 Z" fill="#000000" fill-rule="nonzero" fill-opacity="1" /><path clip-path="url(#clip520)" d="M201.598 226.641 Q197.987 226.641 196.158 230.205 Q194.352 233.747 194.352 240.877 Q194.352 247.983 196.158 251.548 Q197.987 255.09 201.598 255.09 Q205.232 255.09 207.037 251.548 Q208.866 247.983 208.866 240.877 Q208.866 233.747 207.037 230.205 Q205.232 226.641 201.598 226.641 M201.598 222.937 Q207.408 222.937 210.463 227.543 Q213.542 232.127 213.542 240.877 Q213.542 249.603 210.463 254.21 Q207.408 258.793 201.598 258.793 Q195.787 258.793 192.709 254.21 Q189.653 249.603 189.653 240.877 Q189.653 232.127 192.709 227.543 Q195.787 222.937 201.598 222.937 Z" fill="#000000" fill-rule="nonzero" fill-opacity="1" /><path clip-path="url(#clip520)" d="M21.7677 1129.93 L39.6235 1129.93 L39.6235 1121.84 Q39.6235 1117.35 37.3 1114.9 Q34.9765 1112.45 30.6797 1112.45 Q26.4147 1112.45 24.0912 1114.9 Q21.7677 1117.35 21.7677 1121.84 L21.7677 1129.93 M16.4842 1136.35 L16.4842 1121.84 Q16.4842 1113.85 20.1126 1109.78 Q23.7092 1105.67 30.6797 1105.67 Q37.7138 1105.67 41.3104 1109.78 Q44.907 1113.85 44.907 1121.84 L44.907 1129.93 L64.0042 1129.93 L64.0042 1136.35 L16.4842 1136.35 Z" fill="#000000" fill-rule="nonzero" fill-opacity="1" /><path clip-path="url(#clip520)" d="M33.8307 1077.79 Q33.2578 1078.78 33.0032 1079.95 Q32.7167 1081.1 32.7167 1082.5 Q32.7167 1087.47 35.9632 1090.14 Q39.1779 1092.78 45.2253 1092.78 L64.0042 1092.78 L64.0042 1098.67 L28.3562 1098.67 L28.3562 1092.78 L33.8944 1092.78 Q30.6479 1090.94 29.0883 1087.98 Q27.4968 1085.02 27.4968 1080.78 Q27.4968 1080.18 27.5923 1079.45 Q27.656 1078.71 27.8151 1077.82 L33.8307 1077.79 Z" fill="#000000" fill-rule="nonzero" fill-opacity="1" /><path clip-path="url(#clip520)" d="M32.4621 1059.27 Q32.4621 1063.98 36.1542 1066.71 Q39.8145 1069.45 46.212 1069.45 Q52.6095 1069.45 56.3017 1066.75 Q59.9619 1064.01 59.9619 1059.27 Q59.9619 1054.59 56.2698 1051.85 Q52.5777 1049.11 46.212 1049.11 Q39.8781 1049.11 36.186 1051.85 Q32.4621 1054.59 32.4621 1059.27 M27.4968 1059.27 Q27.4968 1051.63 32.4621 1047.27 Q37.4273 1042.91 46.212 1042.91 Q54.9649 1042.91 59.9619 1047.27 Q64.9272 1051.63 64.9272 1059.27 Q64.9272 1066.94 59.9619 1071.3 Q54.9649 1075.63 46.212 1075.63 Q37.4273 1075.63 32.4621 1071.3 Q27.4968 1066.94 27.4968 1059.27 Z" fill="#000000" fill-rule="nonzero" fill-opacity="1" /><path clip-path="url(#clip520)" d="M58.657 1027.53 L77.5631 1027.53 L77.5631 1033.42 L28.3562 1033.42 L28.3562 1027.53 L33.7671 1027.53 Q30.5842 1025.69 29.0564 1022.89 Q27.4968 1020.05 27.4968 1016.14 Q27.4968 1009.65 32.6531 1005.6 Q37.8093 1001.53 46.212 1001.53 Q54.6147 1001.53 59.771 1005.6 Q64.9272 1009.65 64.9272 1016.14 Q64.9272 1020.05 63.3994 1022.89 Q61.8398 1025.69 58.657 1027.53 M46.212 1007.61 Q39.7508 1007.61 36.0905 1010.28 Q32.3984 1012.92 32.3984 1017.57 Q32.3984 1022.22 36.0905 1024.89 Q39.7508 1027.53 46.212 1027.53 Q52.6732 1027.53 56.3653 1024.89 Q60.0256 1022.22 60.0256 1017.57 Q60.0256 1012.92 56.3653 1010.28 Q52.6732 1007.61 46.212 1007.61 Z" fill="#000000" fill-rule="nonzero" fill-opacity="1" /><path clip-path="url(#clip520)" d="M32.4621 978.008 Q32.4621 982.719 36.1542 985.456 Q39.8145 988.193 46.212 988.193 Q52.6095 988.193 56.3017 985.488 Q59.9619 982.75 59.9619 978.008 Q59.9619 973.329 56.2698 970.592 Q52.5777 967.855 46.212 967.855 Q39.8781 967.855 36.186 970.592 Q32.4621 973.329 32.4621 978.008 M27.4968 978.008 Q27.4968 970.369 32.4621 966.009 Q37.4273 961.648 46.212 961.648 Q54.9649 961.648 59.9619 966.009 Q64.9272 970.369 64.9272 978.008 Q64.9272 985.679 59.9619 990.039 Q54.9649 994.368 46.212 994.368 Q37.4273 994.368 32.4621 990.039 Q27.4968 985.679 27.4968 978.008 Z" fill="#000000" fill-rule="nonzero" fill-opacity="1" /><path clip-path="url(#clip520)" d="M33.8307 931.284 Q33.2578 932.27 33.0032 933.448 Q32.7167 934.594 32.7167 935.994 Q32.7167 940.96 35.9632 943.633 Q39.1779 946.275 45.2253 946.275 L64.0042 946.275 L64.0042 952.163 L28.3562 952.163 L28.3562 946.275 L33.8944 946.275 Q30.6479 944.429 29.0883 941.469 Q27.4968 938.509 27.4968 934.276 Q27.4968 933.671 27.5923 932.939 Q27.656 932.207 27.8151 931.316 L33.8307 931.284 Z" fill="#000000" fill-rule="nonzero" fill-opacity="1" /><path clip-path="url(#clip520)" d="M18.2347 919.348 L28.3562 919.348 L28.3562 907.285 L32.9077 907.285 L32.9077 919.348 L52.2594 919.348 Q56.6199 919.348 57.8613 918.17 Q59.1026 916.961 59.1026 913.301 L59.1026 907.285 L64.0042 907.285 L64.0042 913.301 Q64.0042 920.08 61.4897 922.658 Q58.9434 925.236 52.2594 925.236 L32.9077 925.236 L32.9077 929.533 L28.3562 929.533 L28.3562 925.236 L18.2347 925.236 L18.2347 919.348 Z" fill="#000000" fill-rule="nonzero" fill-opacity="1" /><path clip-path="url(#clip520)" d="M28.3562 899.583 L28.3562 893.726 L64.0042 893.726 L64.0042 899.583 L28.3562 899.583 M14.479 899.583 L14.479 893.726 L21.895 893.726 L21.895 899.583 L14.479 899.583 Z" fill="#000000" fill-rule="nonzero" fill-opacity="1" /><path clip-path="url(#clip520)" d="M32.4621 867.659 Q32.4621 872.369 36.1542 875.106 Q39.8145 877.844 46.212 877.844 Q52.6095 877.844 56.3017 875.138 Q59.9619 872.401 59.9619 867.659 Q59.9619 862.98 56.2698 860.242 Q52.5777 857.505 46.212 857.505 Q39.8781 857.505 36.186 860.242 Q32.4621 862.98 32.4621 867.659 M27.4968 867.659 Q27.4968 860.02 32.4621 855.659 Q37.4273 851.299 46.212 851.299 Q54.9649 851.299 59.9619 855.659 Q64.9272 860.02 64.9272 867.659 Q64.9272 875.329 59.9619 879.69 Q54.9649 884.018 46.212 884.018 Q37.4273 884.018 32.4621 879.69 Q27.4968 875.329 27.4968 867.659 Z" fill="#000000" fill-rule="nonzero" fill-opacity="1" /><path clip-path="url(#clip520)" d="M42.4881 811.959 L64.0042 811.959 L64.0042 817.815 L42.679 817.815 Q37.6183 817.815 35.1038 819.788 Q32.5894 821.762 32.5894 825.709 Q32.5894 830.451 35.6131 833.188 Q38.6368 835.925 43.8567 835.925 L64.0042 835.925 L64.0042 841.814 L28.3562 841.814 L28.3562 835.925 L33.8944 835.925 Q30.6797 833.825 29.0883 830.992 Q27.4968 828.127 27.4968 824.404 Q27.4968 818.261 31.3163 815.11 Q35.1038 811.959 42.4881 811.959 Z" fill="#000000" fill-rule="nonzero" fill-opacity="1" /><path clip-path="url(#clip520)" d="M32.4621 765.744 Q32.4621 770.454 36.1542 773.191 Q39.8145 775.929 46.212 775.929 Q52.6095 775.929 56.3017 773.223 Q59.9619 770.486 59.9619 765.744 Q59.9619 761.065 56.2698 758.328 Q52.5777 755.59 46.212 755.59 Q39.8781 755.59 36.186 758.328 Q32.4621 761.065 32.4621 765.744 M27.4968 765.744 Q27.4968 758.105 32.4621 753.744 Q37.4273 749.384 46.212 749.384 Q54.9649 749.384 59.9619 753.744 Q64.9272 758.105 64.9272 765.744 Q64.9272 773.414 59.9619 777.775 Q54.9649 782.103 46.212 782.103 Q37.4273 782.103 32.4621 777.775 Q27.4968 773.414 27.4968 765.744 Z" fill="#000000" fill-rule="nonzero" fill-opacity="1" /><path clip-path="url(#clip520)" d="M14.479 721.629 L19.3487 721.629 L19.3487 727.231 Q19.3487 730.382 20.6219 731.623 Q21.895 732.833 25.2052 732.833 L28.3562 732.833 L28.3562 723.189 L32.9077 723.189 L32.9077 732.833 L64.0042 732.833 L64.0042 738.721 L32.9077 738.721 L32.9077 744.323 L28.3562 744.323 L28.3562 738.721 L25.8736 738.721 Q19.9216 738.721 17.2162 735.952 Q14.479 733.183 14.479 727.167 L14.479 721.629 Z" fill="#000000" fill-rule="nonzero" fill-opacity="1" /><path clip-path="url(#clip520)" d="M58.657 690.342 L77.5631 690.342 L77.5631 696.23 L28.3562 696.23 L28.3562 690.342 L33.7671 690.342 Q30.5842 688.496 29.0564 685.695 Q27.4968 682.862 27.4968 678.947 Q27.4968 672.454 32.6531 668.412 Q37.8093 664.338 46.212 664.338 Q54.6147 664.338 59.771 668.412 Q64.9272 672.454 64.9272 678.947 Q64.9272 682.862 63.3994 685.695 Q61.8398 688.496 58.657 690.342 M46.212 670.417 Q39.7508 670.417 36.0905 673.091 Q32.3984 675.732 32.3984 680.379 Q32.3984 685.026 36.0905 687.7 Q39.7508 690.342 46.212 690.342 Q52.6732 690.342 56.3653 687.7 Q60.0256 685.026 60.0256 680.379 Q60.0256 675.732 56.3653 673.091 Q52.6732 670.417 46.212 670.417 Z" fill="#000000" fill-rule="nonzero" fill-opacity="1" /><path clip-path="url(#clip520)" d="M33.8307 633.973 Q33.2578 634.96 33.0032 636.138 Q32.7167 637.284 32.7167 638.684 Q32.7167 643.649 35.9632 646.323 Q39.1779 648.965 45.2253 648.965 L64.0042 648.965 L64.0042 654.853 L28.3562 654.853 L28.3562 648.965 L33.8944 648.965 Q30.6479 647.119 29.0883 644.159 Q27.4968 641.199 27.4968 636.965 Q27.4968 636.361 27.5923 635.629 Q27.656 634.896 27.8151 634.005 L33.8307 633.973 Z" fill="#000000" fill-rule="nonzero" fill-opacity="1" /><path clip-path="url(#clip520)" d="M32.4621 615.449 Q32.4621 620.16 36.1542 622.897 Q39.8145 625.634 46.212 625.634 Q52.6095 625.634 56.3017 622.929 Q59.9619 620.192 59.9619 615.449 Q59.9619 610.77 56.2698 608.033 Q52.5777 605.296 46.212 605.296 Q39.8781 605.296 36.186 608.033 Q32.4621 610.77 32.4621 615.449 M27.4968 615.449 Q27.4968 607.81 32.4621 603.45 Q37.4273 599.089 46.212 599.089 Q54.9649 599.089 59.9619 603.45 Q64.9272 607.81 64.9272 615.449 Q64.9272 623.12 59.9619 627.48 Q54.9649 631.809 46.212 631.809 Q37.4273 631.809 32.4621 627.48 Q27.4968 623.12 27.4968 615.449 Z" fill="#000000" fill-rule="nonzero" fill-opacity="1" /><path clip-path="url(#clip520)" d="M46.212 563.792 Q39.7508 563.792 36.0905 566.465 Q32.3984 569.107 32.3984 573.754 Q32.3984 578.401 36.0905 581.074 Q39.7508 583.716 46.212 583.716 Q52.6732 583.716 56.3653 581.074 Q60.0256 578.401 60.0256 573.754 Q60.0256 569.107 56.3653 566.465 Q52.6732 563.792 46.212 563.792 M33.7671 583.716 Q30.5842 581.87 29.0564 579.069 Q27.4968 576.236 27.4968 572.322 Q27.4968 565.829 32.6531 561.786 Q37.8093 557.712 46.212 557.712 Q54.6147 557.712 59.771 561.786 Q64.9272 565.829 64.9272 572.322 Q64.9272 576.236 63.3994 579.069 Q61.8398 581.87 58.657 583.716 L64.0042 583.716 L64.0042 589.604 L14.479 589.604 L14.479 583.716 L33.7671 583.716 Z" fill="#000000" fill-rule="nonzero" fill-opacity="1" /><path clip-path="url(#clip520)" d="M14.479 548.005 L14.479 542.148 L64.0042 542.148 L64.0042 548.005 L14.479 548.005 Z" fill="#000000" fill-rule="nonzero" fill-opacity="1" /><path clip-path="url(#clip520)" d="M44.7161 499.402 L47.5806 499.402 L47.5806 526.329 Q53.6281 525.947 56.8109 522.701 Q59.9619 519.423 59.9619 513.598 Q59.9619 510.224 59.1344 507.073 Q58.3069 503.89 56.6518 500.771 L62.1899 500.771 Q63.5267 503.922 64.227 507.232 Q64.9272 510.542 64.9272 513.948 Q64.9272 522.478 59.9619 527.475 Q54.9967 532.44 46.5303 532.44 Q37.7774 532.44 32.6531 527.73 Q27.4968 522.987 27.4968 514.967 Q27.4968 507.773 32.1438 503.604 Q36.7589 499.402 44.7161 499.402 M42.9973 505.259 Q38.1912 505.323 35.3266 507.964 Q32.4621 510.574 32.4621 514.903 Q32.4621 519.804 35.2312 522.765 Q38.0002 525.693 43.0292 526.138 L42.9973 505.259 Z" fill="#000000" fill-rule="nonzero" fill-opacity="1" /><path clip-path="url(#clip520)" d="M35.1993 462.036 Q31.2526 459.84 29.3747 456.784 Q27.4968 453.728 27.4968 449.591 Q27.4968 444.021 31.4117 440.997 Q35.2948 437.973 42.4881 437.973 L64.0042 437.973 L64.0042 443.862 L42.679 443.862 Q37.5546 443.862 35.072 445.676 Q32.5894 447.49 32.5894 451.214 Q32.5894 455.765 35.6131 458.407 Q38.6368 461.049 43.8567 461.049 L64.0042 461.049 L64.0042 466.937 L42.679 466.937 Q37.5228 466.937 35.072 468.752 Q32.5894 470.566 32.5894 474.353 Q32.5894 478.841 35.6449 481.483 Q38.6686 484.125 43.8567 484.125 L64.0042 484.125 L64.0042 490.013 L28.3562 490.013 L28.3562 484.125 L33.8944 484.125 Q30.616 482.12 29.0564 479.319 Q27.4968 476.518 27.4968 472.666 Q27.4968 468.783 29.4702 466.078 Q31.4436 463.341 35.1993 462.036 Z" fill="#000000" fill-rule="nonzero" fill-opacity="1" /><path clip-path="url(#clip520)" d="M29.4065 403.567 L34.9447 403.567 Q33.6716 406.049 33.035 408.723 Q32.3984 411.396 32.3984 414.261 Q32.3984 418.622 33.7352 420.818 Q35.072 422.982 37.7456 422.982 Q39.7826 422.982 40.9603 421.422 Q42.1061 419.863 43.1565 415.152 L43.6021 413.147 Q44.9389 406.909 47.3897 404.299 Q49.8086 401.657 54.1691 401.657 Q59.1344 401.657 62.0308 405.604 Q64.9272 409.519 64.9272 416.394 Q64.9272 419.258 64.3543 422.377 Q63.8132 425.465 62.6992 428.902 L56.6518 428.902 Q58.3387 425.656 59.198 422.505 Q60.0256 419.354 60.0256 416.266 Q60.0256 412.129 58.6251 409.901 Q57.1929 407.673 54.6147 407.673 Q52.2276 407.673 50.9545 409.296 Q49.6813 410.887 48.5037 416.33 L48.0262 418.367 Q46.8804 423.81 44.5251 426.229 Q42.138 428.648 38.0002 428.648 Q32.9713 428.648 30.2341 425.083 Q27.4968 421.518 27.4968 414.961 Q27.4968 411.715 27.9743 408.85 Q28.4517 405.986 29.4065 403.567 Z" fill="#000000" fill-rule="nonzero" fill-opacity="1" /><path clip-path="url(#clip520)" d="M191.343 18.8205 L191.343 41.5461 L201.632 41.5461 Q207.344 41.5461 210.463 38.5889 Q213.582 35.6318 213.582 30.163 Q213.582 24.7348 210.463 21.7777 Q207.344 18.8205 201.632 18.8205 L191.343 18.8205 M183.16 12.096 L201.632 12.096 Q211.8 12.096 216.985 16.714 Q222.211 21.2916 222.211 30.163 Q222.211 39.1155 216.985 43.6931 Q211.8 48.2706 201.632 48.2706 L191.343 48.2706 L191.343 72.576 L183.16 72.576 L183.16 12.096 Z" fill="#000000" fill-rule="nonzero" fill-opacity="1" /><path clip-path="url(#clip520)" d="M268.715 48.0275 L268.715 51.6733 L234.445 51.6733 Q234.931 59.3701 239.063 63.421 Q243.235 67.4314 250.648 67.4314 Q254.942 67.4314 258.953 66.3781 Q263.003 65.3249 266.973 63.2184 L266.973 70.267 Q262.963 71.9684 258.75 72.8596 Q254.537 73.7508 250.203 73.7508 Q239.346 73.7508 232.986 67.4314 Q226.667 61.1119 226.667 50.3365 Q226.667 39.1965 232.662 32.6746 Q238.698 26.1121 248.906 26.1121 Q258.061 26.1121 263.368 32.0264 Q268.715 37.9003 268.715 48.0275 M261.262 45.84 Q261.181 39.7232 257.818 36.0774 Q254.497 32.4315 248.987 32.4315 Q242.749 32.4315 238.982 35.9558 Q235.255 39.4801 234.688 45.8805 L261.262 45.84 Z" fill="#000000" fill-rule="nonzero" fill-opacity="1" /><path clip-path="url(#clip520)" d="M307.239 34.1734 Q305.984 33.4443 304.485 33.1202 Q303.026 32.7556 301.244 32.7556 Q294.925 32.7556 291.522 36.8875 Q288.16 40.9789 288.16 48.6757 L288.16 72.576 L280.665 72.576 L280.665 27.2059 L288.16 27.2059 L288.16 34.2544 Q290.509 30.1225 294.276 28.1376 Q298.044 26.1121 303.432 26.1121 Q304.201 26.1121 305.133 26.2337 Q306.065 26.3147 307.199 26.5172 L307.239 34.1734 Z" fill="#000000" fill-rule="nonzero" fill-opacity="1" /><path clip-path="url(#clip520)" d="M338.026 9.54393 L338.026 15.7418 L330.897 15.7418 Q326.886 15.7418 325.306 17.3622 Q323.767 18.9825 323.767 23.1955 L323.767 27.2059 L336.041 27.2059 L336.041 32.9987 L323.767 32.9987 L323.767 72.576 L316.273 72.576 L316.273 32.9987 L309.143 32.9987 L309.143 27.2059 L316.273 27.2059 L316.273 24.0462 Q316.273 16.471 319.797 13.0277 Q323.321 9.54393 330.978 9.54393 L338.026 9.54393 Z" fill="#000000" fill-rule="nonzero" fill-opacity="1" /><path clip-path="url(#clip520)" d="M361.846 32.4315 Q355.85 32.4315 352.366 37.1306 Q348.883 41.7891 348.883 49.9314 Q348.883 58.0738 352.326 62.7728 Q355.81 67.4314 361.846 67.4314 Q367.8 67.4314 371.284 62.7323 Q374.768 58.0333 374.768 49.9314 Q374.768 41.8701 371.284 37.1711 Q367.8 32.4315 361.846 32.4315 M361.846 26.1121 Q371.568 26.1121 377.117 32.4315 Q382.667 38.7509 382.667 49.9314 Q382.667 61.0714 377.117 67.4314 Q371.568 73.7508 361.846 73.7508 Q352.083 73.7508 346.533 67.4314 Q341.024 61.0714 341.024 49.9314 Q341.024 38.7509 346.533 32.4315 Q352.083 26.1121 361.846 26.1121 Z" fill="#000000" fill-rule="nonzero" fill-opacity="1" /><path clip-path="url(#clip520)" d="M421.313 34.1734 Q420.057 33.4443 418.558 33.1202 Q417.1 32.7556 415.317 32.7556 Q408.998 32.7556 405.595 36.8875 Q402.233 40.9789 402.233 48.6757 L402.233 72.576 L394.739 72.576 L394.739 27.2059 L402.233 27.2059 L402.233 34.2544 Q404.583 30.1225 408.35 28.1376 Q412.117 26.1121 417.505 26.1121 Q418.275 26.1121 419.206 26.2337 Q420.138 26.3147 421.272 26.5172 L421.313 34.1734 Z" fill="#000000" fill-rule="nonzero" fill-opacity="1" /><path clip-path="url(#clip520)" d="M462.997 35.9153 Q465.792 30.8922 469.681 28.5022 Q473.569 26.1121 478.836 26.1121 Q485.925 26.1121 489.773 31.0947 Q493.621 36.0368 493.621 45.1919 L493.621 72.576 L486.127 72.576 L486.127 45.4349 Q486.127 38.913 483.818 35.7533 Q481.509 32.5936 476.77 32.5936 Q470.977 32.5936 467.615 36.4419 Q464.252 40.2903 464.252 46.9338 L464.252 72.576 L456.758 72.576 L456.758 45.4349 Q456.758 38.8725 454.449 35.7533 Q452.14 32.5936 447.32 32.5936 Q441.608 32.5936 438.246 36.4824 Q434.883 40.3308 434.883 46.9338 L434.883 72.576 L427.389 72.576 L427.389 27.2059 L434.883 27.2059 L434.883 34.2544 Q437.435 30.082 441 28.0971 Q444.565 26.1121 449.467 26.1121 Q454.409 26.1121 457.852 28.6237 Q461.336 31.1352 462.997 35.9153 Z" fill="#000000" fill-rule="nonzero" fill-opacity="1" /><path clip-path="url(#clip520)" d="M529.107 49.7694 Q520.074 49.7694 516.59 51.8354 Q513.106 53.9013 513.106 58.8839 Q513.106 62.8538 515.699 65.2034 Q518.332 67.5124 522.828 67.5124 Q529.026 67.5124 532.753 63.1374 Q536.521 58.7219 536.521 51.4303 L536.521 49.7694 L529.107 49.7694 M543.974 46.6907 L543.974 72.576 L536.521 72.576 L536.521 65.6895 Q533.968 69.8214 530.161 71.8063 Q526.353 73.7508 520.844 73.7508 Q513.876 73.7508 509.744 69.8619 Q505.653 65.9325 505.653 59.3701 Q505.653 51.7138 510.757 47.825 Q515.901 43.9361 526.069 43.9361 L536.521 43.9361 L536.521 43.2069 Q536.521 38.0623 533.118 35.2672 Q529.756 32.4315 523.639 32.4315 Q519.75 32.4315 516.063 33.3632 Q512.377 34.295 508.974 36.1584 L508.974 29.2718 Q513.066 27.692 516.914 26.9223 Q520.763 26.1121 524.408 26.1121 Q534.252 26.1121 539.113 31.2163 Q543.974 36.3204 543.974 46.6907 Z" fill="#000000" fill-rule="nonzero" fill-opacity="1" /><path clip-path="url(#clip520)" d="M597.041 45.1919 L597.041 72.576 L589.587 72.576 L589.587 45.4349 Q589.587 38.994 587.076 35.7938 Q584.564 32.5936 579.541 32.5936 Q573.505 32.5936 570.022 36.4419 Q566.538 40.2903 566.538 46.9338 L566.538 72.576 L559.044 72.576 L559.044 27.2059 L566.538 27.2059 L566.538 34.2544 Q569.211 30.163 572.817 28.1376 Q576.462 26.1121 581.202 26.1121 Q589.02 26.1121 593.031 30.9732 Q597.041 35.7938 597.041 45.1919 Z" fill="#000000" fill-rule="nonzero" fill-opacity="1" /><path clip-path="url(#clip520)" d="M644.558 28.9478 L644.558 35.9153 Q641.398 34.1734 638.198 33.3227 Q635.039 32.4315 631.798 32.4315 Q624.547 32.4315 620.536 37.0496 Q616.526 41.6271 616.526 49.9314 Q616.526 58.2358 620.536 62.8538 Q624.547 67.4314 631.798 67.4314 Q635.039 67.4314 638.198 66.5807 Q641.398 65.6895 644.558 63.9476 L644.558 70.8341 Q641.439 72.2924 638.077 73.0216 Q634.755 73.7508 630.988 73.7508 Q620.739 73.7508 614.703 67.3098 Q608.667 60.8689 608.667 49.9314 Q608.667 38.832 614.744 32.472 Q620.86 26.1121 631.474 26.1121 Q634.917 26.1121 638.198 26.8413 Q641.479 27.5299 644.558 28.9478 Z" fill="#000000" fill-rule="nonzero" fill-opacity="1" /><path clip-path="url(#clip520)" d="M696.329 48.0275 L696.329 51.6733 L662.058 51.6733 Q662.544 59.3701 666.676 63.421 Q670.849 67.4314 678.262 67.4314 Q682.556 67.4314 686.566 66.3781 Q690.617 65.3249 694.587 63.2184 L694.587 70.267 Q690.576 71.9684 686.363 72.8596 Q682.151 73.7508 677.816 73.7508 Q666.96 73.7508 660.6 67.4314 Q654.28 61.1119 654.28 50.3365 Q654.28 39.1965 660.276 32.6746 Q666.312 26.1121 676.52 26.1121 Q685.675 26.1121 690.982 32.0264 Q696.329 37.9003 696.329 48.0275 M688.875 45.84 Q688.794 39.7232 685.432 36.0774 Q682.11 32.4315 676.601 32.4315 Q670.362 32.4315 666.595 35.9558 Q662.868 39.4801 662.301 45.8805 L688.875 45.84 Z" fill="#000000" fill-rule="nonzero" fill-opacity="1" /><path clip-path="url(#clip520)" d="M742.144 65.7705 L742.144 89.8329 L734.65 89.8329 L734.65 27.2059 L742.144 27.2059 L742.144 34.0924 Q744.494 30.0415 748.059 28.0971 Q751.664 26.1121 756.647 26.1121 Q764.911 26.1121 770.055 32.6746 Q775.24 39.2371 775.24 49.9314 Q775.24 60.6258 770.055 67.1883 Q764.911 73.7508 756.647 73.7508 Q751.664 73.7508 748.059 71.8063 Q744.494 69.8214 742.144 65.7705 M767.503 49.9314 Q767.503 41.7081 764.1 37.0496 Q760.738 32.3505 754.824 32.3505 Q748.909 32.3505 745.507 37.0496 Q742.144 41.7081 742.144 49.9314 Q742.144 58.1548 745.507 62.8538 Q748.909 67.5124 754.824 67.5124 Q760.738 67.5124 764.1 62.8538 Q767.503 58.1548 767.503 49.9314 Z" fill="#000000" fill-rule="nonzero" fill-opacity="1" /><path clip-path="url(#clip520)" d="M813.886 34.1734 Q812.63 33.4443 811.131 33.1202 Q809.673 32.7556 807.891 32.7556 Q801.571 32.7556 798.168 36.8875 Q794.806 40.9789 794.806 48.6757 L794.806 72.576 L787.312 72.576 L787.312 27.2059 L794.806 27.2059 L794.806 34.2544 Q797.156 30.1225 800.923 28.1376 Q804.69 26.1121 810.078 26.1121 Q810.848 26.1121 811.779 26.2337 Q812.711 26.3147 813.845 26.5172 L813.886 34.1734 Z" fill="#000000" fill-rule="nonzero" fill-opacity="1" /><path clip-path="url(#clip520)" d="M837.462 32.4315 Q831.467 32.4315 827.983 37.1306 Q824.499 41.7891 824.499 49.9314 Q824.499 58.0738 827.943 62.7728 Q831.426 67.4314 837.462 67.4314 Q843.417 67.4314 846.901 62.7323 Q850.385 58.0333 850.385 49.9314 Q850.385 41.8701 846.901 37.1711 Q843.417 32.4315 837.462 32.4315 M837.462 26.1121 Q847.184 26.1121 852.734 32.4315 Q858.284 38.7509 858.284 49.9314 Q858.284 61.0714 852.734 67.4314 Q847.184 73.7508 837.462 73.7508 Q827.7 73.7508 822.15 67.4314 Q816.641 61.0714 816.641 49.9314 Q816.641 38.7509 822.15 32.4315 Q827.7 26.1121 837.462 26.1121 Z" fill="#000000" fill-rule="nonzero" fill-opacity="1" /><path clip-path="url(#clip520)" d="M893.608 9.54393 L893.608 15.7418 L886.478 15.7418 Q882.468 15.7418 880.888 17.3622 Q879.349 18.9825 879.349 23.1955 L879.349 27.2059 L891.623 27.2059 L891.623 32.9987 L879.349 32.9987 L879.349 72.576 L871.854 72.576 L871.854 32.9987 L864.725 32.9987 L864.725 27.2059 L871.854 27.2059 L871.854 24.0462 Q871.854 16.471 875.379 13.0277 Q878.903 9.54393 886.559 9.54393 L893.608 9.54393 Z" fill="#000000" fill-rule="nonzero" fill-opacity="1" /><path clip-path="url(#clip520)" d="M899.846 27.2059 L907.3 27.2059 L907.3 72.576 L899.846 72.576 L899.846 27.2059 M899.846 9.54393 L907.3 9.54393 L907.3 18.9825 L899.846 18.9825 L899.846 9.54393 Z" fill="#000000" fill-rule="nonzero" fill-opacity="1" /><path clip-path="url(#clip520)" d="M922.896 9.54393 L930.349 9.54393 L930.349 72.576 L922.896 72.576 L922.896 9.54393 Z" fill="#000000" fill-rule="nonzero" fill-opacity="1" /><path clip-path="url(#clip520)" d="M984.753 48.0275 L984.753 51.6733 L950.482 51.6733 Q950.969 59.3701 955.1 63.421 Q959.273 67.4314 966.686 67.4314 Q970.98 67.4314 974.99 66.3781 Q979.041 65.3249 983.011 63.2184 L983.011 70.267 Q979.001 71.9684 974.788 72.8596 Q970.575 73.7508 966.24 73.7508 Q955.384 73.7508 949.024 67.4314 Q942.705 61.1119 942.705 50.3365 Q942.705 39.1965 948.7 32.6746 Q954.736 26.1121 964.944 26.1121 Q974.099 26.1121 979.406 32.0264 Q984.753 37.9003 984.753 48.0275 M977.299 45.84 Q977.218 39.7232 973.856 36.0774 Q970.534 32.4315 965.025 32.4315 Q958.787 32.4315 955.019 35.9558 Q951.293 39.4801 950.725 45.8805 L977.299 45.84 Z" fill="#000000" fill-rule="nonzero" fill-opacity="1" /><path clip-path="url(#clip520)" d="M1040.94 32.4315 Q1034.94 32.4315 1031.46 37.1306 Q1027.98 41.7891 1027.98 49.9314 Q1027.98 58.0738 1031.42 62.7728 Q1034.9 67.4314 1040.94 67.4314 Q1046.89 67.4314 1050.38 62.7323 Q1053.86 58.0333 1053.86 49.9314 Q1053.86 41.8701 1050.38 37.1711 Q1046.89 32.4315 1040.94 32.4315 M1040.94 26.1121 Q1050.66 26.1121 1056.21 32.4315 Q1061.76 38.7509 1061.76 49.9314 Q1061.76 61.0714 1056.21 67.4314 Q1050.66 73.7508 1040.94 73.7508 Q1031.18 73.7508 1025.63 67.4314 Q1020.12 61.0714 1020.12 49.9314 Q1020.12 38.7509 1025.63 32.4315 Q1031.18 26.1121 1040.94 26.1121 Z" fill="#000000" fill-rule="nonzero" fill-opacity="1" /><path clip-path="url(#clip520)" d="M1111.83 45.1919 L1111.83 72.576 L1104.38 72.576 L1104.38 45.4349 Q1104.38 38.994 1101.86 35.7938 Q1099.35 32.5936 1094.33 32.5936 Q1088.29 32.5936 1084.81 36.4419 Q1081.33 40.2903 1081.33 46.9338 L1081.33 72.576 L1073.83 72.576 L1073.83 27.2059 L1081.33 27.2059 L1081.33 34.2544 Q1084 30.163 1087.61 28.1376 Q1091.25 26.1121 1095.99 26.1121 Q1103.81 26.1121 1107.82 30.9732 Q1111.83 35.7938 1111.83 45.1919 Z" fill="#000000" fill-rule="nonzero" fill-opacity="1" /><path clip-path="url(#clip520)" d="M1198.68 16.7545 L1198.68 25.383 Q1194.55 21.5346 1189.85 19.6307 Q1185.19 17.7268 1179.93 17.7268 Q1169.56 17.7268 1164.05 24.0867 Q1158.54 30.4061 1158.54 42.3968 Q1158.54 54.3469 1164.05 60.7069 Q1169.56 67.0263 1179.93 67.0263 Q1185.19 67.0263 1189.85 65.1223 Q1194.55 63.2184 1198.68 59.3701 L1198.68 67.9175 Q1194.39 70.8341 1189.57 72.2924 Q1184.79 73.7508 1179.44 73.7508 Q1165.71 73.7508 1157.81 65.3654 Q1149.91 56.9395 1149.91 42.3968 Q1149.91 27.8135 1157.81 19.4281 Q1165.71 11.0023 1179.44 11.0023 Q1184.87 11.0023 1189.65 12.4606 Q1194.47 13.8784 1198.68 16.7545 Z" fill="#000000" fill-rule="nonzero" fill-opacity="1" /><path clip-path="url(#clip520)" d="M1210.39 12.096 L1218.61 12.096 L1218.61 48.8377 Q1218.61 58.5599 1222.14 62.8538 Q1225.66 67.1073 1233.56 67.1073 Q1241.42 67.1073 1244.94 62.8538 Q1248.47 58.5599 1248.47 48.8377 L1248.47 12.096 L1256.69 12.096 L1256.69 49.8504 Q1256.69 61.6791 1250.82 67.7149 Q1244.98 73.7508 1233.56 73.7508 Q1222.1 73.7508 1216.22 67.7149 Q1210.39 61.6791 1210.39 49.8504 L1210.39 12.096 Z" fill="#000000" fill-rule="nonzero" fill-opacity="1" /><path clip-path="url(#clip520)" d="M1263.66 12.096 L1314.82 12.096 L1314.82 18.9825 L1293.35 18.9825 L1293.35 72.576 L1285.13 72.576 L1285.13 18.9825 L1263.66 18.9825 L1263.66 12.096 Z" fill="#000000" fill-rule="nonzero" fill-opacity="1" /><path clip-path="url(#clip520)" d="M1322.72 12.096 L1360.96 12.096 L1360.96 18.9825 L1330.9 18.9825 L1330.9 36.8875 L1359.7 36.8875 L1359.7 43.7741 L1330.9 43.7741 L1330.9 65.6895 L1361.69 65.6895 L1361.69 72.576 L1322.72 72.576 L1322.72 12.096 Z" fill="#000000" fill-rule="nonzero" fill-opacity="1" /><path clip-path="url(#clip520)" d="M1403.74 28.5427 L1403.74 35.5912 Q1400.58 33.9709 1397.18 33.1607 Q1393.77 32.3505 1390.13 32.3505 Q1384.58 32.3505 1381.78 34.0519 Q1379.03 35.7533 1379.03 39.156 Q1379.03 41.7486 1381.01 43.2475 Q1383 44.7058 1388.99 46.0426 L1391.54 46.6097 Q1399.48 48.3111 1402.81 51.4303 Q1406.17 54.509 1406.17 60.0587 Q1406.17 66.3781 1401.15 70.0644 Q1396.16 73.7508 1387.41 73.7508 Q1383.77 73.7508 1379.8 73.0216 Q1375.87 72.3329 1371.49 70.9151 L1371.49 63.2184 Q1375.62 65.3654 1379.64 66.4591 Q1383.65 67.5124 1387.58 67.5124 Q1392.84 67.5124 1395.68 65.73 Q1398.51 63.9071 1398.51 60.6258 Q1398.51 57.5877 1396.45 55.9673 Q1394.42 54.3469 1387.49 52.8481 L1384.9 52.2405 Q1377.97 50.7821 1374.9 47.7845 Q1371.82 44.7463 1371.82 39.4801 Q1371.82 33.0797 1376.35 29.5959 Q1380.89 26.1121 1389.24 26.1121 Q1393.37 26.1121 1397.01 26.7198 Q1400.66 27.3274 1403.74 28.5427 Z" fill="#000000" fill-rule="nonzero" fill-opacity="1" /><path clip-path="url(#clip520)" d="M1425.41 14.324 L1425.41 27.2059 L1440.76 27.2059 L1440.76 32.9987 L1425.41 32.9987 L1425.41 57.6282 Q1425.41 63.1779 1426.91 64.7578 Q1428.45 66.3376 1433.11 66.3376 L1440.76 66.3376 L1440.76 72.576 L1433.11 72.576 Q1424.48 72.576 1421.2 69.3758 Q1417.92 66.1351 1417.92 57.6282 L1417.92 32.9987 L1412.45 32.9987 L1412.45 27.2059 L1417.92 27.2059 L1417.92 14.324 L1425.41 14.324 Z" fill="#000000" fill-rule="nonzero" fill-opacity="1" /><path clip-path="url(#clip520)" d="M1472.6 27.2059 L1480.06 27.2059 L1489.37 62.6108 L1498.65 27.2059 L1507.44 27.2059 L1516.76 62.6108 L1526.03 27.2059 L1533.49 27.2059 L1521.62 72.576 L1512.83 72.576 L1503.07 35.3887 L1493.26 72.576 L1484.47 72.576 L1472.6 27.2059 Z" fill="#000000" fill-rule="nonzero" fill-opacity="1" /><path clip-path="url(#clip520)" d="M1538.23 62.2867 L1546.78 62.2867 L1546.78 72.576 L1538.23 72.576 L1538.23 62.2867 Z" fill="#000000" fill-rule="nonzero" fill-opacity="1" /><path clip-path="url(#clip520)" d="M1589.84 34.1734 Q1588.58 33.4443 1587.08 33.1202 Q1585.62 32.7556 1583.84 32.7556 Q1577.52 32.7556 1574.12 36.8875 Q1570.76 40.9789 1570.76 48.6757 L1570.76 72.576 L1563.26 72.576 L1563.26 27.2059 L1570.76 27.2059 L1570.76 34.2544 Q1573.11 30.1225 1576.87 28.1376 Q1580.64 26.1121 1586.03 26.1121 Q1586.8 26.1121 1587.73 26.2337 Q1588.66 26.3147 1589.8 26.5172 L1589.84 34.1734 Z" fill="#000000" fill-rule="nonzero" fill-opacity="1" /><path clip-path="url(#clip520)" d="M1591.09 62.2867 L1599.64 62.2867 L1599.64 72.576 L1591.09 72.576 L1591.09 62.2867 Z" fill="#000000" fill-rule="nonzero" fill-opacity="1" /><path clip-path="url(#clip520)" d="M1623.78 14.324 L1623.78 27.2059 L1639.14 27.2059 L1639.14 32.9987 L1623.78 32.9987 L1623.78 57.6282 Q1623.78 63.1779 1625.28 64.7578 Q1626.82 66.3376 1631.48 66.3376 L1639.14 66.3376 L1639.14 72.576 L1631.48 72.576 Q1622.85 72.576 1619.57 69.3758 Q1616.29 66.1351 1616.29 57.6282 L1616.29 32.9987 L1610.82 32.9987 L1610.82 27.2059 L1616.29 27.2059 L1616.29 14.324 L1623.78 14.324 Z" fill="#000000" fill-rule="nonzero" fill-opacity="1" /><path clip-path="url(#clip520)" d="M1649.99 62.2867 L1658.54 62.2867 L1658.54 72.576 L1649.99 72.576 L1649.99 62.2867 Z" fill="#000000" fill-rule="nonzero" fill-opacity="1" /><path clip-path="url(#clip520)" d="M1739.4 45.1919 L1739.4 72.576 L1731.94 72.576 L1731.94 45.4349 Q1731.94 38.994 1729.43 35.7938 Q1726.92 32.5936 1721.9 32.5936 Q1715.86 32.5936 1712.38 36.4419 Q1708.89 40.2903 1708.89 46.9338 L1708.89 72.576 L1701.4 72.576 L1701.4 27.2059 L1708.89 27.2059 L1708.89 34.2544 Q1711.57 30.163 1715.17 28.1376 Q1718.82 26.1121 1723.56 26.1121 Q1731.38 26.1121 1735.39 30.9732 Q1739.4 35.7938 1739.4 45.1919 Z" fill="#000000" fill-rule="nonzero" fill-opacity="1" /><path clip-path="url(#clip520)" d="M1753.49 54.671 L1753.49 27.2059 L1760.95 27.2059 L1760.95 54.3874 Q1760.95 60.8284 1763.46 64.0691 Q1765.97 67.2693 1770.99 67.2693 Q1777.03 67.2693 1780.51 63.421 Q1784.04 59.5726 1784.04 52.9291 L1784.04 27.2059 L1791.49 27.2059 L1791.49 72.576 L1784.04 72.576 L1784.04 65.6084 Q1781.32 69.7404 1777.72 71.7658 Q1774.15 73.7508 1769.41 73.7508 Q1761.59 73.7508 1757.54 68.8897 Q1753.49 64.0286 1753.49 54.671 M1772.25 26.1121 L1772.25 26.1121 Z" fill="#000000" fill-rule="nonzero" fill-opacity="1" /><path clip-path="url(#clip520)" d="M1842.17 35.9153 Q1844.96 30.8922 1848.85 28.5022 Q1852.74 26.1121 1858.01 26.1121 Q1865.1 26.1121 1868.94 31.0947 Q1872.79 36.0368 1872.79 45.1919 L1872.79 72.576 L1865.3 72.576 L1865.3 45.4349 Q1865.3 38.913 1862.99 35.7533 Q1860.68 32.5936 1855.94 32.5936 Q1850.15 32.5936 1846.79 36.4419 Q1843.42 40.2903 1843.42 46.9338 L1843.42 72.576 L1835.93 72.576 L1835.93 45.4349 Q1835.93 38.8725 1833.62 35.7533 Q1831.31 32.5936 1826.49 32.5936 Q1820.78 32.5936 1817.42 36.4824 Q1814.05 40.3308 1814.05 46.9338 L1814.05 72.576 L1806.56 72.576 L1806.56 27.2059 L1814.05 27.2059 L1814.05 34.2544 Q1816.61 30.082 1820.17 28.0971 Q1823.74 26.1121 1828.64 26.1121 Q1833.58 26.1121 1837.02 28.6237 Q1840.51 31.1352 1842.17 35.9153 Z" fill="#000000" fill-rule="nonzero" fill-opacity="1" /><path clip-path="url(#clip520)" d="M1920.23 49.9314 Q1920.23 41.7081 1916.83 37.0496 Q1913.46 32.3505 1907.55 32.3505 Q1901.63 32.3505 1898.23 37.0496 Q1894.87 41.7081 1894.87 49.9314 Q1894.87 58.1548 1898.23 62.8538 Q1901.63 67.5124 1907.55 67.5124 Q1913.46 67.5124 1916.83 62.8538 Q1920.23 58.1548 1920.23 49.9314 M1894.87 34.0924 Q1897.22 30.0415 1900.78 28.0971 Q1904.39 26.1121 1909.37 26.1121 Q1917.64 26.1121 1922.78 32.6746 Q1927.97 39.2371 1927.97 49.9314 Q1927.97 60.6258 1922.78 67.1883 Q1917.64 73.7508 1909.37 73.7508 Q1904.39 73.7508 1900.78 71.8063 Q1897.22 69.8214 1894.87 65.7705 L1894.87 72.576 L1887.38 72.576 L1887.38 9.54393 L1894.87 9.54393 L1894.87 34.0924 Z" fill="#000000" fill-rule="nonzero" fill-opacity="1" /><path clip-path="url(#clip520)" d="M1979.13 48.0275 L1979.13 51.6733 L1944.86 51.6733 Q1945.34 59.3701 1949.48 63.421 Q1953.65 67.4314 1961.06 67.4314 Q1965.36 67.4314 1969.37 66.3781 Q1973.42 65.3249 1977.39 63.2184 L1977.39 70.267 Q1973.38 71.9684 1969.16 72.8596 Q1964.95 73.7508 1960.62 73.7508 Q1949.76 73.7508 1943.4 67.4314 Q1937.08 61.1119 1937.08 50.3365 Q1937.08 39.1965 1943.08 32.6746 Q1949.11 26.1121 1959.32 26.1121 Q1968.47 26.1121 1973.78 32.0264 Q1979.13 37.9003 1979.13 48.0275 M1971.67 45.84 Q1971.59 39.7232 1968.23 36.0774 Q1964.91 32.4315 1959.4 32.4315 Q1953.16 32.4315 1949.39 35.9558 Q1945.67 39.4801 1945.1 45.8805 L1971.67 45.84 Z" fill="#000000" fill-rule="nonzero" fill-opacity="1" /><path clip-path="url(#clip520)" d="M2017.65 34.1734 Q2016.4 33.4443 2014.9 33.1202 Q2013.44 32.7556 2011.66 32.7556 Q2005.34 32.7556 2001.94 36.8875 Q1998.57 40.9789 1998.57 48.6757 L1998.57 72.576 L1991.08 72.576 L1991.08 27.2059 L1998.57 27.2059 L1998.57 34.2544 Q2000.92 30.1225 2004.69 28.1376 Q2008.46 26.1121 2013.84 26.1121 Q2014.61 26.1121 2015.55 26.2337 Q2016.48 26.3147 2017.61 26.5172 L2017.65 34.1734 Z" fill="#000000" fill-rule="nonzero" fill-opacity="1" /><path clip-path="url(#clip520)" d="M2069.42 32.4315 Q2063.43 32.4315 2059.94 37.1306 Q2056.46 41.7891 2056.46 49.9314 Q2056.46 58.0738 2059.9 62.7728 Q2063.39 67.4314 2069.42 67.4314 Q2075.38 67.4314 2078.86 62.7323 Q2082.35 58.0333 2082.35 49.9314 Q2082.35 41.8701 2078.86 37.1711 Q2075.38 32.4315 2069.42 32.4315 M2069.42 26.1121 Q2079.15 26.1121 2084.7 32.4315 Q2090.24 38.7509 2090.24 49.9314 Q2090.24 61.0714 2084.7 67.4314 Q2079.15 73.7508 2069.42 73.7508 Q2059.66 73.7508 2054.11 67.4314 Q2048.6 61.0714 2048.6 49.9314 Q2048.6 38.7509 2054.11 32.4315 Q2059.66 26.1121 2069.42 26.1121 Z" fill="#000000" fill-rule="nonzero" fill-opacity="1" /><path clip-path="url(#clip520)" d="M2125.57 9.54393 L2125.57 15.7418 L2118.44 15.7418 Q2114.43 15.7418 2112.85 17.3622 Q2111.31 18.9825 2111.31 23.1955 L2111.31 27.2059 L2123.58 27.2059 L2123.58 32.9987 L2111.31 32.9987 L2111.31 72.576 L2103.82 72.576 L2103.82 32.9987 L2096.69 32.9987 L2096.69 27.2059 L2103.82 27.2059 L2103.82 24.0462 Q2103.82 16.471 2107.34 13.0277 Q2110.86 9.54393 2118.52 9.54393 L2125.57 9.54393 Z" fill="#000000" fill-rule="nonzero" fill-opacity="1" /><path clip-path="url(#clip520)" d="M2181.15 9.54393 L2181.15 15.7418 L2174.02 15.7418 Q2170.01 15.7418 2168.43 17.3622 Q2166.89 18.9825 2166.89 23.1955 L2166.89 27.2059 L2179.16 27.2059 L2179.16 32.9987 L2166.89 32.9987 L2166.89 72.576 L2159.39 72.576 L2159.39 32.9987 L2152.26 32.9987 L2152.26 27.2059 L2159.39 27.2059 L2159.39 24.0462 Q2159.39 16.471 2162.92 13.0277 Q2166.44 9.54393 2174.1 9.54393 L2181.15 9.54393 Z" fill="#000000" fill-rule="nonzero" fill-opacity="1" /><path clip-path="url(#clip520)" d="M2252.56 48.0275 L2252.56 51.6733 L2218.29 51.6733 Q2218.78 59.3701 2222.91 63.421 Q2227.08 67.4314 2234.5 67.4314 Q2238.79 67.4314 2242.8 66.3781 Q2246.85 65.3249 2250.82 63.2184 L2250.82 70.267 Q2246.81 71.9684 2242.6 72.8596 Q2238.39 73.7508 2234.05 73.7508 Q2223.2 73.7508 2216.84 67.4314 Q2210.52 61.1119 2210.52 50.3365 Q2210.52 39.1965 2216.51 32.6746 Q2222.55 26.1121 2232.76 26.1121 Q2241.91 26.1121 2247.22 32.0264 Q2252.56 37.9003 2252.56 48.0275 M2245.11 45.84 Q2245.03 39.7232 2241.67 36.0774 Q2238.35 32.4315 2232.84 32.4315 Q2226.6 32.4315 2222.83 35.9558 Q2219.1 39.4801 2218.54 45.8805 L2245.11 45.84 Z" fill="#000000" fill-rule="nonzero" fill-opacity="1" /><path clip-path="url(#clip520)" d="M2259.45 27.2059 L2267.35 27.2059 L2281.53 65.2844 L2295.71 27.2059 L2303.61 27.2059 L2286.59 72.576 L2276.46 72.576 L2259.45 27.2059 Z" fill="#000000" fill-rule="nonzero" fill-opacity="1" /><path clip-path="url(#clip520)" d="M2334.51 49.7694 Q2325.48 49.7694 2322 51.8354 Q2318.51 53.9013 2318.51 58.8839 Q2318.51 62.8538 2321.11 65.2034 Q2323.74 67.5124 2328.24 67.5124 Q2334.43 67.5124 2338.16 63.1374 Q2341.93 58.7219 2341.93 51.4303 L2341.93 49.7694 L2334.51 49.7694 M2349.38 46.6907 L2349.38 72.576 L2341.93 72.576 L2341.93 65.6895 Q2339.38 69.8214 2335.57 71.8063 Q2331.76 73.7508 2326.25 73.7508 Q2319.28 73.7508 2315.15 69.8619 Q2311.06 65.9325 2311.06 59.3701 Q2311.06 51.7138 2316.16 47.825 Q2321.31 43.9361 2331.48 43.9361 L2341.93 43.9361 L2341.93 43.2069 Q2341.93 38.0623 2338.52 35.2672 Q2335.16 32.4315 2329.05 32.4315 Q2325.16 32.4315 2321.47 33.3632 Q2317.78 34.295 2314.38 36.1584 L2314.38 29.2718 Q2318.47 27.692 2322.32 26.9223 Q2326.17 26.1121 2329.82 26.1121 Q2339.66 26.1121 2344.52 31.2163 Q2349.38 36.3204 2349.38 46.6907 Z" fill="#000000" fill-rule="nonzero" fill-opacity="1" /><path clip-path="url(#clip520)" d="M2364.73 9.54393 L2372.19 9.54393 L2372.19 72.576 L2364.73 72.576 L2364.73 9.54393 Z" fill="#000000" fill-rule="nonzero" fill-opacity="1" /><path clip-path="url(#clip520)" d="M2416.71 28.5427 L2416.71 35.5912 Q2413.55 33.9709 2410.14 33.1607 Q2406.74 32.3505 2403.1 32.3505 Q2397.55 32.3505 2394.75 34.0519 Q2392 35.7533 2392 39.156 Q2392 41.7486 2393.98 43.2475 Q2395.97 44.7058 2401.96 46.0426 L2404.51 46.6097 Q2412.45 48.3111 2415.78 51.4303 Q2419.14 54.509 2419.14 60.0587 Q2419.14 66.3781 2414.11 70.0644 Q2409.13 73.7508 2400.38 73.7508 Q2396.74 73.7508 2392.77 73.0216 Q2388.84 72.3329 2384.46 70.9151 L2384.46 63.2184 Q2388.59 65.3654 2392.6 66.4591 Q2396.61 67.5124 2400.54 67.5124 Q2405.81 67.5124 2408.65 65.73 Q2411.48 63.9071 2411.48 60.6258 Q2411.48 57.5877 2409.42 55.9673 Q2407.39 54.3469 2400.46 52.8481 L2397.87 52.2405 Q2390.94 50.7821 2387.86 47.7845 Q2384.79 44.7463 2384.79 39.4801 Q2384.79 33.0797 2389.32 29.5959 Q2393.86 26.1121 2402.2 26.1121 Q2406.34 26.1121 2409.98 26.7198 Q2413.63 27.3274 2416.71 28.5427 Z" fill="#000000" fill-rule="nonzero" fill-opacity="1" /><polyline clip-path="url(#clip522)" style="stroke:#009af9; stroke-linecap:round; stroke-linejoin:round; stroke-width:4; stroke-opacity:1; fill:none" points="249.542,597.554 260.23,597.554 260.23,586.047 281.618,586.047 281.618,574.54 283.996,574.54 283.996,563.034 289.995,563.034 289.995,551.527 291.836,551.527 291.836,540.02 295.308,540.02 295.308,528.513 304.301,528.513 304.301,517.006 308.974,517.006 308.974,505.499 315.132,505.499 315.132,493.992 321.209,493.992 321.209,482.486 334.306,482.486 334.306,459.472 361.662,459.472 361.662,447.965 383.29,447.965 383.29,436.458 393.738,436.458 393.738,424.951 397.596,424.951 397.596,413.445 400.836,413.445 400.836,401.938 415.366,401.938 415.366,390.431 451.928,390.431 451.928,367.417 506.208,367.417 506.208,355.91 517.038,355.91 517.038,344.403 547.95,344.403 547.95,332.897 581.004,332.897 581.004,321.39 675.54,321.39 675.54,309.883 693.775,309.883 693.775,298.376 793.527,298.376 793.527,286.869 1331.53,286.869 1331.53,275.362 1470.98,275.362 1470.98,263.856 4073.57,263.856 4073.57,229.335 "/>
<polyline clip-path="url(#clip522)" style="stroke:#e26f46; stroke-linecap:round; stroke-linejoin:round; stroke-width:4; stroke-opacity:1; fill:none" stroke-dasharray="16, 10" points="249.542,1011.8 261.313,1011.8 261.313,1000.29 276.898,1000.29 276.898,988.787 293.853,988.787 293.853,977.28 298.526,977.28 298.526,965.773 303.874,965.773 303.874,954.266 304.301,954.266 304.301,942.759 311.623,942.759 311.623,931.252 321.209,931.252 321.209,919.746 334.306,919.746 334.306,896.732 342.837,896.732 342.837,885.225 353.285,885.225 353.285,839.198 361.662,839.198 361.662,804.677 383.29,804.677 383.29,793.17 409.864,793.17 409.864,781.664 415.366,781.664 415.366,770.157 468.054,770.157 468.054,758.65 471.789,758.65 471.789,747.143 492.17,747.143 492.17,735.636 545.223,735.636 545.223,724.129 590.032,724.129 590.032,712.622 620.781,712.622 620.781,701.116 622.566,701.116 622.566,689.609 633.878,689.609 633.878,678.102 643.464,678.102 643.464,666.595 654.404,666.595 654.404,655.088 656.561,655.088 656.561,643.581 667.009,643.581 667.009,632.075 675.54,632.075 675.54,609.061 689.927,609.061 689.927,597.554 701.655,597.554 701.655,586.047 728.229,586.047 728.229,574.54 733.731,574.54 733.731,551.527 760.304,551.527 760.304,528.513 809.288,528.513 809.288,517.006 810.076,517.006 810.076,505.499 831.972,505.499 831.972,482.486 894.052,482.486 894.052,459.472 902.092,459.472 902.092,447.965 1001.91,447.965 1001.91,436.458 1031.71,436.458 1031.71,424.951 1077.79,424.951 1077.79,413.445 1154.23,413.445 1154.23,401.938 1271.07,401.938 1271.07,390.431 1329.26,390.431 1329.26,378.924 1476.48,378.924 1476.48,367.417 1644.46,367.417 1644.46,355.91 1668.42,355.91 1668.42,344.403 1883.18,344.403 1883.18,332.897 1949.8,332.897 1949.8,321.39 1987.24,321.39 1987.24,309.883 2161.55,309.883 2161.55,298.376 4073.57,298.376 4073.57,229.335 "/>
<path clip-path="url(#clip520)" d="M1956.98 1371.5 L2282.65 1371.5 L2282.65 1215.98 L1956.98 1215.98  Z" fill="#ffffff" fill-rule="evenodd" fill-opacity="1"/>
<polyline clip-path="url(#clip520)" style="stroke:#000000; stroke-linecap:round; stroke-linejoin:round; stroke-width:4; stroke-opacity:1; fill:none" points="1956.98,1371.5 2282.65,1371.5 2282.65,1215.98 1956.98,1215.98 1956.98,1371.5 "/>
<polyline clip-path="url(#clip520)" style="stroke:#009af9; stroke-linecap:round; stroke-linejoin:round; stroke-width:4; stroke-opacity:1; fill:none" points="1980.35,1267.82 2120.56,1267.82 "/>
<path clip-path="url(#clip520)" d="M2151.34 1251.82 L2151.34 1259.18 L2160.11 1259.18 L2160.11 1262.49 L2151.34 1262.49 L2151.34 1276.56 Q2151.34 1279.73 2152.2 1280.64 Q2153.08 1281.54 2155.74 1281.54 L2160.11 1281.54 L2160.11 1285.1 L2155.74 1285.1 Q2150.81 1285.1 2148.93 1283.28 Q2147.06 1281.42 2147.06 1276.56 L2147.06 1262.49 L2143.93 1262.49 L2143.93 1259.18 L2147.06 1259.18 L2147.06 1251.82 L2151.34 1251.82 Z" fill="#000000" fill-rule="nonzero" fill-opacity="1" /><path clip-path="url(#clip520)" d="M2180.74 1263.16 Q2180.02 1262.74 2179.16 1262.56 Q2178.33 1262.35 2177.31 1262.35 Q2173.7 1262.35 2171.76 1264.71 Q2169.84 1267.05 2169.84 1271.45 L2169.84 1285.1 L2165.55 1285.1 L2165.55 1259.18 L2169.84 1259.18 L2169.84 1263.21 Q2171.18 1260.85 2173.33 1259.71 Q2175.48 1258.55 2178.56 1258.55 Q2179 1258.55 2179.53 1258.62 Q2180.07 1258.67 2180.72 1258.78 L2180.74 1263.16 Z" fill="#000000" fill-rule="nonzero" fill-opacity="1" /><path clip-path="url(#clip520)" d="M2194.21 1262.16 Q2190.78 1262.16 2188.79 1264.85 Q2186.8 1267.51 2186.8 1272.16 Q2186.8 1276.82 2188.77 1279.5 Q2190.76 1282.16 2194.21 1282.16 Q2197.61 1282.16 2199.6 1279.48 Q2201.59 1276.79 2201.59 1272.16 Q2201.59 1267.56 2199.6 1264.87 Q2197.61 1262.16 2194.21 1262.16 M2194.21 1258.55 Q2199.77 1258.55 2202.94 1262.16 Q2206.11 1265.78 2206.11 1272.16 Q2206.11 1278.53 2202.94 1282.16 Q2199.77 1285.78 2194.21 1285.78 Q2188.63 1285.78 2185.46 1282.16 Q2182.31 1278.53 2182.31 1272.16 Q2182.31 1265.78 2185.46 1262.16 Q2188.63 1258.55 2194.21 1258.55 Z" fill="#000000" fill-rule="nonzero" fill-opacity="1" /><path clip-path="url(#clip520)" d="M2234.72 1269.46 L2234.72 1285.1 L2230.46 1285.1 L2230.46 1269.6 Q2230.46 1265.91 2229.03 1264.09 Q2227.59 1262.26 2224.72 1262.26 Q2221.27 1262.26 2219.28 1264.46 Q2217.29 1266.66 2217.29 1270.45 L2217.29 1285.1 L2213.01 1285.1 L2213.01 1259.18 L2217.29 1259.18 L2217.29 1263.21 Q2218.82 1260.87 2220.88 1259.71 Q2222.96 1258.55 2225.67 1258.55 Q2230.14 1258.55 2232.43 1261.33 Q2234.72 1264.09 2234.72 1269.46 Z" fill="#000000" fill-rule="nonzero" fill-opacity="1" /><polyline clip-path="url(#clip520)" style="stroke:#e26f46; stroke-linecap:round; stroke-linejoin:round; stroke-width:4; stroke-opacity:1; fill:none" stroke-dasharray="16, 10" points="1980.35,1319.66 2120.56,1319.66 "/>
<path clip-path="url(#clip520)" d="M2143.93 1311.02 L2148.19 1311.02 L2148.19 1336.94 L2143.93 1336.94 L2143.93 1311.02 M2143.93 1300.93 L2148.19 1300.93 L2148.19 1306.32 L2143.93 1306.32 L2143.93 1300.93 Z" fill="#000000" fill-rule="nonzero" fill-opacity="1" /><path clip-path="url(#clip520)" d="M2161.22 1333.06 L2161.22 1346.81 L2156.94 1346.81 L2156.94 1311.02 L2161.22 1311.02 L2161.22 1314.95 Q2162.57 1312.64 2164.6 1311.53 Q2166.66 1310.39 2169.51 1310.39 Q2174.23 1310.39 2177.17 1314.14 Q2180.14 1317.89 2180.14 1324 Q2180.14 1330.12 2177.17 1333.87 Q2174.23 1337.62 2169.51 1337.62 Q2166.66 1337.62 2164.6 1336.5 Q2162.57 1335.37 2161.22 1333.06 M2175.72 1324 Q2175.72 1319.31 2173.77 1316.64 Q2171.85 1313.96 2168.47 1313.96 Q2165.09 1313.96 2163.15 1316.64 Q2161.22 1319.31 2161.22 1324 Q2161.22 1328.7 2163.15 1331.39 Q2165.09 1334.05 2168.47 1334.05 Q2171.85 1334.05 2173.77 1331.39 Q2175.72 1328.7 2175.72 1324 Z" fill="#000000" fill-rule="nonzero" fill-opacity="1" /><path clip-path="url(#clip520)" d="M2197.24 1314 Q2193.82 1314 2191.83 1316.69 Q2189.84 1319.35 2189.84 1324 Q2189.84 1328.66 2191.8 1331.34 Q2193.79 1334 2197.24 1334 Q2200.65 1334 2202.64 1331.32 Q2204.63 1328.63 2204.63 1324 Q2204.63 1319.4 2202.64 1316.71 Q2200.65 1314 2197.24 1314 M2197.24 1310.39 Q2202.8 1310.39 2205.97 1314 Q2209.14 1317.62 2209.14 1324 Q2209.14 1330.37 2205.97 1334 Q2202.8 1337.62 2197.24 1337.62 Q2191.66 1337.62 2188.49 1334 Q2185.34 1330.37 2185.34 1324 Q2185.34 1317.62 2188.49 1314 Q2191.66 1310.39 2197.24 1310.39 Z" fill="#000000" fill-rule="nonzero" fill-opacity="1" /><path clip-path="url(#clip520)" d="M2220.32 1333.06 L2220.32 1346.81 L2216.04 1346.81 L2216.04 1311.02 L2220.32 1311.02 L2220.32 1314.95 Q2221.66 1312.64 2223.7 1311.53 Q2225.76 1310.39 2228.61 1310.39 Q2233.33 1310.39 2236.27 1314.14 Q2239.23 1317.89 2239.23 1324 Q2239.23 1330.12 2236.27 1333.87 Q2233.33 1337.62 2228.61 1337.62 Q2225.76 1337.62 2223.7 1336.5 Q2221.66 1335.37 2220.32 1333.06 M2234.81 1324 Q2234.81 1319.31 2232.87 1316.64 Q2230.95 1313.96 2227.57 1313.96 Q2224.19 1313.96 2222.24 1316.64 Q2220.32 1319.31 2220.32 1324 Q2220.32 1328.7 2222.24 1331.39 Q2224.19 1334.05 2227.57 1334.05 Q2230.95 1334.05 2232.87 1331.39 Q2234.81 1328.7 2234.81 1324 Z" fill="#000000" fill-rule="nonzero" fill-opacity="1" /><path clip-path="url(#clip520)" d="M2250.51 1303.66 L2250.51 1311.02 L2259.28 1311.02 L2259.28 1314.33 L2250.51 1314.33 L2250.51 1328.4 Q2250.51 1331.57 2251.36 1332.48 Q2252.24 1333.38 2254.9 1333.38 L2259.28 1333.38 L2259.28 1336.94 L2254.9 1336.94 Q2249.97 1336.94 2248.1 1335.12 Q2246.22 1333.26 2246.22 1328.4 L2246.22 1314.33 L2243.1 1314.33 L2243.1 1311.02 L2246.22 1311.02 L2246.22 1303.66 L2250.51 1303.66 Z" fill="#000000" fill-rule="nonzero" fill-opacity="1" /></svg>
