<?xml version="1.0" encoding="utf-8"?>
<svg xmlns="http://www.w3.org/2000/svg" xmlns:xlink="http://www.w3.org/1999/xlink" width="600" height="400" viewBox="0 0 2400 1600">
<defs>
  <clipPath id="clip500">
    <rect x="0" y="0" width="2400" height="1600"/>
  </clipPath>
</defs>
<path clip-path="url(#clip500)" d="M0 1600 L2400 1600 L2400 0 L0 0  Z" fill="#ffffff" fill-rule="evenodd" fill-opacity="1"/>
<defs>
  <clipPath id="clip501">
    <rect x="480" y="0" width="1681" height="1600"/>
  </clipPath>
</defs>
<path clip-path="url(#clip500)" d="M249.542 1414.54 L2352.76 1414.54 L2352.76 47.2441 L249.542 47.2441  Z" fill="#ffffff" fill-rule="evenodd" fill-opacity="1"/>
<defs>
  <clipPath id="clip502">
    <rect x="249" y="47" width="2104" height="1368"/>
  </clipPath>
</defs>
<polyline clip-path="url(#clip502)" style="stroke:#000000; stroke-linecap:round; stroke-linejoin:round; stroke-width:2; stroke-opacity:0.1; fill:none" points="249.542,1414.54 249.542,47.2441 "/>
<polyline clip-path="url(#clip502)" style="stroke:#000000; stroke-linecap:round; stroke-linejoin:round; stroke-width:2; stroke-opacity:0.1; fill:none" points="665.002,1414.54 665.002,47.2441 "/>
<polyline clip-path="url(#clip502)" style="stroke:#000000; stroke-linecap:round; stroke-linejoin:round; stroke-width:2; stroke-opacity:0.1; fill:none" points="1080.46,1414.54 1080.46,47.2441 "/>
<polyline clip-path="url(#clip502)" style="stroke:#000000; stroke-linecap:round; stroke-linejoin:round; stroke-width:2; stroke-opacity:0.1; fill:none" points="1495.92,1414.54 1495.92,47.2441 "/>
<polyline clip-path="url(#clip502)" style="stroke:#000000; stroke-linecap:round; stroke-linejoin:round; stroke-width:2; stroke-opacity:0.1; fill:none" points="1911.38,1414.54 1911.38,47.2441 "/>
<polyline clip-path="url(#clip502)" style="stroke:#000000; stroke-linecap:round; stroke-linejoin:round; stroke-width:2; stroke-opacity:0.1; fill:none" points="2326.84,1414.54 2326.84,47.2441 "/>
<polyline clip-path="url(#clip502)" style="stroke:#000000; stroke-linecap:round; stroke-linejoin:round; stroke-width:2; stroke-opacity:0.1; fill:none" points="249.542,1414.54 2352.76,1414.54 "/>
<polyline clip-path="url(#clip502)" style="stroke:#000000; stroke-linecap:round; stroke-linejoin:round; stroke-width:2; stroke-opacity:0.1; fill:none" points="249.542,1103.79 2352.76,1103.79 "/>
<polyline clip-path="url(#clip502)" style="stroke:#000000; stroke-linecap:round; stroke-linejoin:round; stroke-width:2; stroke-opacity:0.1; fill:none" points="249.542,793.042 2352.76,793.042 "/>
<polyline clip-path="url(#clip502)" style="stroke:#000000; stroke-linecap:round; stroke-linejoin:round; stroke-width:2; stroke-opacity:0.1; fill:none" points="249.542,482.293 2352.76,482.293 "/>
<polyline clip-path="url(#clip502)" style="stroke:#000000; stroke-linecap:round; stroke-linejoin:round; stroke-width:2; stroke-opacity:0.1; fill:none" points="249.542,171.544 2352.76,171.544 "/>
<polyline clip-path="url(#clip500)" style="stroke:#000000; stroke-linecap:round; stroke-linejoin:round; stroke-width:4; stroke-opacity:1; fill:none" points="249.542,1414.54 2352.76,1414.54 "/>
<polyline clip-path="url(#clip500)" style="stroke:#000000; stroke-linecap:round; stroke-linejoin:round; stroke-width:4; stroke-opacity:1; fill:none" points="249.542,1414.54 249.542,1395.64 "/>
<polyline clip-path="url(#clip500)" style="stroke:#000000; stroke-linecap:round; stroke-linejoin:round; stroke-width:4; stroke-opacity:1; fill:none" points="665.002,1414.54 665.002,1395.64 "/>
<polyline clip-path="url(#clip500)" style="stroke:#000000; stroke-linecap:round; stroke-linejoin:round; stroke-width:4; stroke-opacity:1; fill:none" points="1080.46,1414.54 1080.46,1395.64 "/>
<polyline clip-path="url(#clip500)" style="stroke:#000000; stroke-linecap:round; stroke-linejoin:round; stroke-width:4; stroke-opacity:1; fill:none" points="1495.92,1414.54 1495.92,1395.64 "/>
<polyline clip-path="url(#clip500)" style="stroke:#000000; stroke-linecap:round; stroke-linejoin:round; stroke-width:4; stroke-opacity:1; fill:none" points="1911.38,1414.54 1911.38,1395.64 "/>
<polyline clip-path="url(#clip500)" style="stroke:#000000; stroke-linecap:round; stroke-linejoin:round; stroke-width:4; stroke-opacity:1; fill:none" points="2326.84,1414.54 2326.84,1395.64 "/>
<path clip-path="url(#clip500)" d="M229.042 1482.82 L249.441 1482.82 L249.441 1487.74 L222.01 1487.74 L222.01 1482.82 Q225.338 1479.38 231.067 1473.59 Q236.825 1467.77 238.301 1466.1 Q241.107 1462.94 242.207 1460.77 Q243.335 1458.57 243.335 1456.46 Q243.335 1453.02 240.905 1450.85 Q238.503 1448.68 234.626 1448.68 Q231.877 1448.68 228.81 1449.63 Q225.772 1450.59 222.3 1452.53 L222.3 1446.62 Q225.83 1445.21 228.897 1444.48 Q231.964 1443.76 234.51 1443.76 Q241.223 1443.76 245.216 1447.12 Q249.209 1450.47 249.209 1456.08 Q249.209 1458.75 248.197 1461.15 Q247.213 1463.52 244.58 1466.76 Q243.856 1467.6 239.979 1471.62 Q236.102 1475.62 229.042 1482.82 Z" fill="#000000" fill-rule="nonzero" fill-opacity="1" /><path clip-path="url(#clip500)" d="M271.865 1448.82 Q270.419 1446.33 267.496 1446.33 Q264.574 1446.33 263.127 1448.82 Q261.651 1451.31 261.651 1456.29 Q261.651 1461.29 263.127 1463.78 Q264.574 1466.27 267.496 1466.27 Q270.419 1466.27 271.865 1463.78 Q273.341 1461.29 273.341 1456.29 Q273.341 1451.31 271.865 1448.82 M267.496 1443.76 Q272.155 1443.76 274.614 1446.97 Q277.074 1450.18 277.074 1456.29 Q277.074 1462.42 274.614 1465.63 Q272.155 1468.85 267.496 1468.85 Q262.809 1468.85 260.349 1465.63 Q257.89 1462.42 257.89 1456.29 Q257.89 1450.18 260.349 1446.97 Q262.809 1443.76 267.496 1443.76 Z" fill="#000000" fill-rule="nonzero" fill-opacity="1" /><path clip-path="url(#clip500)" d="M644.892 1482.82 L665.291 1482.82 L665.291 1487.74 L637.861 1487.74 L637.861 1482.82 Q641.189 1479.38 646.918 1473.59 Q652.676 1467.77 654.151 1466.1 Q656.958 1462.94 658.058 1460.77 Q659.186 1458.57 659.186 1456.46 Q659.186 1453.02 656.756 1450.85 Q654.354 1448.68 650.477 1448.68 Q647.728 1448.68 644.661 1449.63 Q641.623 1450.59 638.15 1452.53 L638.15 1446.62 Q641.68 1445.21 644.748 1444.48 Q647.815 1443.76 650.361 1443.76 Q657.074 1443.76 661.067 1447.12 Q665.06 1450.47 665.06 1456.08 Q665.06 1458.75 664.047 1461.15 Q663.063 1463.52 660.43 1466.76 Q659.707 1467.6 655.83 1471.62 Q651.952 1475.62 644.892 1482.82 Z" fill="#000000" fill-rule="nonzero" fill-opacity="1" /><path clip-path="url(#clip500)" d="M675.332 1444.25 L690.089 1444.25 L690.089 1447 L678.775 1447 L678.775 1452.9 Q679.585 1452.64 680.424 1452.53 Q681.235 1452.41 682.045 1452.41 Q686.703 1452.41 689.423 1454.64 Q692.143 1456.84 692.143 1460.63 Q692.143 1464.53 689.336 1466.7 Q686.559 1468.85 681.466 1468.85 Q679.73 1468.85 677.907 1468.58 Q676.084 1468.32 674.174 1467.8 L674.174 1464.53 Q675.824 1465.32 677.618 1465.72 Q679.412 1466.1 681.408 1466.1 Q684.62 1466.1 686.501 1464.62 Q688.382 1463.15 688.382 1460.63 Q688.382 1458.11 686.501 1456.63 Q684.62 1455.16 681.408 1455.16 Q679.904 1455.16 678.399 1455.45 Q676.894 1455.74 675.332 1456.35 L675.332 1444.25 Z" fill="#000000" fill-rule="nonzero" fill-opacity="1" /><path clip-path="url(#clip500)" d="M1048.08 1482.82 L1068.48 1482.82 L1068.48 1487.74 L1041.05 1487.74 L1041.05 1482.82 Q1044.38 1479.38 1050.11 1473.59 Q1055.87 1467.77 1057.34 1466.1 Q1060.15 1462.94 1061.25 1460.77 Q1062.38 1458.57 1062.38 1456.46 Q1062.38 1453.02 1059.95 1450.85 Q1057.55 1448.68 1053.67 1448.68 Q1050.92 1448.68 1047.85 1449.63 Q1044.81 1450.59 1041.34 1452.53 L1041.34 1446.62 Q1044.87 1445.21 1047.94 1444.48 Q1051.01 1443.76 1053.55 1443.76 Q1060.27 1443.76 1064.26 1447.12 Q1068.25 1450.47 1068.25 1456.08 Q1068.25 1458.75 1067.24 1461.15 Q1066.26 1463.52 1063.62 1466.76 Q1062.9 1467.6 1059.02 1471.62 Q1055.14 1475.62 1048.08 1482.82 Z" fill="#000000" fill-rule="nonzero" fill-opacity="1" /><path clip-path="url(#clip500)" d="M1078.93 1465.23 L1084.83 1465.23 L1084.83 1447.55 L1078.38 1448.74 L1078.38 1445.38 L1085.03 1444.25 L1089 1444.25 L1089 1465.23 L1094.93 1465.23 L1094.93 1468.41 L1078.93 1468.41 L1078.93 1465.23 Z" fill="#000000" fill-rule="nonzero" fill-opacity="1" /><path clip-path="url(#clip500)" d="M1114.66 1448.82 Q1113.22 1446.33 1110.29 1446.33 Q1107.37 1446.33 1105.92 1448.82 Q1104.45 1451.31 1104.45 1456.29 Q1104.45 1461.29 1105.92 1463.78 Q1107.37 1466.27 1110.29 1466.27 Q1113.22 1466.27 1114.66 1463.78 Q1116.14 1461.29 1116.14 1456.29 Q1116.14 1451.31 1114.66 1448.82 M1110.29 1443.76 Q1114.95 1443.76 1117.41 1446.97 Q1119.87 1450.18 1119.87 1456.29 Q1119.87 1462.42 1117.41 1465.63 Q1114.95 1468.85 1110.29 1468.85 Q1105.61 1468.85 1103.15 1465.63 Q1100.69 1462.42 1100.69 1456.29 Q1100.69 1450.18 1103.15 1446.97 Q1105.61 1443.76 1110.29 1443.76 Z" fill="#000000" fill-rule="nonzero" fill-opacity="1" /><path clip-path="url(#clip500)" d="M1463.93 1482.82 L1484.33 1482.82 L1484.33 1487.74 L1456.9 1487.74 L1456.9 1482.82 Q1460.23 1479.38 1465.96 1473.59 Q1471.72 1467.77 1473.19 1466.1 Q1476 1462.94 1477.1 1460.77 Q1478.23 1458.57 1478.23 1456.46 Q1478.23 1453.02 1475.8 1450.85 Q1473.4 1448.68 1469.52 1448.68 Q1466.77 1448.68 1463.7 1449.63 Q1460.66 1450.59 1457.19 1452.53 L1457.19 1446.62 Q1460.72 1445.21 1463.79 1444.48 Q1466.86 1443.76 1469.4 1443.76 Q1476.12 1443.76 1480.11 1447.12 Q1484.1 1450.47 1484.1 1456.08 Q1484.1 1458.75 1483.09 1461.15 Q1482.11 1463.52 1479.47 1466.76 Q1478.75 1467.6 1474.87 1471.62 Q1470.99 1475.62 1463.93 1482.82 Z" fill="#000000" fill-rule="nonzero" fill-opacity="1" /><path clip-path="url(#clip500)" d="M1494.78 1465.23 L1500.68 1465.23 L1500.68 1447.55 L1494.23 1448.74 L1494.23 1445.38 L1500.88 1444.25 L1504.85 1444.25 L1504.85 1465.23 L1510.78 1465.23 L1510.78 1468.41 L1494.78 1468.41 L1494.78 1465.23 Z" fill="#000000" fill-rule="nonzero" fill-opacity="1" /><path clip-path="url(#clip500)" d="M1518.13 1444.25 L1532.89 1444.25 L1532.89 1447 L1521.57 1447 L1521.57 1452.9 Q1522.38 1452.64 1523.22 1452.53 Q1524.03 1452.41 1524.84 1452.41 Q1529.5 1452.41 1532.22 1454.64 Q1534.94 1456.84 1534.94 1460.63 Q1534.94 1464.53 1532.13 1466.7 Q1529.36 1468.85 1524.26 1468.85 Q1522.53 1468.85 1520.71 1468.58 Q1518.88 1468.32 1516.97 1467.8 L1516.97 1464.53 Q1518.62 1465.32 1520.42 1465.72 Q1522.21 1466.1 1524.21 1466.1 Q1527.42 1466.1 1529.3 1464.62 Q1531.18 1463.15 1531.18 1460.63 Q1531.18 1458.11 1529.3 1456.63 Q1527.42 1455.16 1524.21 1455.16 Q1522.7 1455.16 1521.2 1455.45 Q1519.69 1455.74 1518.13 1456.35 L1518.13 1444.25 Z" fill="#000000" fill-rule="nonzero" fill-opacity="1" /><path clip-path="url(#clip500)" d="M1879 1482.82 L1899.4 1482.82 L1899.4 1487.74 L1871.97 1487.74 L1871.97 1482.82 Q1875.3 1479.38 1881.03 1473.59 Q1886.79 1467.77 1888.26 1466.1 Q1891.07 1462.94 1892.17 1460.77 Q1893.3 1458.57 1893.3 1456.46 Q1893.3 1453.02 1890.87 1450.85 Q1888.47 1448.68 1884.59 1448.68 Q1881.84 1448.68 1878.77 1449.63 Q1875.73 1450.59 1872.26 1452.53 L1872.26 1446.62 Q1875.79 1445.21 1878.86 1444.48 Q1881.93 1443.76 1884.47 1443.76 Q1891.19 1443.76 1895.18 1447.12 Q1899.17 1450.47 1899.17 1456.08 Q1899.17 1458.75 1898.16 1461.15 Q1897.18 1463.52 1894.54 1466.76 Q1893.82 1467.6 1889.94 1471.62 Q1886.06 1475.62 1879 1482.82 Z" fill="#000000" fill-rule="nonzero" fill-opacity="1" /><path clip-path="url(#clip500)" d="M1913.09 1465.11 L1925.36 1465.11 L1925.36 1468.41 L1908.05 1468.41 L1908.05 1465.23 Q1909.04 1464.33 1910.86 1462.71 Q1920.82 1453.89 1920.82 1451.17 Q1920.82 1449.26 1919.31 1448.1 Q1917.81 1446.91 1915.35 1446.91 Q1913.84 1446.91 1912.08 1447.43 Q1910.31 1447.93 1908.23 1448.94 L1908.23 1445.38 Q1910.46 1444.57 1912.37 1444.16 Q1914.3 1443.76 1915.95 1443.76 Q1920.15 1443.76 1922.67 1445.67 Q1925.18 1447.58 1925.18 1450.7 Q1925.18 1454.72 1915.61 1462.94 Q1913.99 1464.33 1913.09 1465.11 Z" fill="#000000" fill-rule="nonzero" fill-opacity="1" /><path clip-path="url(#clip500)" d="M1945.58 1448.82 Q1944.14 1446.33 1941.21 1446.33 Q1938.29 1446.33 1936.85 1448.82 Q1935.37 1451.31 1935.37 1456.29 Q1935.37 1461.29 1936.85 1463.78 Q1938.29 1466.27 1941.21 1466.27 Q1944.14 1466.27 1945.58 1463.78 Q1947.06 1461.29 1947.06 1456.29 Q1947.06 1451.31 1945.58 1448.82 M1941.21 1443.76 Q1945.87 1443.76 1948.33 1446.97 Q1950.79 1450.18 1950.79 1456.29 Q1950.79 1462.42 1948.33 1465.63 Q1945.87 1468.85 1941.21 1468.85 Q1936.53 1468.85 1934.07 1465.63 Q1931.61 1462.42 1931.61 1456.29 Q1931.61 1450.18 1934.07 1446.97 Q1936.53 1443.76 1941.21 1443.76 Z" fill="#000000" fill-rule="nonzero" fill-opacity="1" /><path clip-path="url(#clip500)" d="M2294.85 1482.82 L2315.25 1482.82 L2315.25 1487.74 L2287.82 1487.74 L2287.82 1482.82 Q2291.15 1479.38 2296.88 1473.59 Q2302.64 1467.77 2304.11 1466.1 Q2306.92 1462.94 2308.02 1460.77 Q2309.15 1458.57 2309.15 1456.46 Q2309.15 1453.02 2306.72 1450.85 Q2304.32 1448.68 2300.44 1448.68 Q2297.69 1448.68 2294.62 1449.63 Q2291.58 1450.59 2288.11 1452.53 L2288.11 1446.62 Q2291.64 1445.21 2294.71 1444.48 Q2297.78 1443.76 2300.32 1443.76 Q2307.04 1443.76 2311.03 1447.12 Q2315.02 1450.47 2315.02 1456.08 Q2315.02 1458.75 2314.01 1461.15 Q2313.03 1463.52 2310.39 1466.76 Q2309.67 1467.6 2305.79 1471.62 Q2301.91 1475.62 2294.85 1482.82 Z" fill="#000000" fill-rule="nonzero" fill-opacity="1" /><path clip-path="url(#clip500)" d="M2328.94 1465.11 L2341.21 1465.11 L2341.21 1468.41 L2323.91 1468.41 L2323.91 1465.23 Q2324.89 1464.33 2326.71 1462.71 Q2336.67 1453.89 2336.67 1451.17 Q2336.67 1449.26 2335.16 1448.1 Q2333.66 1446.91 2331.2 1446.91 Q2329.69 1446.91 2327.93 1447.43 Q2326.16 1447.93 2324.08 1448.94 L2324.08 1445.38 Q2326.31 1444.57 2328.22 1444.16 Q2330.16 1443.76 2331.8 1443.76 Q2336 1443.76 2338.52 1445.67 Q2341.03 1447.58 2341.03 1450.7 Q2341.03 1454.72 2331.46 1462.94 Q2329.84 1464.33 2328.94 1465.11 Z" fill="#000000" fill-rule="nonzero" fill-opacity="1" /><path clip-path="url(#clip500)" d="M2349.05 1444.25 L2363.81 1444.25 L2363.81 1447 L2352.49 1447 L2352.49 1452.9 Q2353.3 1452.64 2354.14 1452.53 Q2354.95 1452.41 2355.76 1452.41 Q2360.42 1452.41 2363.14 1454.64 Q2365.86 1456.84 2365.86 1460.63 Q2365.86 1464.53 2363.05 1466.7 Q2360.28 1468.85 2355.18 1468.85 Q2353.45 1468.85 2351.63 1468.58 Q2349.8 1468.32 2347.89 1467.8 L2347.89 1464.53 Q2349.54 1465.32 2351.34 1465.72 Q2353.13 1466.1 2355.13 1466.1 Q2358.34 1466.1 2360.22 1464.62 Q2362.1 1463.15 2362.1 1460.63 Q2362.1 1458.11 2360.22 1456.63 Q2358.34 1455.16 2355.13 1455.16 Q2353.62 1455.16 2352.12 1455.45 Q2350.61 1455.74 2349.05 1456.35 L2349.05 1444.25 Z" fill="#000000" fill-rule="nonzero" fill-opacity="1" /><path clip-path="url(#clip500)" d="M659.343 1524.84 L665.836 1524.84 L675.83 1565.01 L685.792 1524.84 L693.017 1524.84 L703.011 1565.01 L712.974 1524.84 L719.498 1524.84 L707.563 1572.36 L699.478 1572.36 L689.452 1531.11 L679.331 1572.36 L671.246 1572.36 L659.343 1524.84 Z" fill="#000000" fill-rule="nonzero" fill-opacity="1" /><path clip-path="url(#clip500)" d="M726.342 1536.72 L732.198 1536.72 L732.198 1572.36 L726.342 1572.36 L726.342 1536.72 M726.342 1522.84 L732.198 1522.84 L732.198 1530.25 L726.342 1530.25 L726.342 1522.84 Z" fill="#000000" fill-rule="nonzero" fill-opacity="1" /><path clip-path="url(#clip500)" d="M750.245 1526.59 L750.245 1536.72 L762.308 1536.72 L762.308 1541.27 L750.245 1541.27 L750.245 1560.62 Q750.245 1564.98 751.422 1566.22 Q752.632 1567.46 756.292 1567.46 L762.308 1567.46 L762.308 1572.36 L756.292 1572.36 Q749.513 1572.36 746.935 1569.85 Q744.357 1567.3 744.357 1560.62 L744.357 1541.27 L740.06 1541.27 L740.06 1536.72 L744.357 1536.72 L744.357 1526.59 L750.245 1526.59 Z" fill="#000000" fill-rule="nonzero" fill-opacity="1" /><path clip-path="url(#clip500)" d="M799.643 1550.85 L799.643 1572.36 L793.786 1572.36 L793.786 1551.04 Q793.786 1545.98 791.813 1543.46 Q789.839 1540.95 785.893 1540.95 Q781.15 1540.95 778.413 1543.97 Q775.676 1547 775.676 1552.22 L775.676 1572.36 L769.788 1572.36 L769.788 1522.84 L775.676 1522.84 L775.676 1542.25 Q777.776 1539.04 780.609 1537.45 Q783.474 1535.86 787.198 1535.86 Q793.341 1535.86 796.492 1539.68 Q799.643 1543.46 799.643 1550.85 Z" fill="#000000" fill-rule="nonzero" fill-opacity="1" /><path clip-path="url(#clip500)" d="M811.324 1536.72 L817.18 1536.72 L817.18 1572.36 L811.324 1572.36 L811.324 1536.72 M811.324 1522.84 L817.18 1522.84 L817.18 1530.25 L811.324 1530.25 L811.324 1522.84 Z" fill="#000000" fill-rule="nonzero" fill-opacity="1" /><path clip-path="url(#clip500)" d="M859.067 1550.85 L859.067 1572.36 L853.21 1572.36 L853.21 1551.04 Q853.21 1545.98 851.237 1543.46 Q849.263 1540.95 845.317 1540.95 Q840.574 1540.95 837.837 1543.97 Q835.1 1547 835.1 1552.22 L835.1 1572.36 L829.211 1572.36 L829.211 1536.72 L835.1 1536.72 L835.1 1542.25 Q837.2 1539.04 840.033 1537.45 Q842.898 1535.86 846.622 1535.86 Q852.765 1535.86 855.916 1539.68 Q859.067 1543.46 859.067 1550.85 Z" fill="#000000" fill-rule="nonzero" fill-opacity="1" /><path clip-path="url(#clip500)" d="M897.261 1526.59 L897.261 1536.72 L909.324 1536.72 L909.324 1541.27 L897.261 1541.27 L897.261 1560.62 Q897.261 1564.98 898.438 1566.22 Q899.648 1567.46 903.308 1567.46 L909.324 1567.46 L909.324 1572.36 L903.308 1572.36 Q896.529 1572.36 893.951 1569.85 Q891.373 1567.3 891.373 1560.62 L891.373 1541.27 L887.076 1541.27 L887.076 1536.72 L891.373 1536.72 L891.373 1526.59 L897.261 1526.59 Z" fill="#000000" fill-rule="nonzero" fill-opacity="1" /><path clip-path="url(#clip500)" d="M946.659 1550.85 L946.659 1572.36 L940.802 1572.36 L940.802 1551.04 Q940.802 1545.98 938.829 1543.46 Q936.855 1540.95 932.909 1540.95 Q928.166 1540.95 925.429 1543.97 Q922.692 1547 922.692 1552.22 L922.692 1572.36 L916.804 1572.36 L916.804 1522.84 L922.692 1522.84 L922.692 1542.25 Q924.792 1539.04 927.625 1537.45 Q930.49 1535.86 934.214 1535.86 Q940.357 1535.86 943.508 1539.68 Q946.659 1543.46 946.659 1550.85 Z" fill="#000000" fill-rule="nonzero" fill-opacity="1" /><path clip-path="url(#clip500)" d="M958.34 1536.72 L964.196 1536.72 L964.196 1572.36 L958.34 1572.36 L958.34 1536.72 M958.34 1522.84 L964.196 1522.84 L964.196 1530.25 L958.34 1530.25 L958.34 1522.84 Z" fill="#000000" fill-rule="nonzero" fill-opacity="1" /><path clip-path="url(#clip500)" d="M999.176 1537.77 L999.176 1543.3 Q996.693 1542.03 994.02 1541.39 Q991.346 1540.76 988.481 1540.76 Q984.121 1540.76 981.925 1542.09 Q979.76 1543.43 979.76 1546.11 Q979.76 1548.14 981.32 1549.32 Q982.88 1550.47 987.59 1551.52 L989.595 1551.96 Q995.834 1553.3 998.444 1555.75 Q1001.09 1558.17 1001.09 1562.53 Q1001.09 1567.49 997.139 1570.39 Q993.224 1573.29 986.349 1573.29 Q983.484 1573.29 980.365 1572.71 Q977.278 1572.17 973.84 1571.06 L973.84 1565.01 Q977.087 1566.7 980.238 1567.56 Q983.389 1568.39 986.476 1568.39 Q990.614 1568.39 992.842 1566.98 Q995.07 1565.55 995.07 1562.97 Q995.07 1560.59 993.447 1559.31 Q991.855 1558.04 986.413 1556.86 L984.375 1556.39 Q978.933 1555.24 976.514 1552.88 Q974.095 1550.5 974.095 1546.36 Q974.095 1541.33 977.66 1538.59 Q981.224 1535.86 987.781 1535.86 Q991.028 1535.86 993.892 1536.33 Q996.757 1536.81 999.176 1537.77 Z" fill="#000000" fill-rule="nonzero" fill-opacity="1" /><path clip-path="url(#clip500)" d="M1049.18 1522.84 L1049.18 1527.71 L1043.58 1527.71 Q1040.43 1527.71 1039.18 1528.98 Q1037.97 1530.25 1037.97 1533.56 L1037.97 1536.72 L1047.62 1536.72 L1047.62 1541.27 L1037.97 1541.27 L1037.97 1572.36 L1032.09 1572.36 L1032.09 1541.27 L1026.48 1541.27 L1026.48 1536.72 L1032.09 1536.72 L1032.09 1534.23 Q1032.09 1528.28 1034.86 1525.58 Q1037.62 1522.84 1043.64 1522.84 L1049.18 1522.84 Z" fill="#000000" fill-rule="nonzero" fill-opacity="1" /><path clip-path="url(#clip500)" d="M1070.28 1554.44 Q1063.18 1554.44 1060.45 1556.07 Q1057.71 1557.69 1057.71 1561.61 Q1057.71 1564.72 1059.75 1566.57 Q1061.81 1568.39 1065.35 1568.39 Q1070.22 1568.39 1073.15 1564.95 Q1076.11 1561.48 1076.11 1555.75 L1076.11 1554.44 L1070.28 1554.44 M1081.96 1552.03 L1081.96 1572.36 L1076.11 1572.36 L1076.11 1566.95 Q1074.1 1570.2 1071.11 1571.76 Q1068.12 1573.29 1063.79 1573.29 Q1058.31 1573.29 1055.07 1570.23 Q1051.85 1567.14 1051.85 1561.99 Q1051.85 1555.97 1055.86 1552.92 Q1059.9 1549.86 1067.89 1549.86 L1076.11 1549.86 L1076.11 1549.29 Q1076.11 1545.25 1073.43 1543.05 Q1070.79 1540.82 1065.98 1540.82 Q1062.93 1540.82 1060.03 1541.55 Q1057.14 1542.29 1054.46 1543.75 L1054.46 1538.34 Q1057.68 1537.1 1060.7 1536.49 Q1063.72 1535.86 1066.59 1535.86 Q1074.32 1535.86 1078.14 1539.87 Q1081.96 1543.88 1081.96 1552.03 Z" fill="#000000" fill-rule="nonzero" fill-opacity="1" /><path clip-path="url(#clip500)" d="M1119.68 1538.08 L1119.68 1543.56 Q1117.2 1542.19 1114.68 1541.52 Q1112.2 1540.82 1109.65 1540.82 Q1103.96 1540.82 1100.8 1544.45 Q1097.65 1548.05 1097.65 1554.57 Q1097.65 1561.1 1100.8 1564.72 Q1103.96 1568.32 1109.65 1568.32 Q1112.2 1568.32 1114.68 1567.65 Q1117.2 1566.95 1119.68 1565.58 L1119.68 1571 Q1117.23 1572.14 1114.59 1572.71 Q1111.98 1573.29 1109.02 1573.29 Q1100.96 1573.29 1096.22 1568.23 Q1091.48 1563.17 1091.48 1554.57 Q1091.48 1545.85 1096.25 1540.85 Q1101.06 1535.86 1109.4 1535.86 Q1112.1 1535.86 1114.68 1536.43 Q1117.26 1536.97 1119.68 1538.08 Z" fill="#000000" fill-rule="nonzero" fill-opacity="1" /><path clip-path="url(#clip500)" d="M1135.66 1526.59 L1135.66 1536.72 L1147.72 1536.72 L1147.72 1541.27 L1135.66 1541.27 L1135.66 1560.62 Q1135.66 1564.98 1136.83 1566.22 Q1138.04 1567.46 1141.7 1567.46 L1147.72 1567.46 L1147.72 1572.36 L1141.7 1572.36 Q1134.92 1572.36 1132.35 1569.85 Q1129.77 1567.3 1129.77 1560.62 L1129.77 1541.27 L1125.47 1541.27 L1125.47 1536.72 L1129.77 1536.72 L1129.77 1526.59 L1135.66 1526.59 Z" fill="#000000" fill-rule="nonzero" fill-opacity="1" /><path clip-path="url(#clip500)" d="M1169.24 1540.82 Q1164.52 1540.82 1161.79 1544.51 Q1159.05 1548.17 1159.05 1554.57 Q1159.05 1560.97 1161.76 1564.66 Q1164.49 1568.32 1169.24 1568.32 Q1173.91 1568.32 1176.65 1564.63 Q1179.39 1560.94 1179.39 1554.57 Q1179.39 1548.24 1176.65 1544.55 Q1173.91 1540.82 1169.24 1540.82 M1169.24 1535.86 Q1176.87 1535.86 1181.23 1540.82 Q1185.6 1545.79 1185.6 1554.57 Q1185.6 1563.32 1181.23 1568.32 Q1176.87 1573.29 1169.24 1573.29 Q1161.56 1573.29 1157.2 1568.32 Q1152.88 1563.32 1152.88 1554.57 Q1152.88 1545.79 1157.2 1540.82 Q1161.56 1535.86 1169.24 1535.86 Z" fill="#000000" fill-rule="nonzero" fill-opacity="1" /><path clip-path="url(#clip500)" d="M1215.96 1542.19 Q1214.97 1541.62 1213.8 1541.36 Q1212.65 1541.08 1211.25 1541.08 Q1206.28 1541.08 1203.61 1544.32 Q1200.97 1547.54 1200.97 1553.59 L1200.97 1572.36 L1195.08 1572.36 L1195.08 1536.72 L1200.97 1536.72 L1200.97 1542.25 Q1202.81 1539.01 1205.77 1537.45 Q1208.73 1535.86 1212.97 1535.86 Q1213.57 1535.86 1214.3 1535.95 Q1215.04 1536.02 1215.93 1536.17 L1215.96 1542.19 Z" fill="#000000" fill-rule="nonzero" fill-opacity="1" /><path clip-path="url(#clip500)" d="M1256.64 1540.82 Q1251.93 1540.82 1249.19 1544.51 Q1246.45 1548.17 1246.45 1554.57 Q1246.45 1560.97 1249.16 1564.66 Q1251.89 1568.32 1256.64 1568.32 Q1261.32 1568.32 1264.05 1564.63 Q1266.79 1560.94 1266.79 1554.57 Q1266.79 1548.24 1264.05 1544.55 Q1261.32 1540.82 1256.64 1540.82 M1256.64 1535.86 Q1264.28 1535.86 1268.64 1540.82 Q1273 1545.79 1273 1554.57 Q1273 1563.32 1268.64 1568.32 Q1264.28 1573.29 1256.64 1573.29 Q1248.97 1573.29 1244.61 1568.32 Q1240.28 1563.32 1240.28 1554.57 Q1240.28 1545.79 1244.61 1540.82 Q1248.97 1535.86 1256.64 1535.86 Z" fill="#000000" fill-rule="nonzero" fill-opacity="1" /><path clip-path="url(#clip500)" d="M1300.75 1522.84 L1300.75 1527.71 L1295.15 1527.71 Q1292 1527.71 1290.76 1528.98 Q1289.55 1530.25 1289.55 1533.56 L1289.55 1536.72 L1299.19 1536.72 L1299.19 1541.27 L1289.55 1541.27 L1289.55 1572.36 L1283.66 1572.36 L1283.66 1541.27 L1278.06 1541.27 L1278.06 1536.72 L1283.66 1536.72 L1283.66 1534.23 Q1283.66 1528.28 1286.43 1525.58 Q1289.2 1522.84 1295.21 1522.84 L1300.75 1522.84 Z" fill="#000000" fill-rule="nonzero" fill-opacity="1" /><path clip-path="url(#clip500)" d="M1332.17 1526.59 L1332.17 1536.72 L1344.23 1536.72 L1344.23 1541.27 L1332.17 1541.27 L1332.17 1560.62 Q1332.17 1564.98 1333.34 1566.22 Q1334.55 1567.46 1338.21 1567.46 L1344.23 1567.46 L1344.23 1572.36 L1338.21 1572.36 Q1331.43 1572.36 1328.86 1569.85 Q1326.28 1567.3 1326.28 1560.62 L1326.28 1541.27 L1321.98 1541.27 L1321.98 1536.72 L1326.28 1536.72 L1326.28 1526.59 L1332.17 1526.59 Z" fill="#000000" fill-rule="nonzero" fill-opacity="1" /><path clip-path="url(#clip500)" d="M1381.56 1550.85 L1381.56 1572.36 L1375.71 1572.36 L1375.71 1551.04 Q1375.71 1545.98 1373.73 1543.46 Q1371.76 1540.95 1367.81 1540.95 Q1363.07 1540.95 1360.33 1543.97 Q1357.6 1547 1357.6 1552.22 L1357.6 1572.36 L1351.71 1572.36 L1351.71 1522.84 L1357.6 1522.84 L1357.6 1542.25 Q1359.7 1539.04 1362.53 1537.45 Q1365.39 1535.86 1369.12 1535.86 Q1375.26 1535.86 1378.41 1539.68 Q1381.56 1543.46 1381.56 1550.85 Z" fill="#000000" fill-rule="nonzero" fill-opacity="1" /><path clip-path="url(#clip500)" d="M1423.74 1553.08 L1423.74 1555.94 L1396.81 1555.94 Q1397.19 1561.99 1400.44 1565.17 Q1403.72 1568.32 1409.54 1568.32 Q1412.91 1568.32 1416.07 1567.49 Q1419.25 1566.67 1422.37 1565.01 L1422.37 1570.55 Q1419.22 1571.89 1415.91 1572.59 Q1412.6 1573.29 1409.19 1573.29 Q1400.66 1573.29 1395.66 1568.32 Q1390.7 1563.36 1390.7 1554.89 Q1390.7 1546.14 1395.41 1541.01 Q1400.15 1535.86 1408.17 1535.86 Q1415.37 1535.86 1419.54 1540.5 Q1423.74 1545.12 1423.74 1553.08 M1417.88 1551.36 Q1417.82 1546.55 1415.17 1543.69 Q1412.56 1540.82 1408.24 1540.82 Q1403.33 1540.82 1400.37 1543.59 Q1397.45 1546.36 1397 1551.39 L1417.88 1551.36 Z" fill="#000000" fill-rule="nonzero" fill-opacity="1" /><path clip-path="url(#clip500)" d="M1479.66 1554.57 Q1479.66 1548.11 1476.99 1544.45 Q1474.34 1540.76 1469.7 1540.76 Q1465.05 1540.76 1462.38 1544.45 Q1459.73 1548.11 1459.73 1554.57 Q1459.73 1561.03 1462.38 1564.72 Q1465.05 1568.39 1469.7 1568.39 Q1474.34 1568.39 1476.99 1564.72 Q1479.66 1561.03 1479.66 1554.57 M1459.73 1542.13 Q1461.58 1538.94 1464.38 1537.42 Q1467.21 1535.86 1471.13 1535.86 Q1477.62 1535.86 1481.66 1541.01 Q1485.74 1546.17 1485.74 1554.57 Q1485.74 1562.97 1481.66 1568.13 Q1477.62 1573.29 1471.13 1573.29 Q1467.21 1573.29 1464.38 1571.76 Q1461.58 1570.2 1459.73 1567.02 L1459.73 1572.36 L1453.85 1572.36 L1453.85 1522.84 L1459.73 1522.84 L1459.73 1542.13 Z" fill="#000000" fill-rule="nonzero" fill-opacity="1" /><path clip-path="url(#clip500)" d="M1525.94 1553.08 L1525.94 1555.94 L1499.01 1555.94 Q1499.39 1561.99 1502.64 1565.17 Q1505.92 1568.32 1511.74 1568.32 Q1515.12 1568.32 1518.27 1567.49 Q1521.45 1566.67 1524.57 1565.01 L1524.57 1570.55 Q1521.42 1571.89 1518.11 1572.59 Q1514.8 1573.29 1511.39 1573.29 Q1502.86 1573.29 1497.87 1568.32 Q1492.9 1563.36 1492.9 1554.89 Q1492.9 1546.14 1497.61 1541.01 Q1502.35 1535.86 1510.37 1535.86 Q1517.57 1535.86 1521.74 1540.5 Q1525.94 1545.12 1525.94 1553.08 M1520.08 1551.36 Q1520.02 1546.55 1517.38 1543.69 Q1514.77 1540.82 1510.44 1540.82 Q1505.54 1540.82 1502.58 1543.59 Q1499.65 1546.36 1499.2 1551.39 L1520.08 1551.36 Z" fill="#000000" fill-rule="nonzero" fill-opacity="1" /><path clip-path="url(#clip500)" d="M1558.28 1537.77 L1558.28 1543.3 Q1555.79 1542.03 1553.12 1541.39 Q1550.45 1540.76 1547.58 1540.76 Q1543.22 1540.76 1541.02 1542.09 Q1538.86 1543.43 1538.86 1546.11 Q1538.86 1548.14 1540.42 1549.32 Q1541.98 1550.47 1546.69 1551.52 L1548.7 1551.96 Q1554.93 1553.3 1557.54 1555.75 Q1560.19 1558.17 1560.19 1562.53 Q1560.19 1567.49 1556.24 1570.39 Q1552.32 1573.29 1545.45 1573.29 Q1542.58 1573.29 1539.47 1572.71 Q1536.38 1572.17 1532.94 1571.06 L1532.94 1565.01 Q1536.19 1566.7 1539.34 1567.56 Q1542.49 1568.39 1545.58 1568.39 Q1549.71 1568.39 1551.94 1566.98 Q1554.17 1565.55 1554.17 1562.97 Q1554.17 1560.59 1552.55 1559.31 Q1550.96 1558.04 1545.51 1556.86 L1543.48 1556.39 Q1538.03 1555.24 1535.61 1552.88 Q1533.19 1550.5 1533.19 1546.36 Q1533.19 1541.33 1536.76 1538.59 Q1540.32 1535.86 1546.88 1535.86 Q1550.13 1535.86 1552.99 1536.33 Q1555.86 1536.81 1558.28 1537.77 Z" fill="#000000" fill-rule="nonzero" fill-opacity="1" /><path clip-path="url(#clip500)" d="M1575.3 1526.59 L1575.3 1536.72 L1587.37 1536.72 L1587.37 1541.27 L1575.3 1541.27 L1575.3 1560.62 Q1575.3 1564.98 1576.48 1566.22 Q1577.69 1567.46 1581.35 1567.46 L1587.37 1567.46 L1587.37 1572.36 L1581.35 1572.36 Q1574.57 1572.36 1571.99 1569.85 Q1569.42 1567.3 1569.42 1560.62 L1569.42 1541.27 L1565.12 1541.27 L1565.12 1536.72 L1569.42 1536.72 L1569.42 1526.59 L1575.3 1526.59 Z" fill="#000000" fill-rule="nonzero" fill-opacity="1" /><path clip-path="url(#clip500)" d="M1629.86 1522.9 Q1625.59 1530.22 1623.52 1537.38 Q1621.46 1544.55 1621.46 1551.9 Q1621.46 1559.25 1623.52 1566.48 Q1625.62 1573.67 1629.86 1580.96 L1624.77 1580.96 Q1619.99 1573.48 1617.6 1566.25 Q1615.25 1559.03 1615.25 1551.9 Q1615.25 1544.8 1617.6 1537.61 Q1619.96 1530.41 1624.77 1522.9 L1629.86 1522.9 Z" fill="#000000" fill-rule="nonzero" fill-opacity="1" /><path clip-path="url(#clip500)" d="M1641.22 1522.84 L1647.08 1522.84 L1647.08 1572.36 L1641.22 1572.36 L1641.22 1522.84 Z" fill="#000000" fill-rule="nonzero" fill-opacity="1" /><path clip-path="url(#clip500)" d="M1673.14 1540.82 Q1668.43 1540.82 1665.7 1544.51 Q1662.96 1548.17 1662.96 1554.57 Q1662.96 1560.97 1665.67 1564.66 Q1668.4 1568.32 1673.14 1568.32 Q1677.82 1568.32 1680.56 1564.63 Q1683.3 1560.94 1683.3 1554.57 Q1683.3 1548.24 1680.56 1544.55 Q1677.82 1540.82 1673.14 1540.82 M1673.14 1535.86 Q1680.78 1535.86 1685.14 1540.82 Q1689.5 1545.79 1689.5 1554.57 Q1689.5 1563.32 1685.14 1568.32 Q1680.78 1573.29 1673.14 1573.29 Q1665.47 1573.29 1661.11 1568.32 Q1656.79 1563.32 1656.79 1554.57 Q1656.79 1545.79 1661.11 1540.82 Q1665.47 1535.86 1673.14 1535.86 Z" fill="#000000" fill-rule="nonzero" fill-opacity="1" /><path clip-path="url(#clip500)" d="M1722.67 1554.13 Q1722.67 1547.76 1720.03 1544.26 Q1717.42 1540.76 1712.68 1540.76 Q1707.97 1540.76 1705.32 1544.26 Q1702.71 1547.76 1702.71 1554.13 Q1702.71 1560.46 1705.32 1563.96 Q1707.97 1567.46 1712.68 1567.46 Q1717.42 1567.46 1720.03 1563.96 Q1722.67 1560.46 1722.67 1554.13 M1728.53 1567.94 Q1728.53 1577.04 1724.48 1581.47 Q1720.44 1585.92 1712.1 1585.92 Q1709.02 1585.92 1706.28 1585.45 Q1703.54 1585 1700.96 1584.04 L1700.96 1578.35 Q1703.54 1579.75 1706.06 1580.42 Q1708.57 1581.08 1711.18 1581.08 Q1716.94 1581.08 1719.81 1578.06 Q1722.67 1575.07 1722.67 1568.99 L1722.67 1566.09 Q1720.86 1569.24 1718.02 1570.8 Q1715.19 1572.36 1711.24 1572.36 Q1704.69 1572.36 1700.68 1567.37 Q1696.67 1562.37 1696.67 1554.13 Q1696.67 1545.85 1700.68 1540.85 Q1704.69 1535.86 1711.24 1535.86 Q1715.19 1535.86 1718.02 1537.42 Q1720.86 1538.98 1722.67 1542.13 L1722.67 1536.72 L1728.53 1536.72 L1728.53 1567.94 Z" fill="#000000" fill-rule="nonzero" fill-opacity="1" /><path clip-path="url(#clip500)" d="M1784.04 1537.77 L1784.04 1543.3 Q1781.55 1542.03 1778.88 1541.39 Q1776.21 1540.76 1773.34 1540.76 Q1768.98 1540.76 1766.78 1542.09 Q1764.62 1543.43 1764.62 1546.11 Q1764.62 1548.14 1766.18 1549.32 Q1767.74 1550.47 1772.45 1551.52 L1774.46 1551.96 Q1780.69 1553.3 1783.3 1555.75 Q1785.95 1558.17 1785.95 1562.53 Q1785.95 1567.49 1782 1570.39 Q1778.08 1573.29 1771.21 1573.29 Q1768.34 1573.29 1765.22 1572.71 Q1762.14 1572.17 1758.7 1571.06 L1758.7 1565.01 Q1761.95 1566.7 1765.1 1567.56 Q1768.25 1568.39 1771.34 1568.39 Q1775.47 1568.39 1777.7 1566.98 Q1779.93 1565.55 1779.93 1562.97 Q1779.93 1560.59 1778.31 1559.31 Q1776.71 1558.04 1771.27 1556.86 L1769.24 1556.39 Q1763.79 1555.24 1761.37 1552.88 Q1758.95 1550.5 1758.95 1546.36 Q1758.95 1541.33 1762.52 1538.59 Q1766.08 1535.86 1772.64 1535.86 Q1775.89 1535.86 1778.75 1536.33 Q1781.62 1536.81 1784.04 1537.77 Z" fill="#000000" fill-rule="nonzero" fill-opacity="1" /><path clip-path="url(#clip500)" d="M1820.92 1538.08 L1820.92 1543.56 Q1818.44 1542.19 1815.93 1541.52 Q1813.45 1540.82 1810.9 1540.82 Q1805.2 1540.82 1802.05 1544.45 Q1798.9 1548.05 1798.9 1554.57 Q1798.9 1561.1 1802.05 1564.72 Q1805.2 1568.32 1810.9 1568.32 Q1813.45 1568.32 1815.93 1567.65 Q1818.44 1566.95 1820.92 1565.58 L1820.92 1571 Q1818.47 1572.14 1815.83 1572.71 Q1813.22 1573.29 1810.26 1573.29 Q1802.21 1573.29 1797.47 1568.23 Q1792.72 1563.17 1792.72 1554.57 Q1792.72 1545.85 1797.5 1540.85 Q1802.31 1535.86 1810.64 1535.86 Q1813.35 1535.86 1815.93 1536.43 Q1818.51 1536.97 1820.92 1538.08 Z" fill="#000000" fill-rule="nonzero" fill-opacity="1" /><path clip-path="url(#clip500)" d="M1847.31 1554.44 Q1840.21 1554.44 1837.48 1556.07 Q1834.74 1557.69 1834.74 1561.61 Q1834.74 1564.72 1836.78 1566.57 Q1838.84 1568.39 1842.38 1568.39 Q1847.25 1568.39 1850.18 1564.95 Q1853.14 1561.48 1853.14 1555.75 L1853.14 1554.44 L1847.31 1554.44 M1858.99 1552.03 L1858.99 1572.36 L1853.14 1572.36 L1853.14 1566.95 Q1851.13 1570.2 1848.14 1571.76 Q1845.15 1573.29 1840.82 1573.29 Q1835.34 1573.29 1832.1 1570.23 Q1828.88 1567.14 1828.88 1561.99 Q1828.88 1555.97 1832.89 1552.92 Q1836.93 1549.86 1844.92 1549.86 L1853.14 1549.86 L1853.14 1549.29 Q1853.14 1545.25 1850.46 1543.05 Q1847.82 1540.82 1843.01 1540.82 Q1839.96 1540.82 1837.06 1541.55 Q1834.17 1542.29 1831.49 1543.75 L1831.49 1538.34 Q1834.71 1537.1 1837.73 1536.49 Q1840.75 1535.86 1843.62 1535.86 Q1851.35 1535.86 1855.17 1539.87 Q1858.99 1543.88 1858.99 1552.03 Z" fill="#000000" fill-rule="nonzero" fill-opacity="1" /><path clip-path="url(#clip500)" d="M1871.05 1522.84 L1876.91 1522.84 L1876.91 1572.36 L1871.05 1572.36 L1871.05 1522.84 Z" fill="#000000" fill-rule="nonzero" fill-opacity="1" /><path clip-path="url(#clip500)" d="M1919.66 1553.08 L1919.66 1555.94 L1892.73 1555.94 Q1893.11 1561.99 1896.36 1565.17 Q1899.64 1568.32 1905.46 1568.32 Q1908.84 1568.32 1911.99 1567.49 Q1915.17 1566.67 1918.29 1565.01 L1918.29 1570.55 Q1915.14 1571.89 1911.83 1572.59 Q1908.52 1573.29 1905.11 1573.29 Q1896.58 1573.29 1891.58 1568.32 Q1886.62 1563.36 1886.62 1554.89 Q1886.62 1546.14 1891.33 1541.01 Q1896.07 1535.86 1904.09 1535.86 Q1911.29 1535.86 1915.46 1540.5 Q1919.66 1545.12 1919.66 1553.08 M1913.8 1551.36 Q1913.74 1546.55 1911.1 1543.69 Q1908.49 1540.82 1904.16 1540.82 Q1899.25 1540.82 1896.29 1543.59 Q1893.37 1546.36 1892.92 1551.39 L1913.8 1551.36 Z" fill="#000000" fill-rule="nonzero" fill-opacity="1" /><path clip-path="url(#clip500)" d="M1928.35 1522.9 L1933.44 1522.9 Q1938.21 1530.41 1940.57 1537.61 Q1942.96 1544.8 1942.96 1551.9 Q1942.96 1559.03 1940.57 1566.25 Q1938.21 1573.48 1933.44 1580.96 L1928.35 1580.96 Q1932.58 1573.67 1934.65 1566.48 Q1936.75 1559.25 1936.75 1551.9 Q1936.75 1544.55 1934.65 1537.38 Q1932.58 1530.22 1928.35 1522.9 Z" fill="#000000" fill-rule="nonzero" fill-opacity="1" /><polyline clip-path="url(#clip500)" style="stroke:#000000; stroke-linecap:round; stroke-linejoin:round; stroke-width:4; stroke-opacity:1; fill:none" points="249.542,1414.54 249.542,47.2441 "/>
<polyline clip-path="url(#clip500)" style="stroke:#000000; stroke-linecap:round; stroke-linejoin:round; stroke-width:4; stroke-opacity:1; fill:none" points="249.542,1414.54 268.44,1414.54 "/>
<polyline clip-path="url(#clip500)" style="stroke:#000000; stroke-linecap:round; stroke-linejoin:round; stroke-width:4; stroke-opacity:1; fill:none" points="249.542,1103.79 268.44,1103.79 "/>
<polyline clip-path="url(#clip500)" style="stroke:#000000; stroke-linecap:round; stroke-linejoin:round; stroke-width:4; stroke-opacity:1; fill:none" points="249.542,793.042 268.44,793.042 "/>
<polyline clip-path="url(#clip500)" style="stroke:#000000; stroke-linecap:round; stroke-linejoin:round; stroke-width:4; stroke-opacity:1; fill:none" points="249.542,482.293 268.44,482.293 "/>
<polyline clip-path="url(#clip500)" style="stroke:#000000; stroke-linecap:round; stroke-linejoin:round; stroke-width:4; stroke-opacity:1; fill:none" points="249.542,171.544 268.44,171.544 "/>
<path clip-path="url(#clip500)" d="M126.205 1400.34 Q122.593 1400.34 120.765 1403.9 Q118.959 1407.44 118.959 1414.57 Q118.959 1421.68 120.765 1425.25 Q122.593 1428.79 126.205 1428.79 Q129.839 1428.79 131.644 1425.25 Q133.473 1421.68 133.473 1414.57 Q133.473 1407.44 131.644 1403.9 Q129.839 1400.34 126.205 1400.34 M126.205 1396.63 Q132.015 1396.63 135.07 1401.24 Q138.149 1405.82 138.149 1414.57 Q138.149 1423.3 135.07 1427.91 Q132.015 1432.49 126.205 1432.49 Q120.394 1432.49 117.316 1427.91 Q114.26 1423.3 114.26 1414.57 Q114.26 1405.82 117.316 1401.24 Q120.394 1396.63 126.205 1396.63 Z" fill="#000000" fill-rule="nonzero" fill-opacity="1" /><path clip-path="url(#clip500)" d="M146.366 1425.94 L151.251 1425.94 L151.251 1431.82 L146.366 1431.82 L146.366 1425.94 Z" fill="#000000" fill-rule="nonzero" fill-opacity="1" /><path clip-path="url(#clip500)" d="M171.436 1400.34 Q167.825 1400.34 165.996 1403.9 Q164.19 1407.44 164.19 1414.57 Q164.19 1421.68 165.996 1425.25 Q167.825 1428.79 171.436 1428.79 Q175.07 1428.79 176.876 1425.25 Q178.704 1421.68 178.704 1414.57 Q178.704 1407.44 176.876 1403.9 Q175.07 1400.34 171.436 1400.34 M171.436 1396.63 Q177.246 1396.63 180.301 1401.24 Q183.38 1405.82 183.38 1414.57 Q183.38 1423.3 180.301 1427.91 Q177.246 1432.49 171.436 1432.49 Q165.626 1432.49 162.547 1427.91 Q159.491 1423.3 159.491 1414.57 Q159.491 1405.82 162.547 1401.24 Q165.626 1396.63 171.436 1396.63 Z" fill="#000000" fill-rule="nonzero" fill-opacity="1" /><path clip-path="url(#clip500)" d="M201.598 1400.34 Q197.987 1400.34 196.158 1403.9 Q194.352 1407.44 194.352 1414.57 Q194.352 1421.68 196.158 1425.25 Q197.987 1428.79 201.598 1428.79 Q205.232 1428.79 207.037 1425.25 Q208.866 1421.68 208.866 1414.57 Q208.866 1407.44 207.037 1403.9 Q205.232 1400.34 201.598 1400.34 M201.598 1396.63 Q207.408 1396.63 210.463 1401.24 Q213.542 1405.82 213.542 1414.57 Q213.542 1423.3 210.463 1427.91 Q207.408 1432.49 201.598 1432.49 Q195.787 1432.49 192.709 1427.91 Q189.653 1423.3 189.653 1414.57 Q189.653 1405.82 192.709 1401.24 Q195.787 1396.63 201.598 1396.63 Z" fill="#000000" fill-rule="nonzero" fill-opacity="1" /><path clip-path="url(#clip500)" d="M127.2 1089.59 Q123.589 1089.59 121.76 1093.15 Q119.955 1096.7 119.955 1103.83 Q119.955 1110.93 121.76 1114.5 Q123.589 1118.04 127.2 1118.04 Q130.834 1118.04 132.64 1114.5 Q134.468 1110.93 134.468 1103.83 Q134.468 1096.7 132.64 1093.15 Q130.834 1089.59 127.2 1089.59 M127.2 1085.89 Q133.01 1085.89 136.066 1090.49 Q139.144 1095.08 139.144 1103.83 Q139.144 1112.55 136.066 1117.16 Q133.01 1121.74 127.2 1121.74 Q121.39 1121.74 118.311 1117.16 Q115.256 1112.55 115.256 1103.83 Q115.256 1095.08 118.311 1090.49 Q121.39 1085.89 127.2 1085.89 Z" fill="#000000" fill-rule="nonzero" fill-opacity="1" /><path clip-path="url(#clip500)" d="M147.362 1115.19 L152.246 1115.19 L152.246 1121.07 L147.362 1121.07 L147.362 1115.19 Z" fill="#000000" fill-rule="nonzero" fill-opacity="1" /><path clip-path="url(#clip500)" d="M166.459 1117.14 L182.778 1117.14 L182.778 1121.07 L160.834 1121.07 L160.834 1117.14 Q163.496 1114.38 168.079 1109.75 Q172.686 1105.1 173.866 1103.76 Q176.112 1101.23 176.991 1099.5 Q177.894 1097.74 177.894 1096.05 Q177.894 1093.29 175.95 1091.56 Q174.028 1089.82 170.927 1089.82 Q168.727 1089.82 166.274 1090.58 Q163.843 1091.35 161.065 1092.9 L161.065 1088.18 Q163.89 1087.04 166.343 1086.46 Q168.797 1085.89 170.834 1085.89 Q176.204 1085.89 179.399 1088.57 Q182.593 1091.26 182.593 1095.75 Q182.593 1097.88 181.783 1099.8 Q180.996 1101.7 178.889 1104.29 Q178.311 1104.96 175.209 1108.18 Q172.107 1111.37 166.459 1117.14 Z" fill="#000000" fill-rule="nonzero" fill-opacity="1" /><path clip-path="url(#clip500)" d="M192.639 1086.51 L210.996 1086.51 L210.996 1090.45 L196.922 1090.45 L196.922 1098.92 Q197.94 1098.57 198.959 1098.41 Q199.977 1098.22 200.996 1098.22 Q206.783 1098.22 210.162 1101.39 Q213.542 1104.57 213.542 1109.98 Q213.542 1115.56 210.07 1118.66 Q206.598 1121.74 200.278 1121.74 Q198.102 1121.74 195.834 1121.37 Q193.588 1121 191.181 1120.26 L191.181 1115.56 Q193.264 1116.7 195.487 1117.25 Q197.709 1117.81 200.186 1117.81 Q204.19 1117.81 206.528 1115.7 Q208.866 1113.59 208.866 1109.98 Q208.866 1106.37 206.528 1104.27 Q204.19 1102.16 200.186 1102.16 Q198.311 1102.16 196.436 1102.58 Q194.584 1102.99 192.639 1103.87 L192.639 1086.51 Z" fill="#000000" fill-rule="nonzero" fill-opacity="1" /><path clip-path="url(#clip500)" d="M126.205 778.84 Q122.593 778.84 120.765 782.405 Q118.959 785.947 118.959 793.076 Q118.959 800.183 120.765 803.748 Q122.593 807.289 126.205 807.289 Q129.839 807.289 131.644 803.748 Q133.473 800.183 133.473 793.076 Q133.473 785.947 131.644 782.405 Q129.839 778.84 126.205 778.84 M126.205 775.137 Q132.015 775.137 135.07 779.743 Q138.149 784.327 138.149 793.076 Q138.149 801.803 135.07 806.41 Q132.015 810.993 126.205 810.993 Q120.394 810.993 117.316 806.41 Q114.26 801.803 114.26 793.076 Q114.26 784.327 117.316 779.743 Q120.394 775.137 126.205 775.137 Z" fill="#000000" fill-rule="nonzero" fill-opacity="1" /><path clip-path="url(#clip500)" d="M146.366 804.442 L151.251 804.442 L151.251 810.322 L146.366 810.322 L146.366 804.442 Z" fill="#000000" fill-rule="nonzero" fill-opacity="1" /><path clip-path="url(#clip500)" d="M161.482 775.762 L179.839 775.762 L179.839 779.697 L165.765 779.697 L165.765 788.169 Q166.783 787.822 167.802 787.66 Q168.82 787.475 169.839 787.475 Q175.626 787.475 179.005 790.646 Q182.385 793.817 182.385 799.234 Q182.385 804.813 178.913 807.914 Q175.44 810.993 169.121 810.993 Q166.945 810.993 164.677 810.623 Q162.431 810.252 160.024 809.512 L160.024 804.813 Q162.107 805.947 164.329 806.502 Q166.552 807.058 169.028 807.058 Q173.033 807.058 175.371 804.951 Q177.709 802.845 177.709 799.234 Q177.709 795.623 175.371 793.516 Q173.033 791.41 169.028 791.41 Q167.153 791.41 165.278 791.827 Q163.427 792.243 161.482 793.123 L161.482 775.762 Z" fill="#000000" fill-rule="nonzero" fill-opacity="1" /><path clip-path="url(#clip500)" d="M201.598 778.84 Q197.987 778.84 196.158 782.405 Q194.352 785.947 194.352 793.076 Q194.352 800.183 196.158 803.748 Q197.987 807.289 201.598 807.289 Q205.232 807.289 207.037 803.748 Q208.866 800.183 208.866 793.076 Q208.866 785.947 207.037 782.405 Q205.232 778.84 201.598 778.84 M201.598 775.137 Q207.408 775.137 210.463 779.743 Q213.542 784.327 213.542 793.076 Q213.542 801.803 210.463 806.41 Q207.408 810.993 201.598 810.993 Q195.787 810.993 192.709 806.41 Q189.653 801.803 189.653 793.076 Q189.653 784.327 192.709 779.743 Q195.787 775.137 201.598 775.137 Z" fill="#000000" fill-rule="nonzero" fill-opacity="1" /><path clip-path="url(#clip500)" d="M127.2 468.091 Q123.589 468.091 121.76 471.656 Q119.955 475.198 119.955 482.327 Q119.955 489.434 121.76 492.999 Q123.589 496.54 127.2 496.54 Q130.834 496.54 132.64 492.999 Q134.468 489.434 134.468 482.327 Q134.468 475.198 132.64 471.656 Q130.834 468.091 127.2 468.091 M127.2 464.388 Q133.01 464.388 136.066 468.994 Q139.144 473.578 139.144 482.327 Q139.144 491.054 136.066 495.661 Q133.01 500.244 127.2 500.244 Q121.39 500.244 118.311 495.661 Q115.256 491.054 115.256 482.327 Q115.256 473.578 118.311 468.994 Q121.39 464.388 127.2 464.388 Z" fill="#000000" fill-rule="nonzero" fill-opacity="1" /><path clip-path="url(#clip500)" d="M147.362 493.693 L152.246 493.693 L152.246 499.573 L147.362 499.573 L147.362 493.693 Z" fill="#000000" fill-rule="nonzero" fill-opacity="1" /><path clip-path="url(#clip500)" d="M161.251 465.013 L183.473 465.013 L183.473 467.003 L170.927 499.573 L166.042 499.573 L177.848 468.948 L161.251 468.948 L161.251 465.013 Z" fill="#000000" fill-rule="nonzero" fill-opacity="1" /><path clip-path="url(#clip500)" d="M192.639 465.013 L210.996 465.013 L210.996 468.948 L196.922 468.948 L196.922 477.42 Q197.94 477.073 198.959 476.911 Q199.977 476.726 200.996 476.726 Q206.783 476.726 210.162 479.897 Q213.542 483.068 213.542 488.485 Q213.542 494.064 210.07 497.165 Q206.598 500.244 200.278 500.244 Q198.102 500.244 195.834 499.874 Q193.588 499.503 191.181 498.763 L191.181 494.064 Q193.264 495.198 195.487 495.753 Q197.709 496.309 200.186 496.309 Q204.19 496.309 206.528 494.202 Q208.866 492.096 208.866 488.485 Q208.866 484.874 206.528 482.767 Q204.19 480.661 200.186 480.661 Q198.311 480.661 196.436 481.077 Q194.584 481.494 192.639 482.374 L192.639 465.013 Z" fill="#000000" fill-rule="nonzero" fill-opacity="1" /><path clip-path="url(#clip500)" d="M117.015 184.889 L124.654 184.889 L124.654 158.523 L116.343 160.19 L116.343 155.93 L124.607 154.264 L129.283 154.264 L129.283 184.889 L136.922 184.889 L136.922 188.824 L117.015 188.824 L117.015 184.889 Z" fill="#000000" fill-rule="nonzero" fill-opacity="1" /><path clip-path="url(#clip500)" d="M146.366 182.944 L151.251 182.944 L151.251 188.824 L146.366 188.824 L146.366 182.944 Z" fill="#000000" fill-rule="nonzero" fill-opacity="1" /><path clip-path="url(#clip500)" d="M171.436 157.342 Q167.825 157.342 165.996 160.907 Q164.19 164.449 164.19 171.578 Q164.19 178.685 165.996 182.25 Q167.825 185.791 171.436 185.791 Q175.07 185.791 176.876 182.25 Q178.704 178.685 178.704 171.578 Q178.704 164.449 176.876 160.907 Q175.07 157.342 171.436 157.342 M171.436 153.639 Q177.246 153.639 180.301 158.245 Q183.38 162.828 183.38 171.578 Q183.38 180.305 180.301 184.912 Q177.246 189.495 171.436 189.495 Q165.626 189.495 162.547 184.912 Q159.491 180.305 159.491 171.578 Q159.491 162.828 162.547 158.245 Q165.626 153.639 171.436 153.639 Z" fill="#000000" fill-rule="nonzero" fill-opacity="1" /><path clip-path="url(#clip500)" d="M201.598 157.342 Q197.987 157.342 196.158 160.907 Q194.352 164.449 194.352 171.578 Q194.352 178.685 196.158 182.25 Q197.987 185.791 201.598 185.791 Q205.232 185.791 207.037 182.25 Q208.866 178.685 208.866 171.578 Q208.866 164.449 207.037 160.907 Q205.232 157.342 201.598 157.342 M201.598 153.639 Q207.408 153.639 210.463 158.245 Q213.542 162.828 213.542 171.578 Q213.542 180.305 210.463 184.912 Q207.408 189.495 201.598 189.495 Q195.787 189.495 192.709 184.912 Q189.653 180.305 189.653 171.578 Q189.653 162.828 192.709 158.245 Q195.787 153.639 201.598 153.639 Z" fill="#000000" fill-rule="nonzero" fill-opacity="1" /><path clip-path="url(#clip500)" d="M21.7677 1091.81 L39.6235 1091.81 L39.6235 1083.73 Q39.6235 1079.24 37.3 1076.79 Q34.9765 1074.34 30.6797 1074.34 Q26.4147 1074.34 24.0912 1076.79 Q21.7677 1079.24 21.7677 1083.73 L21.7677 1091.81 M16.4842 1098.24 L16.4842 1083.73 Q16.4842 1075.74 20.1126 1071.66 Q23.7092 1067.56 30.6797 1067.56 Q37.7138 1067.56 41.3104 1071.66 Q44.907 1075.74 44.907 1083.73 L44.907 1091.81 L64.0042 1091.81 L64.0042 1098.24 L16.4842 1098.24 Z" fill="#000000" fill-rule="nonzero" fill-opacity="1" /><path clip-path="url(#clip500)" d="M33.8307 1039.68 Q33.2578 1040.66 33.0032 1041.84 Q32.7167 1042.99 32.7167 1044.39 Q32.7167 1049.35 35.9632 1052.03 Q39.1779 1054.67 45.2253 1054.67 L64.0042 1054.67 L64.0042 1060.56 L28.3562 1060.56 L28.3562 1054.67 L33.8944 1054.67 Q30.6479 1052.82 29.0883 1049.86 Q27.4968 1046.9 27.4968 1042.67 Q27.4968 1042.06 27.5923 1041.33 Q27.656 1040.6 27.8151 1039.71 L33.8307 1039.68 Z" fill="#000000" fill-rule="nonzero" fill-opacity="1" /><path clip-path="url(#clip500)" d="M32.4621 1021.15 Q32.4621 1025.86 36.1542 1028.6 Q39.8145 1031.34 46.212 1031.34 Q52.6095 1031.34 56.3017 1028.63 Q59.9619 1025.89 59.9619 1021.15 Q59.9619 1016.47 56.2698 1013.74 Q52.5777 1011 46.212 1011 Q39.8781 1011 36.186 1013.74 Q32.4621 1016.47 32.4621 1021.15 M27.4968 1021.15 Q27.4968 1013.51 32.4621 1009.15 Q37.4273 1004.79 46.212 1004.79 Q54.9649 1004.79 59.9619 1009.15 Q64.9272 1013.51 64.9272 1021.15 Q64.9272 1028.82 59.9619 1033.18 Q54.9649 1037.51 46.212 1037.51 Q37.4273 1037.51 32.4621 1033.18 Q27.4968 1028.82 27.4968 1021.15 Z" fill="#000000" fill-rule="nonzero" fill-opacity="1" /><path clip-path="url(#clip500)" d="M58.657 989.419 L77.5631 989.419 L77.5631 995.308 L28.3562 995.308 L28.3562 989.419 L33.7671 989.419 Q30.5842 987.573 29.0564 984.772 Q27.4968 981.94 27.4968 978.025 Q27.4968 971.532 32.6531 967.489 Q37.8093 963.415 46.212 963.415 Q54.6147 963.415 59.771 967.489 Q64.9272 971.532 64.9272 978.025 Q64.9272 981.94 63.3994 984.772 Q61.8398 987.573 58.657 989.419 M46.212 969.495 Q39.7508 969.495 36.0905 972.168 Q32.3984 974.81 32.3984 979.457 Q32.3984 984.104 36.0905 986.777 Q39.7508 989.419 46.212 989.419 Q52.6732 989.419 56.3653 986.777 Q60.0256 984.104 60.0256 979.457 Q60.0256 974.81 56.3653 972.168 Q52.6732 969.495 46.212 969.495 Z" fill="#000000" fill-rule="nonzero" fill-opacity="1" /><path clip-path="url(#clip500)" d="M32.4621 939.894 Q32.4621 944.605 36.1542 947.342 Q39.8145 950.079 46.212 950.079 Q52.6095 950.079 56.3017 947.374 Q59.9619 944.636 59.9619 939.894 Q59.9619 935.215 56.2698 932.478 Q52.5777 929.741 46.212 929.741 Q39.8781 929.741 36.186 932.478 Q32.4621 935.215 32.4621 939.894 M27.4968 939.894 Q27.4968 932.255 32.4621 927.895 Q37.4273 923.534 46.212 923.534 Q54.9649 923.534 59.9619 927.895 Q64.9272 932.255 64.9272 939.894 Q64.9272 947.565 59.9619 951.925 Q54.9649 956.254 46.212 956.254 Q37.4273 956.254 32.4621 951.925 Q27.4968 947.565 27.4968 939.894 Z" fill="#000000" fill-rule="nonzero" fill-opacity="1" /><path clip-path="url(#clip500)" d="M33.8307 893.17 Q33.2578 894.156 33.0032 895.334 Q32.7167 896.48 32.7167 897.88 Q32.7167 902.846 35.9632 905.519 Q39.1779 908.161 45.2253 908.161 L64.0042 908.161 L64.0042 914.049 L28.3562 914.049 L28.3562 908.161 L33.8944 908.161 Q30.6479 906.315 29.0883 903.355 Q27.4968 900.395 27.4968 896.162 Q27.4968 895.557 27.5923 894.825 Q27.656 894.093 27.8151 893.202 L33.8307 893.17 Z" fill="#000000" fill-rule="nonzero" fill-opacity="1" /><path clip-path="url(#clip500)" d="M18.2347 881.234 L28.3562 881.234 L28.3562 869.171 L32.9077 869.171 L32.9077 881.234 L52.2594 881.234 Q56.6199 881.234 57.8613 880.056 Q59.1026 878.847 59.1026 875.187 L59.1026 869.171 L64.0042 869.171 L64.0042 875.187 Q64.0042 881.966 61.4897 884.544 Q58.9434 887.122 52.2594 887.122 L32.9077 887.122 L32.9077 891.419 L28.3562 891.419 L28.3562 887.122 L18.2347 887.122 L18.2347 881.234 Z" fill="#000000" fill-rule="nonzero" fill-opacity="1" /><path clip-path="url(#clip500)" d="M28.3562 861.469 L28.3562 855.612 L64.0042 855.612 L64.0042 861.469 L28.3562 861.469 M14.479 861.469 L14.479 855.612 L21.895 855.612 L21.895 861.469 L14.479 861.469 Z" fill="#000000" fill-rule="nonzero" fill-opacity="1" /><path clip-path="url(#clip500)" d="M32.4621 829.545 Q32.4621 834.255 36.1542 836.992 Q39.8145 839.73 46.212 839.73 Q52.6095 839.73 56.3017 837.024 Q59.9619 834.287 59.9619 829.545 Q59.9619 824.866 56.2698 822.128 Q52.5777 819.391 46.212 819.391 Q39.8781 819.391 36.186 822.128 Q32.4621 824.866 32.4621 829.545 M27.4968 829.545 Q27.4968 821.906 32.4621 817.545 Q37.4273 813.185 46.212 813.185 Q54.9649 813.185 59.9619 817.545 Q64.9272 821.906 64.9272 829.545 Q64.9272 837.215 59.9619 841.576 Q54.9649 845.904 46.212 845.904 Q37.4273 845.904 32.4621 841.576 Q27.4968 837.215 27.4968 829.545 Z" fill="#000000" fill-rule="nonzero" fill-opacity="1" /><path clip-path="url(#clip500)" d="M42.4881 773.845 L64.0042 773.845 L64.0042 779.701 L42.679 779.701 Q37.6183 779.701 35.1038 781.674 Q32.5894 783.648 32.5894 787.595 Q32.5894 792.337 35.6131 795.074 Q38.6368 797.811 43.8567 797.811 L64.0042 797.811 L64.0042 803.7 L28.3562 803.7 L28.3562 797.811 L33.8944 797.811 Q30.6797 795.711 29.0883 792.878 Q27.4968 790.013 27.4968 786.29 Q27.4968 780.147 31.3163 776.996 Q35.1038 773.845 42.4881 773.845 Z" fill="#000000" fill-rule="nonzero" fill-opacity="1" /><path clip-path="url(#clip500)" d="M32.4621 727.63 Q32.4621 732.34 36.1542 735.077 Q39.8145 737.815 46.212 737.815 Q52.6095 737.815 56.3017 735.109 Q59.9619 732.372 59.9619 727.63 Q59.9619 722.951 56.2698 720.213 Q52.5777 717.476 46.212 717.476 Q39.8781 717.476 36.186 720.213 Q32.4621 722.951 32.4621 727.63 M27.4968 727.63 Q27.4968 719.991 32.4621 715.63 Q37.4273 711.27 46.212 711.27 Q54.9649 711.27 59.9619 715.63 Q64.9272 719.991 64.9272 727.63 Q64.9272 735.3 59.9619 739.661 Q54.9649 743.989 46.212 743.989 Q37.4273 743.989 32.4621 739.661 Q27.4968 735.3 27.4968 727.63 Z" fill="#000000" fill-rule="nonzero" fill-opacity="1" /><path clip-path="url(#clip500)" d="M14.479 683.515 L19.3487 683.515 L19.3487 689.117 Q19.3487 692.268 20.6219 693.509 Q21.895 694.719 25.2052 694.719 L28.3562 694.719 L28.3562 685.075 L32.9077 685.075 L32.9077 694.719 L64.0042 694.719 L64.0042 700.607 L32.9077 700.607 L32.9077 706.209 L28.3562 706.209 L28.3562 700.607 L25.8736 700.607 Q19.9216 700.607 17.2162 697.838 Q14.479 695.069 14.479 689.053 L14.479 683.515 Z" fill="#000000" fill-rule="nonzero" fill-opacity="1" /><path clip-path="url(#clip500)" d="M58.657 652.228 L77.5631 652.228 L77.5631 658.116 L28.3562 658.116 L28.3562 652.228 L33.7671 652.228 Q30.5842 650.382 29.0564 647.581 Q27.4968 644.748 27.4968 640.833 Q27.4968 634.34 32.6531 630.298 Q37.8093 626.224 46.212 626.224 Q54.6147 626.224 59.771 630.298 Q64.9272 634.34 64.9272 640.833 Q64.9272 644.748 63.3994 647.581 Q61.8398 650.382 58.657 652.228 M46.212 632.303 Q39.7508 632.303 36.0905 634.977 Q32.3984 637.618 32.3984 642.265 Q32.3984 646.912 36.0905 649.586 Q39.7508 652.228 46.212 652.228 Q52.6732 652.228 56.3653 649.586 Q60.0256 646.912 60.0256 642.265 Q60.0256 637.618 56.3653 634.977 Q52.6732 632.303 46.212 632.303 Z" fill="#000000" fill-rule="nonzero" fill-opacity="1" /><path clip-path="url(#clip500)" d="M33.8307 595.859 Q33.2578 596.846 33.0032 598.024 Q32.7167 599.17 32.7167 600.57 Q32.7167 605.535 35.9632 608.209 Q39.1779 610.851 45.2253 610.851 L64.0042 610.851 L64.0042 616.739 L28.3562 616.739 L28.3562 610.851 L33.8944 610.851 Q30.6479 609.005 29.0883 606.045 Q27.4968 603.084 27.4968 598.851 Q27.4968 598.247 27.5923 597.515 Q27.656 596.782 27.8151 595.891 L33.8307 595.859 Z" fill="#000000" fill-rule="nonzero" fill-opacity="1" /><path clip-path="url(#clip500)" d="M32.4621 577.335 Q32.4621 582.046 36.1542 584.783 Q39.8145 587.52 46.212 587.52 Q52.6095 587.52 56.3017 584.815 Q59.9619 582.078 59.9619 577.335 Q59.9619 572.656 56.2698 569.919 Q52.5777 567.182 46.212 567.182 Q39.8781 567.182 36.186 569.919 Q32.4621 572.656 32.4621 577.335 M27.4968 577.335 Q27.4968 569.696 32.4621 565.336 Q37.4273 560.975 46.212 560.975 Q54.9649 560.975 59.9619 565.336 Q64.9272 569.696 64.9272 577.335 Q64.9272 585.006 59.9619 589.366 Q54.9649 593.695 46.212 593.695 Q37.4273 593.695 32.4621 589.366 Q27.4968 585.006 27.4968 577.335 Z" fill="#000000" fill-rule="nonzero" fill-opacity="1" /><path clip-path="url(#clip500)" d="M46.212 525.678 Q39.7508 525.678 36.0905 528.351 Q32.3984 530.993 32.3984 535.64 Q32.3984 540.287 36.0905 542.96 Q39.7508 545.602 46.212 545.602 Q52.6732 545.602 56.3653 542.96 Q60.0256 540.287 60.0256 535.64 Q60.0256 530.993 56.3653 528.351 Q52.6732 525.678 46.212 525.678 M33.7671 545.602 Q30.5842 543.756 29.0564 540.955 Q27.4968 538.122 27.4968 534.208 Q27.4968 527.715 32.6531 523.672 Q37.8093 519.598 46.212 519.598 Q54.6147 519.598 59.771 523.672 Q64.9272 527.715 64.9272 534.208 Q64.9272 538.122 63.3994 540.955 Q61.8398 543.756 58.657 545.602 L64.0042 545.602 L64.0042 551.49 L14.479 551.49 L14.479 545.602 L33.7671 545.602 Z" fill="#000000" fill-rule="nonzero" fill-opacity="1" /><path clip-path="url(#clip500)" d="M14.479 509.891 L14.479 504.034 L64.0042 504.034 L64.0042 509.891 L14.479 509.891 Z" fill="#000000" fill-rule="nonzero" fill-opacity="1" /><path clip-path="url(#clip500)" d="M44.7161 461.288 L47.5806 461.288 L47.5806 488.215 Q53.6281 487.833 56.8109 484.587 Q59.9619 481.309 59.9619 475.484 Q59.9619 472.11 59.1344 468.959 Q58.3069 465.776 56.6518 462.657 L62.1899 462.657 Q63.5267 465.808 64.227 469.118 Q64.9272 472.428 64.9272 475.834 Q64.9272 484.364 59.9619 489.361 Q54.9967 494.326 46.5303 494.326 Q37.7774 494.326 32.6531 489.616 Q27.4968 484.873 27.4968 476.853 Q27.4968 469.659 32.1438 465.49 Q36.7589 461.288 44.7161 461.288 M42.9973 467.145 Q38.1912 467.208 35.3266 469.85 Q32.4621 472.46 32.4621 476.789 Q32.4621 481.69 35.2312 484.651 Q38.0002 487.579 43.0292 488.024 L42.9973 467.145 Z" fill="#000000" fill-rule="nonzero" fill-opacity="1" /><path clip-path="url(#clip500)" d="M35.1993 423.922 Q31.2526 421.726 29.3747 418.67 Q27.4968 415.614 27.4968 411.477 Q27.4968 405.907 31.4117 402.883 Q35.2948 399.859 42.4881 399.859 L64.0042 399.859 L64.0042 405.748 L42.679 405.748 Q37.5546 405.748 35.072 407.562 Q32.5894 409.376 32.5894 413.1 Q32.5894 417.651 35.6131 420.293 Q38.6368 422.935 43.8567 422.935 L64.0042 422.935 L64.0042 428.823 L42.679 428.823 Q37.5228 428.823 35.072 430.638 Q32.5894 432.452 32.5894 436.239 Q32.5894 440.727 35.6449 443.369 Q38.6686 446.011 43.8567 446.011 L64.0042 446.011 L64.0042 451.899 L28.3562 451.899 L28.3562 446.011 L33.8944 446.011 Q30.616 444.005 29.0564 441.205 Q27.4968 438.404 27.4968 434.552 Q27.4968 430.669 29.4702 427.964 Q31.4436 425.227 35.1993 423.922 Z" fill="#000000" fill-rule="nonzero" fill-opacity="1" /><path clip-path="url(#clip500)" d="M29.4065 365.453 L34.9447 365.453 Q33.6716 367.935 33.035 370.609 Q32.3984 373.282 32.3984 376.147 Q32.3984 380.508 33.7352 382.704 Q35.072 384.868 37.7456 384.868 Q39.7826 384.868 40.9603 383.308 Q42.1061 381.749 43.1565 377.038 L43.6021 375.033 Q44.9389 368.795 47.3897 366.185 Q49.8086 363.543 54.1691 363.543 Q59.1344 363.543 62.0308 367.49 Q64.9272 371.405 64.9272 378.28 Q64.9272 381.144 64.3543 384.263 Q63.8132 387.351 62.6992 390.788 L56.6518 390.788 Q58.3387 387.542 59.198 384.391 Q60.0256 381.24 60.0256 378.152 Q60.0256 374.015 58.6251 371.787 Q57.1929 369.559 54.6147 369.559 Q52.2276 369.559 50.9545 371.182 Q49.6813 372.773 48.5037 378.216 L48.0262 380.253 Q46.8804 385.696 44.5251 388.115 Q42.138 390.534 38.0002 390.534 Q32.9713 390.534 30.2341 386.969 Q27.4968 383.404 27.4968 376.847 Q27.4968 373.601 27.9743 370.736 Q28.4517 367.872 29.4065 365.453 Z" fill="#000000" fill-rule="nonzero" fill-opacity="1" /><polyline clip-path="url(#clip502)" style="stroke:#009af9; stroke-linecap:round; stroke-linejoin:round; stroke-width:4; stroke-opacity:1; fill:none" points="249.542,1371.83 253.447,1371.83 253.447,1367.55 254.274,1367.55 254.274,1363.28 256.101,1363.28 256.101,1359.01 257.566,1359.01 257.566,1354.74 258.438,1354.74 258.438,1350.47 259.086,1350.47 259.086,1346.2 263.566,1346.2 263.566,1341.92 265.18,1341.92 265.18,1337.65 266.296,1337.65 266.296,1333.38 269.929,1333.38 269.929,1329.11 270.27,1329.11 270.27,1324.84 285.647,1324.84 285.647,1320.57 288.48,1320.57 288.48,1316.3 289.765,1316.3 289.765,1312.02 291.888,1312.02 291.888,1307.75 296.23,1307.75 296.23,1303.48 296.777,1303.48 296.777,1299.21 298.863,1299.21 298.863,1294.94 302.935,1294.94 302.935,1290.67 304.342,1290.67 304.342,1286.4 305.18,1286.4 305.18,1282.12 307.446,1282.12 307.446,1277.85 309.992,1277.85 309.992,1273.58 312.834,1273.58 312.834,1269.31 314.411,1269.31 314.411,1265.04 315.948,1265.04 315.948,1260.77 317.074,1260.77 317.074,1256.5 317.682,1256.5 317.682,1252.22 318.302,1252.22 318.302,1247.95 318.457,1247.95 318.457,1243.68 320.087,1243.68 320.087,1239.41 320.211,1239.41 320.211,1235.14 320.385,1235.14 320.385,1230.87 320.519,1230.87 320.519,1226.6 321.235,1226.6 321.235,1222.32 321.686,1222.32 321.686,1218.05 322.893,1218.05 322.893,1213.78 323.044,1213.78 323.044,1209.51 323.714,1209.51 323.714,1205.24 324.322,1205.24 324.322,1200.97 324.68,1200.97 324.68,1196.7 326.094,1196.7 326.094,1192.42 326.254,1192.42 326.254,1188.15 327.666,1188.15 327.666,1183.88 329.451,1183.88 329.451,1179.61 329.588,1179.61 329.588,1175.34 330.716,1175.34 330.716,1171.07 336.516,1171.07 336.516,1166.79 337.914,1166.79 337.914,1162.52 338.561,1162.52 338.561,1158.25 338.896,1158.25 338.896,1153.98 340.971,1153.98 340.971,1149.71 341.436,1149.71 341.436,1145.44 342.671,1145.44 342.671,1141.17 346.983,1141.17 346.983,1136.89 347.662,1136.89 347.662,1132.62 347.715,1132.62 347.715,1128.35 348.872,1128.35 348.872,1124.08 349.367,1124.08 349.367,1119.81 349.559,1119.81 349.559,1115.54 349.901,1115.54 349.901,1111.27 351.298,1111.27 351.298,1106.99 353.892,1106.99 353.892,1102.72 354.161,1102.72 354.161,1098.45 356.959,1098.45 356.959,1094.18 357.466,1094.18 357.466,1089.91 358.051,1089.91 358.051,1085.64 359.996,1085.64 359.996,1081.37 360.984,1081.37 360.984,1077.09 361.505,1077.09 361.505,1072.82 361.646,1072.82 361.646,1068.55 362.312,1068.55 362.312,1064.28 363.066,1064.28 363.066,1060.01 365.04,1060.01 365.04,1055.74 366.448,1055.74 366.448,1051.47 366.636,1051.47 366.636,1047.19 367.718,1047.19 367.718,1042.92 368.562,1042.92 368.562,1038.65 369.261,1038.65 369.261,1034.38 370.317,1034.38 370.317,1030.11 371.425,1030.11 371.425,1025.84 371.431,1025.84 371.431,1021.57 373.481,1021.57 373.481,1017.29 373.51,1017.29 373.51,1013.02 374.949,1013.02 374.949,1008.75 375.376,1008.75 375.376,1004.48 377.636,1004.48 377.636,1000.21 377.708,1000.21 377.708,995.936 378.67,995.936 378.67,991.665 379.563,991.665 379.563,987.393 380.423,987.393 380.423,983.122 380.829,983.122 380.829,978.85 380.863,978.85 380.863,974.579 380.92,974.579 380.92,970.308 381.39,970.308 381.39,966.036 383.894,966.036 383.894,961.765 384.535,961.765 384.535,957.493 384.702,957.493 384.702,953.222 384.763,953.222 384.763,948.95 385.336,948.95 385.336,944.679 385.819,944.679 385.819,940.407 388.502,940.407 388.502,936.136 388.79,936.136 388.79,931.864 389.746,931.864 389.746,927.593 390.45,927.593 390.45,923.321 391.237,923.321 391.237,919.05 395.983,919.05 395.983,914.779 396.484,914.779 396.484,910.507 397.775,910.507 397.775,906.236 397.882,906.236 397.882,901.964 397.919,901.964 397.919,897.693 399.973,897.693 399.973,893.421 400.97,893.421 400.97,889.15 402.625,889.15 402.625,884.878 406.495,884.878 406.495,880.607 408.119,880.607 408.119,876.335 412.932,876.335 412.932,872.064 413.78,872.064 413.78,867.792 413.793,867.792 413.793,863.521 415.468,863.521 415.468,859.249 416.251,859.249 416.251,854.978 417.755,854.978 417.755,850.707 419.558,850.707 419.558,846.435 421.171,846.435 421.171,842.164 421.628,842.164 421.628,837.892 423.837,837.892 423.837,833.621 427.314,833.621 427.314,829.349 428.326,829.349 428.326,825.078 428.503,825.078 428.503,820.806 430.766,820.806 430.766,816.535 432.947,816.535 432.947,812.263 433.297,812.263 433.297,807.992 434.915,807.992 434.915,803.72 436.383,803.72 436.383,799.449 436.542,799.449 436.542,795.178 436.647,795.178 436.647,790.906 440.414,790.906 440.414,786.635 440.769,786.635 440.769,782.363 443.019,782.363 443.019,778.092 443.773,778.092 443.773,773.82 444.08,773.82 444.08,769.549 446.768,769.549 446.768,765.277 447.881,765.277 447.881,761.006 448.842,761.006 448.842,756.734 449.32,756.734 449.32,752.463 450.981,752.463 450.981,748.191 451.728,748.191 451.728,743.92 452.057,743.92 452.057,739.648 452.176,739.648 452.176,735.377 452.317,735.377 452.317,731.106 453.078,731.106 453.078,726.834 453.628,726.834 453.628,722.563 454.213,722.563 454.213,718.291 457.48,718.291 457.48,714.02 458.755,714.02 458.755,709.748 458.845,709.748 458.845,705.477 459.033,705.477 459.033,701.205 461.241,701.205 461.241,696.934 462.61,696.934 462.61,692.662 463.801,692.662 463.801,688.391 466.804,688.391 466.804,684.119 469.309,684.119 469.309,679.848 470.022,679.848 470.022,675.577 471.1,675.577 471.1,671.305 471.687,671.305 471.687,667.034 473.21,667.034 473.21,662.762 473.333,662.762 473.333,658.491 476.929,658.491 476.929,654.219 478.815,654.219 478.815,649.948 479.839,649.948 479.839,645.676 480.011,645.676 480.011,641.405 481.911,641.405 481.911,637.133 482.675,637.133 482.675,632.862 484.251,632.862 484.251,628.59 486.16,628.59 486.16,624.319 487.501,624.319 487.501,620.047 490.71,620.047 490.71,615.776 494.05,615.776 494.05,611.505 496.013,611.505 496.013,607.233 497.601,607.233 497.601,602.962 497.602,602.962 497.602,598.69 499.348,598.69 499.348,594.419 499.377,594.419 499.377,590.147 500.646,590.147 500.646,585.876 501.211,585.876 501.211,581.604 503.087,581.604 503.087,577.333 503.712,577.333 503.712,573.061 503.835,573.061 503.835,568.79 507.557,568.79 507.557,564.518 508.127,564.518 508.127,560.247 509.083,560.247 509.083,555.976 512.279,555.976 512.279,551.704 515.92,551.704 515.92,547.433 516.81,547.433 516.81,543.161 521.971,543.161 521.971,538.89 523.743,538.89 523.743,534.618 524.312,534.618 524.312,530.347 529.308,530.347 529.308,526.075 531.071,526.075 531.071,521.804 535.74,521.804 535.74,517.532 541.43,517.532 541.43,513.261 542.825,513.261 542.825,508.989 543.442,508.989 543.442,504.718 547.638,504.718 547.638,500.446 554.407,500.446 554.407,496.175 554.834,496.175 554.834,491.904 556.345,491.904 556.345,487.632 564.043,487.632 564.043,483.361 566.008,483.361 566.008,479.089 566.044,479.089 566.044,474.818 566.106,474.818 566.106,470.546 571.551,470.546 571.551,466.275 575.768,466.275 575.768,462.003 580.844,462.003 580.844,457.732 581.764,457.732 581.764,453.46 585.079,453.46 585.079,449.189 585.365,449.189 585.365,444.917 590.276,444.917 590.276,440.646 599.354,440.646 599.354,436.374 599.529,436.374 599.529,432.103 600.905,432.103 600.905,427.832 601.696,427.832 601.696,423.56 604.068,423.56 604.068,419.289 607.752,419.289 607.752,415.017 632.774,415.017 632.774,410.746 632.958,410.746 632.958,406.474 674.166,406.474 674.166,402.203 675.911,402.203 675.911,397.931 677.718,397.931 677.718,393.66 681.503,393.66 681.503,389.388 692.548,389.388 692.548,385.117 706.798,385.117 706.798,380.845 715.473,380.845 715.473,376.574 727.42,376.574 727.42,372.303 727.6,372.303 727.6,368.031 739.428,368.031 739.428,363.76 755.596,363.76 755.596,359.488 792.767,359.488 792.767,355.217 815.913,355.217 815.913,350.945 823.193,350.945 823.193,346.674 851.599,346.674 851.599,342.402 857.728,342.402 857.728,338.131 881.212,338.131 881.212,333.859 894.378,333.859 894.378,329.588 901.48,329.588 901.48,325.316 913.787,325.316 913.787,321.045 916.079,321.045 916.079,316.773 929.724,316.773 929.724,312.502 1031.78,312.502 1031.78,308.231 1034.17,308.231 1034.17,303.959 1105.23,303.959 1105.23,299.688 1142.12,299.688 1142.12,295.416 1142.27,295.416 1142.27,291.145 1187.6,291.145 1187.6,286.873 1206.51,286.873 1206.51,282.602 1223.5,282.602 1223.5,278.33 1251.35,278.33 1251.35,274.059 1389.65,274.059 1389.65,269.787 1511.45,269.787 1511.45,265.516 1514.51,265.516 1514.51,261.244 1525.41,261.244 1525.41,256.973 2161.55,256.973 2161.55,252.702 4073.57,252.702 4073.57,167.272 "/>
<polyline clip-path="url(#clip502)" style="stroke:#e26f46; stroke-linecap:round; stroke-linejoin:round; stroke-width:4; stroke-opacity:1; fill:none" points="249.542,1145.44 251.009,1145.44 251.009,1141.17 254.919,1141.17 254.919,1136.89 260.045,1136.89 260.045,1132.62 260.396,1132.62 260.396,1128.35 261.274,1128.35 261.274,1124.08 261.553,1124.08 261.553,1119.81 262.431,1119.81 262.431,1115.54 263.494,1115.54 263.494,1111.27 266.296,1111.27 266.296,1106.99 266.807,1106.99 266.807,1102.72 268.127,1102.72 268.127,1098.45 268.581,1098.45 268.581,1094.18 271.024,1094.18 271.024,1089.91 275.435,1089.91 275.435,1085.64 275.715,1085.64 275.715,1081.37 279.878,1081.37 279.878,1077.09 280.931,1077.09 280.931,1072.82 281.962,1072.82 281.962,1068.55 282.211,1068.55 282.211,1064.28 282.68,1064.28 282.68,1060.01 282.695,1060.01 282.695,1055.74 282.839,1055.74 282.839,1051.47 285.221,1051.47 285.221,1047.19 285.946,1047.19 285.946,1042.92 285.95,1042.92 285.95,1038.65 286.17,1038.65 286.17,1034.38 286.326,1034.38 286.326,1030.11 286.671,1030.11 286.671,1025.84 290.593,1025.84 290.593,1021.57 291.186,1021.57 291.186,1017.29 292.483,1017.29 292.483,1013.02 296.23,1013.02 296.23,1008.75 297.961,1008.75 297.961,1004.48 299.721,1004.48 299.721,1000.21 302.044,1000.21 302.044,995.936 302.405,995.936 302.405,991.665 302.821,991.665 302.821,987.393 304.309,987.393 304.309,983.122 304.629,983.122 304.629,978.85 306.974,978.85 306.974,974.579 306.996,974.579 306.996,970.308 308.705,970.308 308.705,966.036 308.918,966.036 308.918,961.765 310.184,961.765 310.184,957.493 310.204,957.493 310.204,953.222 311.327,953.222 311.327,948.95 311.941,948.95 311.941,944.679 314.729,944.679 314.729,940.407 316.087,940.407 316.087,936.136 317.134,936.136 317.134,931.864 320.833,931.864 320.833,927.593 320.986,927.593 320.986,923.321 323.175,923.321 323.175,919.05 324.454,919.05 324.454,914.779 325.663,914.779 325.663,910.507 328.196,910.507 328.196,906.236 330.746,906.236 330.746,901.964 332.304,901.964 332.304,897.693 333.87,897.693 333.87,893.421 334.092,893.421 334.092,889.15 334.556,889.15 334.556,884.878 335.955,884.878 335.955,880.607 336.074,880.607 336.074,876.335 336.259,876.335 336.259,872.064 337.304,872.064 337.304,867.792 337.528,867.792 337.528,863.521 338.724,863.521 338.724,859.249 341.805,859.249 341.805,854.978 345.264,854.978 345.264,850.707 345.377,850.707 345.377,846.435 345.638,846.435 345.638,842.164 346.496,842.164 346.496,837.892 346.584,837.892 346.584,833.621 346.952,833.621 346.952,829.349 349.042,829.349 349.042,825.078 350.447,825.078 350.447,820.806 354.938,820.806 354.938,816.535 356.547,816.535 356.547,812.263 359.663,812.263 359.663,807.992 360.49,807.992 360.49,803.72 360.806,803.72 360.806,799.449 362.668,799.449 362.668,795.178 362.714,795.178 362.714,790.906 368.503,790.906 368.503,786.635 368.562,786.635 368.562,782.363 371.332,782.363 371.332,778.092 371.51,778.092 371.51,773.82 371.912,773.82 371.912,769.549 372.816,769.549 372.816,765.277 374.451,765.277 374.451,761.006 377.522,761.006 377.522,756.734 379.734,756.734 379.734,752.463 381.237,752.463 381.237,748.191 381.835,748.191 381.835,743.92 382.177,743.92 382.177,739.648 384.79,739.648 384.79,735.377 385.155,735.377 385.155,731.106 385.258,731.106 385.258,726.834 389.216,726.834 389.216,722.563 390.296,722.563 390.296,718.291 390.761,718.291 390.761,714.02 390.767,714.02 390.767,709.748 391.105,709.748 391.105,705.477 393.337,705.477 393.337,701.205 393.947,701.205 393.947,696.934 397.043,696.934 397.043,692.662 397.368,692.662 397.368,688.391 398.694,688.391 398.694,684.119 399.327,684.119 399.327,679.848 402.752,679.848 402.752,675.577 403.398,675.577 403.398,671.305 404.311,671.305 404.311,667.034 404.499,667.034 404.499,662.762 405.036,662.762 405.036,658.491 405.771,658.491 405.771,654.219 408.736,654.219 408.736,649.948 410.861,649.948 410.861,645.676 411.366,645.676 411.366,641.405 411.736,641.405 411.736,637.133 412.162,637.133 412.162,632.862 413.511,632.862 413.511,628.59 416.776,628.59 416.776,624.319 417.234,624.319 417.234,620.047 418.198,620.047 418.198,615.776 420.727,615.776 420.727,611.505 421.442,611.505 421.442,607.233 422.288,607.233 422.288,602.962 422.47,602.962 422.47,598.69 423.129,598.69 423.129,594.419 424.269,594.419 424.269,590.147 424.652,590.147 424.652,585.876 426.624,585.876 426.624,581.604 427.011,581.604 427.011,577.333 428.954,577.333 428.954,573.061 429.51,573.061 429.51,568.79 429.886,568.79 429.886,564.518 430.447,564.518 430.447,560.247 432.838,560.247 432.838,555.976 433.941,555.976 433.941,551.704 435.224,551.704 435.224,547.433 438.17,547.433 438.17,543.161 440.135,543.161 440.135,538.89 440.395,538.89 440.395,534.618 442.476,534.618 442.476,530.347 447.884,530.347 447.884,526.075 452.47,526.075 452.47,521.804 452.597,521.804 452.597,517.532 455.775,517.532 455.775,513.261 460.955,513.261 460.955,508.989 468.102,508.989 468.102,504.718 468.379,504.718 468.379,500.446 468.969,500.446 468.969,496.175 471.432,496.175 471.432,491.904 471.812,491.904 471.812,487.632 473.754,487.632 473.754,483.361 480.224,483.361 480.224,479.089 480.436,479.089 480.436,474.818 484.836,474.818 484.836,470.546 486.625,470.546 486.625,466.275 490.085,466.275 490.085,462.003 491.248,462.003 491.248,457.732 495.621,457.732 495.621,453.46 502.614,453.46 502.614,449.189 509.454,449.189 509.454,444.917 510.802,444.917 510.802,440.646 514.23,440.646 514.23,436.374 514.846,436.374 514.846,432.103 523.777,432.103 523.777,427.832 525.568,427.832 525.568,423.56 541.941,423.56 541.941,419.289 548.842,419.289 548.842,415.017 558.043,415.017 558.043,410.746 564.178,410.746 564.178,406.474 567.86,406.474 567.86,402.203 582.44,402.203 582.44,397.931 586.72,397.931 586.72,393.66 601.607,393.66 601.607,389.388 646.136,389.388 646.136,385.117 646.323,385.117 646.323,380.845 647.537,380.845 647.537,376.574 650.198,376.574 650.198,372.303 658.311,372.303 658.311,368.031 660.388,368.031 660.388,363.76 689.479,363.76 689.479,359.488 691.53,359.488 691.53,355.217 696.268,355.217 696.268,350.945 703.57,350.945 703.57,346.674 719.617,346.674 719.617,342.402 741.059,342.402 741.059,338.131 743.813,338.131 743.813,333.859 745.72,333.859 745.72,329.588 775.633,329.588 775.633,325.316 795.821,325.316 795.821,321.045 797.08,321.045 797.08,316.773 840.882,316.773 840.882,312.502 926.546,312.502 926.546,308.231 972.444,308.231 972.444,303.959 987.794,303.959 987.794,299.688 1006.94,299.688 1006.94,295.416 1067.02,295.416 1067.02,291.145 1074.78,291.145 1074.78,286.873 1197.88,286.873 1197.88,282.602 1205.4,282.602 1205.4,278.33 1288.57,278.33 1288.57,274.059 1314.49,274.059 1314.49,269.787 1316.33,269.787 1316.33,265.516 4073.57,265.516 4073.57,167.272 "/>
<polyline clip-path="url(#clip502)" style="stroke:#3da44d; stroke-linecap:round; stroke-linejoin:round; stroke-width:4; stroke-opacity:1; fill:none" points="249.542,1265.04 252.794,1265.04 252.794,1260.77 253.11,1260.77 253.11,1256.5 255.687,1256.5 255.687,1252.22 268.272,1252.22 268.272,1247.95 269.868,1247.95 269.868,1243.68 280.542,1243.68 280.542,1239.41 281.596,1239.41 281.596,1235.14 286.912,1235.14 286.912,1230.87 289.223,1230.87 289.223,1226.6 292.09,1226.6 292.09,1222.32 296.407,1222.32 296.407,1218.05 297.918,1218.05 297.918,1213.78 301.63,1213.78 301.63,1209.51 305.484,1209.51 305.484,1205.24 310.093,1205.24 310.093,1200.97 318.561,1200.97 318.561,1196.7 320.803,1196.7 320.803,1192.42 323.627,1192.42 323.627,1188.15 328.346,1188.15 328.346,1183.88 328.416,1183.88 328.416,1179.61 328.59,1179.61 328.59,1175.34 333.33,1175.34 333.33,1171.07 344.086,1171.07 344.086,1166.79 345.735,1166.79 345.735,1162.52 351.731,1162.52 351.731,1158.25 351.9,1158.25 351.9,1153.98 352.617,1153.98 352.617,1149.71 355.931,1149.71 355.931,1145.44 360.037,1145.44 360.037,1141.17 363.664,1141.17 363.664,1136.89 365.079,1136.89 365.079,1132.62 370.81,1132.62 370.81,1128.35 380.114,1128.35 380.114,1124.08 395.38,1124.08 395.38,1119.81 396.234,1119.81 396.234,1115.54 400.846,1115.54 400.846,1111.27 404.354,1111.27 404.354,1106.99 405.63,1106.99 405.63,1102.72 406.365,1102.72 406.365,1098.45 407.778,1098.45 407.778,1094.18 410.406,1094.18 410.406,1089.91 413.86,1089.91 413.86,1085.64 420.358,1085.64 420.358,1081.37 423.476,1081.37 423.476,1077.09 424.903,1077.09 424.903,1072.82 425.631,1072.82 425.631,1068.55 428.512,1068.55 428.512,1064.28 429.489,1064.28 429.489,1060.01 438.368,1060.01 438.368,1055.74 440.78,1055.74 440.78,1051.47 443.621,1051.47 443.621,1047.19 443.663,1047.19 443.663,1042.92 445.353,1042.92 445.353,1038.65 447.529,1038.65 447.529,1034.38 450.702,1034.38 450.702,1030.11 454.839,1030.11 454.839,1025.84 463.985,1025.84 463.985,1021.57 464.387,1021.57 464.387,1017.29 474.893,1017.29 474.893,1013.02 476.912,1013.02 476.912,1008.75 482.151,1008.75 482.151,1004.48 487.23,1004.48 487.23,1000.21 488.508,1000.21 488.508,995.936 488.81,995.936 488.81,991.665 494.065,991.665 494.065,987.393 507.687,987.393 507.687,983.122 509.019,983.122 509.019,978.85 510.861,978.85 510.861,974.579 512.043,974.579 512.043,970.308 514.158,970.308 514.158,966.036 515.251,966.036 515.251,961.765 536.367,961.765 536.367,957.493 541.31,957.493 541.31,953.222 543.228,953.222 543.228,948.95 543.265,948.95 543.265,944.679 551.901,944.679 551.901,940.407 553.877,940.407 553.877,936.136 564.2,936.136 564.2,931.864 564.93,931.864 564.93,927.593 569.125,927.593 569.125,923.321 574.966,923.321 574.966,919.05 585.156,919.05 585.156,914.779 589.89,914.779 589.89,910.507 594.048,910.507 594.048,906.236 595.27,906.236 595.27,901.964 598.553,901.964 598.553,897.693 599.239,897.693 599.239,893.421 608.091,893.421 608.091,889.15 608.265,889.15 608.265,884.878 608.942,884.878 608.942,880.607 611.559,880.607 611.559,876.335 616.588,876.335 616.588,872.064 623.745,872.064 623.745,867.792 632.337,867.792 632.337,863.521 632.776,863.521 632.776,859.249 640.225,859.249 640.225,854.978 641.799,854.978 641.799,850.707 642.062,850.707 642.062,846.435 642.939,846.435 642.939,842.164 653.911,842.164 653.911,837.892 655.854,837.892 655.854,833.621 659.842,833.621 659.842,829.349 661.297,829.349 661.297,825.078 663.569,825.078 663.569,820.806 668.043,820.806 668.043,816.535 668.216,816.535 668.216,812.263 669.162,812.263 669.162,807.992 669.391,807.992 669.391,803.72 673.093,803.72 673.093,799.449 678.086,799.449 678.086,795.178 680.851,795.178 680.851,790.906 682.66,790.906 682.66,786.635 686.571,786.635 686.571,782.363 687.26,782.363 687.26,778.092 687.952,778.092 687.952,773.82 697.547,773.82 697.547,769.549 698.435,769.549 698.435,765.277 698.931,765.277 698.931,761.006 700.978,761.006 700.978,756.734 707.722,756.734 707.722,752.463 709.729,752.463 709.729,748.191 712.844,748.191 712.844,743.92 716.151,743.92 716.151,739.648 718.463,739.648 718.463,735.377 721.196,735.377 721.196,731.106 726.759,731.106 726.759,726.834 726.927,726.834 726.927,722.563 728.897,722.563 728.897,718.291 729.192,718.291 729.192,714.02 730.421,714.02 730.421,709.748 736.502,709.748 736.502,705.477 737.549,705.477 737.549,701.205 739.305,701.205 739.305,696.934 739.552,696.934 739.552,692.662 741.026,692.662 741.026,688.391 741.596,688.391 741.596,684.119 744.002,684.119 744.002,679.848 746.314,679.848 746.314,675.577 747.591,675.577 747.591,671.305 747.615,671.305 747.615,667.034 751.977,667.034 751.977,662.762 752.91,662.762 752.91,658.491 754.408,658.491 754.408,654.219 755.068,654.219 755.068,649.948 756.254,649.948 756.254,645.676 757.915,645.676 757.915,641.405 758.05,641.405 758.05,637.133 758.485,637.133 758.485,632.862 760.44,632.862 760.44,628.59 763.867,628.59 763.867,624.319 765.409,624.319 765.409,620.047 766.896,620.047 766.896,615.776 767.107,615.776 767.107,611.505 772.058,611.505 772.058,607.233 773.025,607.233 773.025,602.962 774.893,602.962 774.893,598.69 780.084,598.69 780.084,594.419 783.903,594.419 783.903,590.147 785.891,590.147 785.891,585.876 785.989,585.876 785.989,581.604 794.828,581.604 794.828,577.333 798.486,577.333 798.486,573.061 803.101,573.061 803.101,568.79 803.562,568.79 803.562,564.518 804.774,564.518 804.774,560.247 808.308,560.247 808.308,555.976 814.394,555.976 814.394,551.704 816.72,551.704 816.72,547.433 818.505,547.433 818.505,543.161 821.05,543.161 821.05,538.89 824.946,538.89 824.946,534.618 826.755,534.618 826.755,530.347 831.676,530.347 831.676,526.075 832.362,526.075 832.362,521.804 833.001,521.804 833.001,517.532 835.57,517.532 835.57,513.261 835.887,513.261 835.887,508.989 837.305,508.989 837.305,504.718 837.796,504.718 837.796,500.446 838.427,500.446 838.427,496.175 840.625,496.175 840.625,491.904 843.399,491.904 843.399,487.632 844.511,487.632 844.511,483.361 845.253,483.361 845.253,479.089 846.391,479.089 846.391,474.818 847.453,474.818 847.453,470.546 851.14,470.546 851.14,466.275 852.24,466.275 852.24,462.003 856.98,462.003 856.98,457.732 863.169,457.732 863.169,453.46 871.555,453.46 871.555,449.189 874.994,449.189 874.994,444.917 877.141,444.917 877.141,440.646 881.929,440.646 881.929,436.374 883.971,436.374 883.971,432.103 886.716,432.103 886.716,427.832 889.725,427.832 889.725,423.56 893.792,423.56 893.792,419.289 896.865,419.289 896.865,415.017 899.421,415.017 899.421,410.746 908.331,410.746 908.331,406.474 917.859,406.474 917.859,402.203 918.628,402.203 918.628,397.931 930.988,397.931 930.988,393.66 938.967,393.66 938.967,389.388 942.255,389.388 942.255,385.117 942.306,385.117 942.306,380.845 946.653,380.845 946.653,376.574 947.364,376.574 947.364,372.303 948.106,372.303 948.106,368.031 966.326,368.031 966.326,363.76 973.776,363.76 973.776,359.488 978.263,359.488 978.263,355.217 997.884,355.217 997.884,350.945 1022.32,350.945 1022.32,346.674 1025.65,346.674 1025.65,342.402 1028.71,342.402 1028.71,338.131 1064.13,338.131 1064.13,333.859 1087.33,333.859 1087.33,329.588 1093.65,329.588 1093.65,325.316 1095.02,325.316 1095.02,321.045 1118.54,321.045 1118.54,316.773 1133.36,316.773 1133.36,312.502 1145.71,312.502 1145.71,308.231 1165.47,308.231 1165.47,303.959 1169.37,303.959 1169.37,299.688 1214.01,299.688 1214.01,295.416 1215.94,295.416 1215.94,291.145 1254.6,291.145 1254.6,286.873 1277.44,286.873 1277.44,282.602 1293.85,282.602 1293.85,278.33 1294.63,278.33 1294.63,274.059 1346.19,274.059 1346.19,269.787 1357.02,269.787 1357.02,265.516 1545.01,265.516 1545.01,261.244 4073.57,261.244 4073.57,167.272 "/>
<polyline clip-path="url(#clip502)" style="stroke:#c271d2; stroke-linecap:round; stroke-linejoin:round; stroke-width:4; stroke-opacity:1; fill:none" points="249.542,658.491 251.195,658.491 251.195,654.219 251.546,654.219 251.546,649.948 251.804,649.948 251.804,645.676 253.899,645.676 253.899,641.405 256.921,641.405 256.921,637.133 260.548,637.133 260.548,632.862 261.427,632.862 261.427,628.59 261.59,628.59 261.59,624.319 262.546,624.319 262.546,620.047 265.132,620.047 265.132,615.776 269.386,615.776 269.386,611.505 269.508,611.505 269.508,607.233 271.041,607.233 271.041,602.962 276.176,602.962 276.176,598.69 276.719,598.69 276.719,594.419 284.28,594.419 284.28,590.147 287.642,590.147 287.642,585.876 288.357,585.876 288.357,581.604 288.614,581.604 288.614,577.333 291.296,577.333 291.296,573.061 291.979,573.061 291.979,568.79 292.739,568.79 292.739,564.518 295.388,564.518 295.388,560.247 297.07,560.247 297.07,555.976 301.859,555.976 301.859,551.704 303.491,551.704 303.491,547.433 311.31,547.433 311.31,543.161 311.513,543.161 311.513,538.89 311.549,538.89 311.549,534.618 314.294,534.618 314.294,530.347 326.155,530.347 326.155,526.075 328.936,526.075 328.936,521.804 332.634,521.804 332.634,517.532 333.652,517.532 333.652,513.261 337.315,513.261 337.315,508.989 338.661,508.989 338.661,504.718 338.692,504.718 338.692,500.446 340.693,500.446 340.693,496.175 340.719,496.175 340.719,491.904 343.032,491.904 343.032,487.632 348.584,487.632 348.584,483.361 352.428,483.361 352.428,479.089 353.487,479.089 353.487,474.818 359.653,474.818 359.653,470.546 367.484,470.546 367.484,466.275 376.927,466.275 376.927,462.003 380.909,462.003 380.909,457.732 384.283,457.732 384.283,453.46 384.988,453.46 384.988,449.189 394.045,449.189 394.045,444.917 424.793,444.917 424.793,440.646 445.584,440.646 445.584,436.374 449.615,436.374 449.615,432.103 477.609,432.103 477.609,427.832 492.38,427.832 492.38,423.56 492.471,423.56 492.471,419.289 494.513,419.289 494.513,415.017 513.119,415.017 513.119,410.746 515.48,410.746 515.48,406.474 527.22,406.474 527.22,402.203 538.966,402.203 538.966,397.931 581.358,397.931 581.358,393.66 592.663,393.66 592.663,389.388 592.687,389.388 592.687,385.117 602.869,385.117 602.869,380.845 628.479,380.845 628.479,376.574 639.061,376.574 639.061,372.303 662.036,372.303 662.036,368.031 673.034,368.031 673.034,363.76 674.346,363.76 674.346,359.488 695.524,359.488 695.524,355.217 698.853,355.217 698.853,350.945 704.142,350.945 704.142,346.674 711.274,346.674 711.274,342.402 712.519,342.402 712.519,338.131 736.787,338.131 736.787,333.859 740.375,333.859 740.375,329.588 748.298,329.588 748.298,325.316 781.002,325.316 781.002,321.045 787.731,321.045 787.731,316.773 794.691,316.773 794.691,312.502 796.451,312.502 796.451,308.231 801.066,308.231 801.066,303.959 821.739,303.959 821.739,299.688 831.924,299.688 831.924,295.416 842.681,295.416 842.681,291.145 849.138,291.145 849.138,286.873 922.024,286.873 922.024,282.602 945.91,282.602 945.91,278.33 1264.82,278.33 1264.82,274.059 4073.57,274.059 4073.57,167.272 "/>
<path clip-path="url(#clip500)" d="M1948.12 1368.96 L2282.65 1368.96 L2282.65 1109.76 L1948.12 1109.76  Z" fill="#ffffff" fill-rule="evenodd" fill-opacity="1"/>
<polyline clip-path="url(#clip500)" style="stroke:#000000; stroke-linecap:round; stroke-linejoin:round; stroke-width:4; stroke-opacity:1; fill:none" points="1948.12,1368.96 2282.65,1368.96 2282.65,1109.76 1948.12,1109.76 1948.12,1368.96 "/>
<polyline clip-path="url(#clip500)" style="stroke:#009af9; stroke-linecap:round; stroke-linejoin:round; stroke-width:4; stroke-opacity:1; fill:none" points="1971.48,1161.6 2111.7,1161.6 "/>
<path clip-path="url(#clip500)" d="M2142.47 1145.6 L2142.47 1152.96 L2151.25 1152.96 L2151.25 1156.27 L2142.47 1156.27 L2142.47 1170.34 Q2142.47 1173.51 2143.33 1174.42 Q2144.21 1175.32 2146.87 1175.32 L2151.25 1175.32 L2151.25 1178.88 L2146.87 1178.88 Q2141.94 1178.88 2140.07 1177.05 Q2138.19 1175.2 2138.19 1170.34 L2138.19 1156.27 L2135.07 1156.27 L2135.07 1152.96 L2138.19 1152.96 L2138.19 1145.6 L2142.47 1145.6 Z" fill="#000000" fill-rule="nonzero" fill-opacity="1" /><path clip-path="url(#clip500)" d="M2171.87 1156.94 Q2171.16 1156.52 2170.3 1156.34 Q2169.47 1156.13 2168.45 1156.13 Q2164.84 1156.13 2162.89 1158.49 Q2160.97 1160.83 2160.97 1165.23 L2160.97 1178.88 L2156.69 1178.88 L2156.69 1152.96 L2160.97 1152.96 L2160.97 1156.99 Q2162.31 1154.62 2164.47 1153.49 Q2166.62 1152.33 2169.7 1152.33 Q2170.14 1152.33 2170.67 1152.4 Q2171.2 1152.45 2171.85 1152.56 L2171.87 1156.94 Z" fill="#000000" fill-rule="nonzero" fill-opacity="1" /><path clip-path="url(#clip500)" d="M2185.34 1155.94 Q2181.92 1155.94 2179.93 1158.63 Q2177.94 1161.29 2177.94 1165.94 Q2177.94 1170.6 2179.91 1173.28 Q2181.9 1175.94 2185.34 1175.94 Q2188.75 1175.94 2190.74 1173.26 Q2192.73 1170.57 2192.73 1165.94 Q2192.73 1161.34 2190.74 1158.65 Q2188.75 1155.94 2185.34 1155.94 M2185.34 1152.33 Q2190.9 1152.33 2194.07 1155.94 Q2197.24 1159.55 2197.24 1165.94 Q2197.24 1172.31 2194.07 1175.94 Q2190.9 1179.55 2185.34 1179.55 Q2179.77 1179.55 2176.59 1175.94 Q2173.45 1172.31 2173.45 1165.94 Q2173.45 1159.55 2176.59 1155.94 Q2179.77 1152.33 2185.34 1152.33 Z" fill="#000000" fill-rule="nonzero" fill-opacity="1" /><path clip-path="url(#clip500)" d="M2225.85 1163.24 L2225.85 1178.88 L2221.59 1178.88 L2221.59 1163.37 Q2221.59 1159.69 2220.16 1157.86 Q2218.72 1156.04 2215.85 1156.04 Q2212.4 1156.04 2210.41 1158.24 Q2208.42 1160.43 2208.42 1164.23 L2208.42 1178.88 L2204.14 1178.88 L2204.14 1152.96 L2208.42 1152.96 L2208.42 1156.99 Q2209.95 1154.65 2212.01 1153.49 Q2214.09 1152.33 2216.8 1152.33 Q2221.27 1152.33 2223.56 1155.11 Q2225.85 1157.86 2225.85 1163.24 Z" fill="#000000" fill-rule="nonzero" fill-opacity="1" /><polyline clip-path="url(#clip500)" style="stroke:#e26f46; stroke-linecap:round; stroke-linejoin:round; stroke-width:4; stroke-opacity:1; fill:none" points="1971.48,1213.44 2111.7,1213.44 "/>
<path clip-path="url(#clip500)" d="M2142.47 1197.44 L2142.47 1204.8 L2151.25 1204.8 L2151.25 1208.11 L2142.47 1208.11 L2142.47 1222.18 Q2142.47 1225.35 2143.33 1226.26 Q2144.21 1227.16 2146.87 1227.16 L2151.25 1227.16 L2151.25 1230.72 L2146.87 1230.72 Q2141.94 1230.72 2140.07 1228.89 Q2138.19 1227.04 2138.19 1222.18 L2138.19 1208.11 L2135.07 1208.11 L2135.07 1204.8 L2138.19 1204.8 L2138.19 1197.44 L2142.47 1197.44 Z" fill="#000000" fill-rule="nonzero" fill-opacity="1" /><path clip-path="url(#clip500)" d="M2171.87 1208.78 Q2171.16 1208.36 2170.3 1208.18 Q2169.47 1207.97 2168.45 1207.97 Q2164.84 1207.97 2162.89 1210.33 Q2160.97 1212.67 2160.97 1217.07 L2160.97 1230.72 L2156.69 1230.72 L2156.69 1204.8 L2160.97 1204.8 L2160.97 1208.83 Q2162.31 1206.46 2164.47 1205.33 Q2166.62 1204.17 2169.7 1204.17 Q2170.14 1204.17 2170.67 1204.24 Q2171.2 1204.29 2171.85 1204.4 L2171.87 1208.78 Z" fill="#000000" fill-rule="nonzero" fill-opacity="1" /><path clip-path="url(#clip500)" d="M2175.9 1220.49 L2175.9 1204.8 L2180.16 1204.8 L2180.16 1220.33 Q2180.16 1224.01 2181.59 1225.86 Q2183.03 1227.69 2185.9 1227.69 Q2189.35 1227.69 2191.34 1225.49 Q2193.35 1223.29 2193.35 1219.5 L2193.35 1204.8 L2197.61 1204.8 L2197.61 1230.72 L2193.35 1230.72 L2193.35 1226.74 Q2191.8 1229.1 2189.74 1230.26 Q2187.71 1231.39 2185 1231.39 Q2180.53 1231.39 2178.22 1228.62 Q2175.9 1225.84 2175.9 1220.49 M2186.62 1204.17 L2186.62 1204.17 Z" fill="#000000" fill-rule="nonzero" fill-opacity="1" /><path clip-path="url(#clip500)" d="M2227.94 1215.08 L2227.94 1230.72 L2223.68 1230.72 L2223.68 1215.21 Q2223.68 1211.53 2222.24 1209.7 Q2220.81 1207.88 2217.94 1207.88 Q2214.49 1207.88 2212.5 1210.08 Q2210.51 1212.27 2210.51 1216.07 L2210.51 1230.72 L2206.22 1230.72 L2206.22 1204.8 L2210.51 1204.8 L2210.51 1208.83 Q2212.03 1206.49 2214.09 1205.33 Q2216.18 1204.17 2218.89 1204.17 Q2223.35 1204.17 2225.65 1206.95 Q2227.94 1209.7 2227.94 1215.08 Z" fill="#000000" fill-rule="nonzero" fill-opacity="1" /><path clip-path="url(#clip500)" d="M2236.27 1194.7 L2240.55 1194.7 L2240.55 1215.98 L2253.26 1204.8 L2258.7 1204.8 L2244.95 1216.93 L2259.28 1230.72 L2253.72 1230.72 L2240.55 1218.06 L2240.55 1230.72 L2236.27 1230.72 L2236.27 1194.7 Z" fill="#000000" fill-rule="nonzero" fill-opacity="1" /><polyline clip-path="url(#clip500)" style="stroke:#3da44d; stroke-linecap:round; stroke-linejoin:round; stroke-width:4; stroke-opacity:1; fill:none" points="1971.48,1265.28 2111.7,1265.28 "/>
<path clip-path="url(#clip500)" d="M2135.07 1256.64 L2139.33 1256.64 L2139.33 1282.56 L2135.07 1282.56 L2135.07 1256.64 M2135.07 1246.54 L2139.33 1246.54 L2139.33 1251.94 L2135.07 1251.94 L2135.07 1246.54 Z" fill="#000000" fill-rule="nonzero" fill-opacity="1" /><path clip-path="url(#clip500)" d="M2152.36 1278.67 L2152.36 1292.42 L2148.08 1292.42 L2148.08 1256.64 L2152.36 1256.64 L2152.36 1260.57 Q2153.7 1258.26 2155.74 1257.15 Q2157.8 1256.01 2160.65 1256.01 Q2165.37 1256.01 2168.31 1259.76 Q2171.27 1263.51 2171.27 1269.62 Q2171.27 1275.73 2168.31 1279.48 Q2165.37 1283.23 2160.65 1283.23 Q2157.8 1283.23 2155.74 1282.12 Q2153.7 1280.99 2152.36 1278.67 M2166.85 1269.62 Q2166.85 1264.92 2164.91 1262.26 Q2162.98 1259.58 2159.6 1259.58 Q2156.22 1259.58 2154.28 1262.26 Q2152.36 1264.92 2152.36 1269.62 Q2152.36 1274.32 2154.28 1277.01 Q2156.22 1279.67 2159.6 1279.67 Q2162.98 1279.67 2164.91 1277.01 Q2166.85 1274.32 2166.85 1269.62 Z" fill="#000000" fill-rule="nonzero" fill-opacity="1" /><path clip-path="url(#clip500)" d="M2188.38 1259.62 Q2184.95 1259.62 2182.96 1262.31 Q2180.97 1264.97 2180.97 1269.62 Q2180.97 1274.28 2182.94 1276.96 Q2184.93 1279.62 2188.38 1279.62 Q2191.78 1279.62 2193.77 1276.94 Q2195.76 1274.25 2195.76 1269.62 Q2195.76 1265.02 2193.77 1262.33 Q2191.78 1259.62 2188.38 1259.62 M2188.38 1256.01 Q2193.93 1256.01 2197.1 1259.62 Q2200.28 1263.23 2200.28 1269.62 Q2200.28 1275.99 2197.1 1279.62 Q2193.93 1283.23 2188.38 1283.23 Q2182.8 1283.23 2179.63 1279.62 Q2176.48 1275.99 2176.48 1269.62 Q2176.48 1263.23 2179.63 1259.62 Q2182.8 1256.01 2188.38 1256.01 Z" fill="#000000" fill-rule="nonzero" fill-opacity="1" /><path clip-path="url(#clip500)" d="M2211.46 1278.67 L2211.46 1292.42 L2207.17 1292.42 L2207.17 1256.64 L2211.46 1256.64 L2211.46 1260.57 Q2212.8 1258.26 2214.84 1257.15 Q2216.9 1256.01 2219.74 1256.01 Q2224.47 1256.01 2227.4 1259.76 Q2230.37 1263.51 2230.37 1269.62 Q2230.37 1275.73 2227.4 1279.48 Q2224.47 1283.23 2219.74 1283.23 Q2216.9 1283.23 2214.84 1282.12 Q2212.8 1280.99 2211.46 1278.67 M2225.95 1269.62 Q2225.95 1264.92 2224 1262.26 Q2222.08 1259.58 2218.7 1259.58 Q2215.32 1259.58 2213.38 1262.26 Q2211.46 1264.92 2211.46 1269.62 Q2211.46 1274.32 2213.38 1277.01 Q2215.32 1279.67 2218.7 1279.67 Q2222.08 1279.67 2224 1277.01 Q2225.95 1274.32 2225.95 1269.62 Z" fill="#000000" fill-rule="nonzero" fill-opacity="1" /><path clip-path="url(#clip500)" d="M2241.64 1249.28 L2241.64 1256.64 L2250.41 1256.64 L2250.41 1259.95 L2241.64 1259.95 L2241.64 1274.02 Q2241.64 1277.19 2242.5 1278.1 Q2243.38 1279 2246.04 1279 L2250.41 1279 L2250.41 1282.56 L2246.04 1282.56 Q2241.11 1282.56 2239.23 1280.73 Q2237.36 1278.88 2237.36 1274.02 L2237.36 1259.95 L2234.23 1259.95 L2234.23 1256.64 L2237.36 1256.64 L2237.36 1249.28 L2241.64 1249.28 Z" fill="#000000" fill-rule="nonzero" fill-opacity="1" /><polyline clip-path="url(#clip500)" style="stroke:#c271d2; stroke-linecap:round; stroke-linejoin:round; stroke-width:4; stroke-opacity:1; fill:none" points="1971.48,1317.12 2111.7,1317.12 "/>
<path clip-path="url(#clip500)" d="M2135.07 1298.38 L2139.33 1298.38 L2139.33 1334.4 L2135.07 1334.4 L2135.07 1298.38 Z" fill="#000000" fill-rule="nonzero" fill-opacity="1" /><path clip-path="url(#clip500)" d="M2166.85 1321.46 Q2166.85 1316.76 2164.91 1314.1 Q2162.98 1311.42 2159.6 1311.42 Q2156.22 1311.42 2154.28 1314.1 Q2152.36 1316.76 2152.36 1321.46 Q2152.36 1326.16 2154.28 1328.85 Q2156.22 1331.51 2159.6 1331.51 Q2162.98 1331.51 2164.91 1328.85 Q2166.85 1326.16 2166.85 1321.46 M2152.36 1312.41 Q2153.7 1310.1 2155.74 1308.99 Q2157.8 1307.85 2160.65 1307.85 Q2165.37 1307.85 2168.31 1311.6 Q2171.27 1315.35 2171.27 1321.46 Q2171.27 1327.57 2168.31 1331.32 Q2165.37 1335.07 2160.65 1335.07 Q2157.8 1335.07 2155.74 1333.96 Q2153.7 1332.83 2152.36 1330.51 L2152.36 1334.4 L2148.08 1334.4 L2148.08 1298.38 L2152.36 1298.38 L2152.36 1312.41 Z" fill="#000000" fill-rule="nonzero" fill-opacity="1" /><path clip-path="url(#clip500)" d="M2191.46 1298.38 L2191.46 1301.93 L2187.38 1301.93 Q2185.09 1301.93 2184.19 1302.85 Q2183.31 1303.78 2183.31 1306.19 L2183.31 1308.48 L2190.32 1308.48 L2190.32 1311.79 L2183.31 1311.79 L2183.31 1334.4 L2179.03 1334.4 L2179.03 1311.79 L2174.95 1311.79 L2174.95 1308.48 L2179.03 1308.48 L2179.03 1306.67 Q2179.03 1302.34 2181.04 1300.38 Q2183.05 1298.38 2187.43 1298.38 L2191.46 1298.38 Z" fill="#000000" fill-rule="nonzero" fill-opacity="1" /><path clip-path="url(#clip500)" d="M2212.08 1321.14 Q2212.08 1316.51 2210.16 1313.96 Q2208.26 1311.42 2204.81 1311.42 Q2201.39 1311.42 2199.47 1313.96 Q2197.57 1316.51 2197.57 1321.14 Q2197.57 1325.75 2199.47 1328.29 Q2201.39 1330.84 2204.81 1330.84 Q2208.26 1330.84 2210.16 1328.29 Q2212.08 1325.75 2212.08 1321.14 M2216.34 1331.19 Q2216.34 1337.81 2213.4 1341.02 Q2210.46 1344.26 2204.4 1344.26 Q2202.15 1344.26 2200.16 1343.92 Q2198.17 1343.59 2196.29 1342.9 L2196.29 1338.76 Q2198.17 1339.77 2200 1340.26 Q2201.83 1340.75 2203.72 1340.75 Q2207.91 1340.75 2210 1338.55 Q2212.08 1336.37 2212.08 1331.95 L2212.08 1329.84 Q2210.76 1332.13 2208.7 1333.27 Q2206.64 1334.4 2203.77 1334.4 Q2199 1334.4 2196.09 1330.77 Q2193.17 1327.13 2193.17 1321.14 Q2193.17 1315.12 2196.09 1311.49 Q2199 1307.85 2203.77 1307.85 Q2206.64 1307.85 2208.7 1308.99 Q2210.76 1310.12 2212.08 1312.41 L2212.08 1308.48 L2216.34 1308.48 L2216.34 1331.19 Z" fill="#000000" fill-rule="nonzero" fill-opacity="1" /><path clip-path="url(#clip500)" d="M2241.64 1309.24 L2241.64 1313.27 Q2239.84 1312.34 2237.89 1311.88 Q2235.95 1311.42 2233.86 1311.42 Q2230.69 1311.42 2229.09 1312.39 Q2227.52 1313.36 2227.52 1315.31 Q2227.52 1316.79 2228.65 1317.64 Q2229.79 1318.48 2233.22 1319.24 L2234.67 1319.57 Q2239.21 1320.54 2241.11 1322.32 Q2243.03 1324.08 2243.03 1327.25 Q2243.03 1330.86 2240.16 1332.97 Q2237.31 1335.07 2232.31 1335.07 Q2230.23 1335.07 2227.96 1334.66 Q2225.72 1334.26 2223.22 1333.45 L2223.22 1329.06 Q2225.58 1330.28 2227.87 1330.91 Q2230.16 1331.51 2232.4 1331.51 Q2235.41 1331.51 2237.03 1330.49 Q2238.65 1329.45 2238.65 1327.57 Q2238.65 1325.84 2237.47 1324.91 Q2236.32 1323.99 2232.36 1323.13 L2230.88 1322.78 Q2226.92 1321.95 2225.16 1320.24 Q2223.4 1318.5 2223.4 1315.49 Q2223.4 1311.83 2225.99 1309.84 Q2228.59 1307.85 2233.35 1307.85 Q2235.72 1307.85 2237.8 1308.2 Q2239.88 1308.55 2241.64 1309.24 Z" fill="#000000" fill-rule="nonzero" fill-opacity="1" /></svg>
